<svg width="36" height="35" viewBox="0 0 36 35" fill="none" xmlns="http://www.w3.org/2000/svg">
<rect x="0.5" y="0.5" width="34.8062" height="34" rx="17" fill="#F6F2FF" stroke="#8B5FFF"/>
<path d="M15.5944 17.2056H15.7111L15.6905 17.0906C15.5557 16.3396 15.1525 15.6253 14.5876 15.0082L14.5876 15.0082L14.5863 15.0068C13.8515 14.2356 13.469 13.258 13.469 12.2512C13.469 11.1266 13.9467 10.06 14.8422 9.2582C15.737 8.45708 16.8887 8.06958 18.1413 8.09924C20.4501 8.18893 22.3957 10.035 22.4275 12.1616L22.4275 12.1616L22.4276 12.1631C22.4593 13.2258 22.0144 14.2632 21.246 15.0663C20.6751 15.628 20.3397 16.3145 20.2059 17.0913L20.1862 17.2056H20.3021H24.4867C25.5186 17.2056 26.3506 17.9881 26.3506 18.9292V21.9646C26.3506 22.2378 26.107 22.474 25.7944 22.474H10.1021C9.78946 22.474 9.5459 22.2378 9.5459 21.9646V18.9292C9.5459 17.9881 10.3779 17.2056 11.4098 17.2056H15.5944ZM10.6583 21.3575V21.4551H10.7559H25.1405H25.2382V21.3575V18.9292C25.2382 18.5346 24.8933 18.2244 24.4867 18.2244H19.5829C19.2702 18.2244 19.0267 17.9882 19.0267 17.715C19.0267 16.4656 19.507 15.2767 20.4034 14.3848C21.0114 13.7887 21.3151 13.0044 21.3152 12.1905L21.3151 12.1885C21.2812 10.5523 19.8281 9.18054 18.0825 9.1182L18.0822 9.11819C17.1437 9.08707 16.2684 9.39816 15.6269 9.9933C14.9536 10.5877 14.5814 11.4028 14.5814 12.2512C14.5814 13.0054 14.8857 13.7579 15.4256 14.3219C16.3588 15.308 16.8698 16.4988 16.8698 17.715C16.8698 17.9882 16.6263 18.2244 16.3136 18.2244H11.4098C11.0032 18.2244 10.6583 18.5346 10.6583 18.9292V21.3575ZM25.7944 24.9023H10.1021C9.78946 24.9023 9.5459 24.6662 9.5459 24.3929C9.5459 24.1196 9.78946 23.8835 10.1021 23.8835H25.7944C26.107 23.8835 26.3506 24.1197 26.3506 24.3929C26.3506 24.6662 26.107 24.9023 25.7944 24.9023Z" fill="#8B5FFF" stroke="#8B5FFF" stroke-width="0.195312"/>
</svg>
