<svg width="36" height="35" viewBox="0 0 36 35" fill="none" xmlns="http://www.w3.org/2000/svg">
<rect x="0.5" y="0.5" width="34.8062" height="34" rx="17" fill="#F6F2FF" stroke="#8B5FFF"/>
<path d="M26.9257 9.00008C26.4141 8.99998 25.9148 9.15549 25.495 9.44567C25.0752 9.73584 24.7551 10.1467 24.5779 10.623C24.4006 11.0992 24.3746 11.618 24.5035 12.1093C24.6324 12.6006 24.9099 13.041 25.2987 13.371L23.0636 19.0183C22.5951 20.2013 20.9607 20.3326 20.3069 19.2401L17.7924 15.0356C16.361 12.6445 12.7698 12.9892 11.8274 15.6086L9.87442 21.0341C9.28911 21.0518 8.7286 21.2727 8.29046 21.6582C7.85232 22.0438 7.56429 22.5696 7.47652 23.1442C7.38875 23.7188 7.50679 24.3057 7.8101 24.8029C8.11341 25.3 8.58277 25.6758 9.13648 25.8649C9.6902 26.054 10.2932 26.0443 10.8405 25.8377C11.3878 25.631 11.8447 25.2404 12.1318 24.7339C12.4188 24.2274 12.5178 23.637 12.4115 23.0655C12.3052 22.494 12.0002 21.9776 11.5498 21.6062L13.4963 16.1992C13.934 14.982 15.6029 14.8221 16.2688 15.933L18.7833 20.1376C20.1896 22.488 23.7043 22.2052 24.712 19.6616L26.9658 13.9671C27.2944 13.9645 27.6193 13.8977 27.9219 13.7705C28.2245 13.6432 28.4989 13.4581 28.7294 13.2257C28.9599 12.9932 29.142 12.718 29.2653 12.4156C29.3887 12.1133 29.4508 11.7899 29.4482 11.4637C29.4455 11.1376 29.3782 10.8152 29.25 10.5148C29.1218 10.2145 28.9353 9.94221 28.7011 9.71343C28.4668 9.48466 28.1895 9.30392 27.8849 9.18152C27.5803 9.05912 27.2543 8.99747 26.9257 9.00008ZM26.1946 11.4836C26.1946 11.3883 26.2135 11.2939 26.2502 11.2059C26.287 11.1179 26.3408 11.0379 26.4087 10.9705C26.4766 10.9031 26.5572 10.8496 26.6459 10.8131C26.7346 10.7767 26.8297 10.7579 26.9257 10.7579C27.0217 10.7579 27.1168 10.7767 27.2055 10.8131C27.2942 10.8496 27.3748 10.9031 27.4427 10.9705C27.5106 11.0379 27.5645 11.1179 27.6012 11.2059C27.6379 11.2939 27.6568 11.3883 27.6568 11.4836C27.6568 11.676 27.5797 11.8605 27.4426 11.9966C27.3055 12.1326 27.1196 12.209 26.9257 12.209C26.7318 12.209 26.5459 12.1326 26.4088 11.9966C26.2717 11.8605 26.1947 11.676 26.1946 11.4836ZM9.22064 23.5167C9.22062 23.4214 9.23951 23.3271 9.27625 23.239C9.31298 23.151 9.36683 23.071 9.43471 23.0036C9.5026 22.9362 9.5832 22.8827 9.67191 22.8463C9.76062 22.8098 9.8557 22.791 9.95171 22.791C10.0477 22.791 10.1428 22.8098 10.2315 22.8463C10.3202 22.8827 10.4008 22.9362 10.4687 23.0036C10.5366 23.071 10.5904 23.151 10.6272 23.239C10.6639 23.3271 10.6828 23.4214 10.6828 23.5167C10.6828 23.7091 10.6057 23.8936 10.4686 24.0297C10.3315 24.1657 10.1456 24.2421 9.95171 24.2421C9.75784 24.2421 9.57191 24.1657 9.43482 24.0297C9.29772 23.8936 9.22068 23.7091 9.22064 23.5167Z" fill="#8B5FFF"/>
</svg>
