<svg width="20" height="20" viewBox="0 0 20 20" fill="none" xmlns="http://www.w3.org/2000/svg">
<path d="M0.432918 4.0408L0.183382 4.38749C0.0820015 4.53105 -0.0037871 4.73068 0.000129001 4.95479C0.000129001 5.18241 0.0820016 5.42053 0.24188 5.66216C0.475824 6.01234 0.893047 6.38353 1.54811 6.76174L7.0732 10.1235L7.00303 7.46562L0.432966 4.04078L0.432918 4.0408ZM16.4389 14.7635L16.4467 14.767C16.8366 14.9806 17.1915 15.1207 17.5697 15.1487C17.9479 15.1767 18.3105 15.0717 18.6224 14.9036C19.2073 14.5919 19.7337 14.1262 19.9247 13.4643C20.1158 12.8024 19.9481 12.025 19.3633 11.1461C19.3594 11.1356 19.3516 11.125 19.3477 11.1145C18.7628 10.2321 17.9752 9.76983 17.1524 9.68577C16.3258 9.59821 15.5343 9.83984 14.8013 10.148C14.2827 10.3721 13.9044 10.5402 13.6042 10.5963C13.304 10.6453 13.07 10.6348 12.645 10.4492L11.4597 9.82934L11.5143 11.934L16.4389 14.7635L16.4389 14.7635ZM17.1563 11.1951C18.1779 11.7519 18.5054 12.9425 17.8855 13.86L14.1891 11.8535C14.8052 10.936 16.1347 10.6418 17.1563 11.1951ZM8.31309 12.757C8.29359 13.1772 8.19223 13.3698 8.00117 13.5799C7.80232 13.79 7.4553 14.0071 6.98739 14.3083C6.33622 14.739 5.71626 15.2468 5.40434 15.9401C5.0885 16.637 5.17039 17.488 5.77087 18.3809C6.34795 19.2634 7.0264 19.7712 7.76722 19.9393C8.50416 20.1038 9.21382 19.9147 9.79479 19.6031C10.1145 19.435 10.3875 19.2004 10.5434 18.8887C10.6955 18.577 10.7306 18.2303 10.7111 17.8241L10.7072 17.8171L10.2783 12.1581L10.251 11.8219C10.2354 11.6503 10.3797 11.5033 10.5707 11.4892C10.598 11.4892 10.6214 11.4927 10.6487 11.4963H10.6604L10.5083 5.9423L10.0911 2.21631C10.0326 1.51593 9.87279 1.01168 9.63885 0.657979C9.48289 0.416349 9.28793 0.237764 9.06566 0.129193C8.84731 0.0206438 8.61337 -0.0108789 8.42231 0.00312395L7.9622 0.0311296L8.26243 10.8974L8.31312 12.7569L8.31309 12.757ZM8.98374 14.5989L9.13971 18.4755C7.94656 18.514 6.94448 17.6771 6.90549 16.609C6.86261 15.5374 7.79449 14.6374 8.98374 14.5989Z" fill="black"/>
</svg>
