<svg width="18" height="18" viewBox="0 0 18 18" fill="none" xmlns="http://www.w3.org/2000/svg">
<path d="M15 3.66667L14.1991 14.3448C14.129 15.28 14.0939 15.7476 13.8667 16.1022C13.6666 16.4144 13.3648 16.6653 13.0011 16.822C12.588 17 12.0607 17 11.0062 17H6.99377C5.93927 17 5.41202 17 4.99889 16.822C4.63517 16.6653 4.33339 16.4144 4.13332 16.1022C3.90607 15.7476 3.871 15.28 3.80086 14.3448L3 3.66667M1 3.66667H17M13 3.66667L12.7294 2.94495C12.4671 2.24556 12.3359 1.89586 12.0927 1.63732C11.8779 1.409 11.6021 1.23228 11.2905 1.12336C10.9376 1 10.523 1 9.6936 1H8.3064C7.477 1 7.0624 1 6.70951 1.12336C6.39792 1.23228 6.12208 1.409 5.90729 1.63732C5.66405 1.89586 5.53292 2.24556 5.27064 2.94495L5 3.66667M11 7.22222V13.4444M7 7.22222V13.4444" stroke="#8B5FFF" stroke-width="1.5" stroke-linecap="round" stroke-linejoin="round"/>
</svg>
