<svg width="36" height="35" viewBox="0 0 36 35" fill="none" xmlns="http://www.w3.org/2000/svg">
<rect x="0.501953" y="0.5" width="34.8062" height="34" rx="17" fill="#F6F2FF" stroke="#8B5FFF"/>
<path d="M28.2699 26.4166C28.1395 26.4162 28.0123 26.3749 27.9058 26.2983C27.7994 26.2217 27.7189 26.1135 27.6754 25.9887L26.1997 21.906C26.0761 21.555 25.8855 21.2322 25.6388 20.956C25.3921 20.6799 25.0941 20.4559 24.762 20.2969C24.4298 20.1379 24.07 20.047 23.7032 20.0293C23.3363 20.0117 22.9697 20.0677 22.6242 20.1942L22.2026 20.3525C22.1185 20.3846 22.0286 20.3978 21.9391 20.3912C21.8495 20.3845 21.7625 20.3582 21.684 20.314C21.6045 20.2693 21.5353 20.2081 21.4808 20.1343C21.4263 20.0606 21.3878 19.976 21.3677 19.8861L19.951 13.4668C19.8772 13.132 19.6754 12.8406 19.3899 12.6568C19.1045 12.473 18.7588 12.4119 18.4289 12.4868C18.2656 12.5239 18.111 12.5933 17.9741 12.691C17.8372 12.7887 17.7205 12.9128 17.6309 13.0563C17.4498 13.346 17.3895 13.6969 17.4634 14.0317L18.9897 20.9645C19.026 21.1308 18.9958 21.3049 18.9057 21.4486C18.8155 21.5922 18.6728 21.6937 18.509 21.7305C18.3452 21.7674 18.1736 21.7368 18.0321 21.6453C17.8906 21.5538 17.7906 21.409 17.7543 21.2427L16.228 14.3099C16.0798 13.643 16.1987 12.9438 16.5584 12.366C16.9182 11.7881 17.4894 11.379 18.1464 11.2286C18.8034 11.0782 19.4923 11.1989 20.0616 11.564C20.6309 11.9292 21.034 12.509 21.1822 13.1758L22.4471 18.9103C23.4337 18.6202 24.4921 18.7208 25.4085 19.1918C26.3249 19.6628 27.0311 20.4692 27.3845 21.4481L28.8644 25.5522C28.9206 25.7123 28.9128 25.8884 28.8427 26.0428C28.7725 26.1971 28.6457 26.3175 28.4892 26.3781C28.4187 26.4033 28.3446 26.4163 28.2699 26.4166ZM15.9918 31C15.8601 31.0009 15.7315 30.9589 15.625 30.8802L14.3348 29.9515C13.8788 29.6209 13.5111 29.1803 13.2649 28.6693C13.0188 28.1583 12.9019 27.5931 12.9249 27.0248C12.9479 26.4565 13.1101 25.903 13.3967 25.4143C13.6834 24.9255 14.0855 24.517 14.5667 24.2255L14.6299 24.187L11.8935 18.859C11.7307 18.5578 11.628 18.2269 11.5912 17.8854C11.5543 17.5439 11.5842 17.1983 11.6789 16.8685C11.8703 16.2024 12.3145 15.6407 12.9139 15.307C13.5133 14.9733 14.2187 14.8949 14.875 15.0892C15.5313 15.2834 16.0847 15.7343 16.4135 16.3426L18.9096 20.7891C18.9508 20.8624 18.9774 20.9433 18.9879 21.027C18.9984 21.1108 18.9925 21.1959 18.9705 21.2773C18.9486 21.3588 18.9111 21.4351 18.8601 21.5018C18.8091 21.5686 18.7457 21.6245 18.6735 21.6664C18.6012 21.7082 18.5215 21.7352 18.439 21.7459C18.3564 21.7565 18.2726 21.7505 18.1924 21.7282C18.1121 21.706 18.037 21.6679 17.9712 21.6161C17.9054 21.5644 17.8503 21.5 17.8091 21.4267L15.3172 16.9888C15.1938 16.7717 15.0125 16.5943 14.7942 16.4772C14.5758 16.36 14.3293 16.3078 14.0831 16.3266C13.8368 16.3454 13.6007 16.4344 13.4021 16.5833C13.2035 16.7323 13.0503 16.9352 12.9603 17.1686C12.8895 17.3437 12.857 17.5324 12.865 17.7215C12.873 17.9107 12.9213 18.0958 13.0066 18.2641L16.0256 24.1314C16.1016 24.2776 16.1194 24.4478 16.0755 24.6071C16.0316 24.7663 15.9292 24.9023 15.7894 24.9873L15.2118 25.3296C14.9122 25.5122 14.6621 25.7674 14.4838 26.0725C14.3055 26.3775 14.2048 26.7227 14.1905 27.0771C14.1763 27.4314 14.2491 27.7838 14.4024 28.1026C14.5556 28.4213 14.7845 28.6964 15.0684 28.903L16.3797 29.8317C16.4877 29.9116 16.5682 30.024 16.6098 30.1529C16.6513 30.2819 16.6519 30.4208 16.6113 30.55C16.5707 30.6793 16.4911 30.7923 16.3837 30.8731C16.2763 30.9538 16.1466 30.9982 16.0129 31H15.9918ZM10.0552 14.3313C9.89611 14.3254 9.74528 14.258 9.63353 14.143L7.63497 12.1187C7.57582 12.0594 7.52885 11.9888 7.4968 11.9109C7.46475 11.8331 7.44824 11.7495 7.44824 11.6651C7.44824 11.5807 7.46475 11.4972 7.4968 11.4193C7.52885 11.3414 7.57582 11.2708 7.63497 11.2115L9.63353 9.18727C9.75525 9.08292 9.91129 9.02904 10.0704 9.0364C10.2296 9.04376 10.3802 9.11182 10.492 9.22698C10.6039 9.34214 10.6688 9.4959 10.6738 9.65754C10.6788 9.81917 10.6235 9.97677 10.519 10.0988L8.97578 11.6651L10.519 13.2357C10.5781 13.295 10.6251 13.3656 10.6571 13.4435C10.6892 13.5214 10.7057 13.6049 10.7057 13.6893C10.7057 13.7737 10.6892 13.8573 10.6571 13.9351C10.6251 14.013 10.5781 14.0836 10.519 14.143C10.4591 14.2057 10.3868 14.2549 10.3069 14.2874C10.227 14.3198 10.1412 14.3348 10.0552 14.3313ZM12.8633 12.307H8.08191C7.91417 12.307 7.7533 12.2394 7.63469 12.119C7.51608 11.9986 7.44945 11.8354 7.44945 11.6651C7.44945 11.4949 7.51608 11.3316 7.63469 11.2112C7.7533 11.0908 7.91417 11.0232 8.08191 11.0232H12.8633C13.031 11.0232 13.1919 11.0908 13.3105 11.2112C13.4291 11.3316 13.4957 11.4949 13.4957 11.6651C13.4957 11.8354 13.4291 11.9986 13.3105 12.119C13.1919 12.2394 13.031 12.307 12.8633 12.307ZM26.8237 14.3313C26.7405 14.3324 26.658 14.3163 26.5811 14.2839C26.5043 14.2515 26.4347 14.2036 26.3768 14.143C26.3176 14.0836 26.2707 14.013 26.2386 13.9351C26.2066 13.8573 26.1901 13.7737 26.1901 13.6893C26.1901 13.6049 26.2066 13.5214 26.2386 13.4435C26.2707 13.3656 26.3176 13.295 26.3768 13.2357L27.92 11.6651L26.3768 10.0988C26.2577 9.9785 26.1906 9.8151 26.1902 9.64456C26.1898 9.47401 26.2561 9.31029 26.3747 9.18941C26.4932 9.06854 26.6542 9.0004 26.8222 9C26.9903 8.9996 27.1516 9.06696 27.2707 9.18727L29.265 11.2072C29.3824 11.3281 29.4482 11.4911 29.4482 11.6608C29.4482 11.8306 29.3824 11.9936 29.265 12.1145L27.2707 14.1387C27.2126 14.1995 27.1432 14.2478 27.0664 14.2809C26.9896 14.314 26.9071 14.3311 26.8237 14.3313ZM28.8138 12.307H24.0325C23.8647 12.307 23.7039 12.2394 23.5853 12.119C23.4667 11.9986 23.4 11.8354 23.4 11.6651C23.4 11.4949 23.4667 11.3316 23.5853 11.2112C23.7039 11.0908 23.8647 11.0232 24.0325 11.0232H28.8138C28.9816 11.0232 29.1425 11.0908 29.2611 11.2112C29.3797 11.3316 29.4463 11.4949 29.4463 11.6651C29.4463 11.8354 29.3797 11.9986 29.2611 12.119C29.1425 12.2394 28.9816 12.307 28.8138 12.307Z" fill="#8B5FFF"/>
</svg>
