<svg width="30" height="30" viewBox="0 0 30 30" fill="none" xmlns="http://www.w3.org/2000/svg">
<rect x="0.5" y="0.5" width="29" height="29" rx="14.5" fill="#F6F2FF" stroke="#8B5FFF"/>
<path d="M16 7C16 6.44772 15.5523 6 15 6C14.4477 6 14 6.44772 14 7H16ZM14.2929 23.7071C14.6834 24.0976 15.3166 24.0976 15.7071 23.7071L22.0711 17.3431C22.4616 16.9526 22.4616 16.3195 22.0711 15.9289C21.6805 15.5384 21.0474 15.5384 20.6569 15.9289L15 21.5858L9.34315 15.9289C8.95262 15.5384 8.31946 15.5384 7.92893 15.9289C7.53841 16.3195 7.53841 16.9526 7.92893 17.3431L14.2929 23.7071ZM14 7V23H16V7H14Z" fill="#8B5FFF"/>
</svg>
