<svg width="19" height="18" viewBox="0 0 19 18" fill="none" xmlns="http://www.w3.org/2000/svg">
<path d="M1.48177 1L17.4818 17M7.56557 7.14546C7.101 7.62542 6.8151 8.27929 6.8151 9C6.8151 10.4728 8.00904 11.6667 9.48175 11.6667C10.2129 11.6667 10.8753 11.3724 11.357 10.896M4.59288 4.24191C2.90461 5.35586 1.61868 7.03017 1 9C2.13267 12.6063 5.50183 15.2222 9.48193 15.2222C11.2498 15.2222 12.8972 14.7061 14.2816 13.8164M8.59286 2.82168C8.88531 2.79265 9.18193 2.77778 9.48193 2.77778C13.4621 2.77778 16.8313 5.3937 17.9639 9C17.7144 9.79467 17.3562 10.5412 16.9068 11.2222" stroke="black" stroke-width="1.77778" stroke-linecap="round" stroke-linejoin="round"/>
</svg>
