<svg width="19" height="15" viewBox="0 0 19 15" fill="none" xmlns="http://www.w3.org/2000/svg">
<path fill-rule="evenodd" clip-rule="evenodd" d="M9.37047 5.33344C8.38867 5.33344 7.59272 6.12935 7.59272 7.11122C7.59272 8.09309 8.38867 8.889 9.37047 8.889C10.3524 8.889 11.1482 8.0931 11.1482 7.11122C11.1482 6.12934 10.3524 5.33344 9.37047 5.33344ZM5.81494 7.11122C5.81494 5.14749 7.40685 3.55566 9.37047 3.55566C11.3342 3.55566 12.926 5.1475 12.926 7.11122C12.926 9.07494 11.3342 10.6668 9.37047 10.6668C7.40685 10.6668 5.81494 9.07495 5.81494 7.11122Z" fill="black"/>
<path fill-rule="evenodd" clip-rule="evenodd" d="M0.0408457 6.84475C1.28655 2.8786 4.99136 0 9.37086 0C13.7503 0 17.4551 2.87863 18.7009 6.84475C18.7553 7.01815 18.7553 7.20407 18.7009 7.37747C17.4551 11.3436 13.7503 14.2222 9.37086 14.2222C4.99136 14.2222 1.28654 11.3436 0.040845 7.37747C-0.0136153 7.20407 -0.013615 7.01815 0.0408457 6.84475ZM1.8258 7.11111C2.92422 10.2192 5.88876 12.4444 9.37086 12.4444C12.8529 12.4444 15.8175 10.2192 16.9159 7.11111C15.8175 4.00306 12.8529 1.77778 9.37086 1.77778C5.88876 1.77778 2.92423 4.00304 1.8258 7.11111Z" fill="black"/>
</svg>
