<svg width="24" height="46" viewBox="0 0 24 46" fill="none" xmlns="http://www.w3.org/2000/svg">
<path d="M1.5 0L1.5 38.5" stroke="black" stroke-width="2"/>
<path d="M1.5 37.5C0.947715 37.5 0.5 37.9477 0.5 38.5C0.5 39.0523 0.947715 39.5 1.5 39.5V37.5ZM23.2071 39.2071C23.5976 38.8166 23.5976 38.1834 23.2071 37.7929L16.8431 31.4289C16.4526 31.0384 15.8195 31.0384 15.4289 31.4289C15.0384 31.8195 15.0384 32.4526 15.4289 32.8431L21.0858 38.5L15.4289 44.1569C15.0384 44.5474 15.0384 45.1805 15.4289 45.5711C15.8195 45.9616 16.4526 45.9616 16.8431 45.5711L23.2071 39.2071ZM1.5 39.5H22.5V37.5H1.5V39.5Z" fill="black"/>
</svg>
