<svg width="36" height="35" viewBox="0 0 36 35" fill="none" xmlns="http://www.w3.org/2000/svg">
<rect x="0.5" y="0.5" width="34.8062" height="34" rx="17" fill="#F6F2FF" stroke="#8B5FFF"/>
<path d="M19.0385 5.23028L19.0213 5.21521L19.0058 5.20164L18.984 5.18446C18.9799 5.18115 18.976 5.17783 18.9718 5.17482C18.9676 5.1718 18.9557 5.16336 18.948 5.15764L18.9364 5.1495C18.9283 5.14407 18.92 5.13865 18.9116 5.13353C18.9078 5.13081 18.9036 5.1284 18.8997 5.12599C18.8959 5.12358 18.8833 5.11634 18.875 5.11152L18.8616 5.10398C18.8539 5.09977 18.8461 5.09585 18.8381 5.09193L18.8223 5.08379C18.8151 5.08048 18.808 5.07716 18.8005 5.07415C18.7931 5.07113 18.7883 5.06842 18.7818 5.06571C18.7752 5.06299 18.769 5.06058 18.7624 5.05787C18.7559 5.05516 18.7478 5.05214 18.7404 5.04973C18.7329 5.04732 18.7293 5.04581 18.7237 5.0437L18.6987 5.03557C18.6936 5.03557 18.6885 5.03285 18.6835 5.03135C18.6784 5.02984 18.6656 5.02622 18.6564 5.02381C18.6519 5.02381 18.6471 5.0217 18.6424 5.0208C18.6328 5.01839 18.6236 5.01628 18.6126 5.01447L18.5983 5.01175C18.5888 5.00994 18.5795 5.00844 18.5685 5.00693C18.5575 5.00542 18.5575 5.00693 18.5521 5.00482C18.5468 5.00271 18.5345 5.00241 18.5256 5.00151C18.5167 5.0006 18.511 5.00151 18.5039 5.00151C18.4967 5.00151 18.4896 5.00151 18.4821 5L18.436 5L18.3946 5C18.3871 5 18.38 5 18.3728 5.00151C18.3657 5.00301 18.3582 5.00151 18.3511 5.00151C18.3439 5.00151 18.3335 5.00362 18.3246 5.00482C18.3156 5.00603 18.3135 5.00482 18.3082 5.00693C18.3028 5.00904 18.2894 5.00994 18.2799 5.01175L18.2656 5.01447C18.256 5.01628 18.2468 5.01839 18.2373 5.0208C18.2325 5.0208 18.2277 5.02291 18.2233 5.02381C18.214 5.02622 18.2051 5.02863 18.1962 5.03135C18.1872 5.03406 18.186 5.03406 18.181 5.03557L18.1563 5.0437C18.1506 5.04581 18.1446 5.04762 18.1393 5.04973C18.1339 5.05184 18.1244 5.05516 18.1172 5.05787C18.1101 5.06058 18.1041 5.06299 18.0979 5.06571C18.0916 5.06842 18.0854 5.07113 18.0791 5.07415C18.0729 5.07716 18.0645 5.08048 18.0574 5.08379L18.0416 5.09193C18.0335 5.09585 18.0258 5.09977 18.0181 5.10398L18.0046 5.11152C17.9963 5.11634 17.988 5.12087 17.9799 5.12599L17.968 5.13353C17.9597 5.13865 17.9513 5.14407 17.9433 5.1495L17.932 5.15764C17.9239 5.16336 17.9159 5.16879 17.9078 5.17482C17.8998 5.18085 17.8998 5.18115 17.8956 5.18446L17.8739 5.20164L17.8584 5.21521L17.8411 5.23028C17.8319 5.23872 17.8233 5.24716 17.8146 5.2559L17.8093 5.26102L14.7019 8.40837C14.5381 8.57783 14.447 8.80584 14.4483 9.0429C14.4495 9.27996 14.5432 9.50694 14.7088 9.67456C14.8745 9.84219 15.0988 9.93694 15.3331 9.93825C15.5673 9.93955 15.7927 9.84731 15.9601 9.68153L17.5516 8.07169L17.5516 15.7478C17.5516 15.9865 17.6453 16.2155 17.8122 16.3844C17.979 16.5532 18.2053 16.6481 18.4413 16.6481C18.6773 16.6481 18.9036 16.5532 19.0704 16.3844C19.2373 16.2155 19.331 15.9865 19.331 15.7478L19.331 8.07169L20.9225 9.68153C21.0048 9.76665 21.1029 9.8344 21.2113 9.88087C21.3196 9.92734 21.436 9.95161 21.5536 9.95226C21.6713 9.95292 21.7879 9.92995 21.8967 9.88469C22.0056 9.83943 22.1044 9.77277 22.1876 9.68858C22.2708 9.60439 22.3367 9.50433 22.3814 9.3942C22.4262 9.28408 22.4489 9.16607 22.4482 9.047C22.4476 8.92794 22.4236 8.81019 22.3777 8.70057C22.3318 8.59094 22.2648 8.49163 22.1807 8.40837L19.0704 5.26102L19.065 5.2559C19.0564 5.24716 19.0478 5.23841 19.0385 5.23028ZM17.5516 21.2533L17.5516 28.9294L15.9601 27.3187C15.7927 27.1529 15.5673 27.0606 15.3331 27.062C15.0988 27.0633 14.8745 27.158 14.7088 27.3256C14.5432 27.4933 14.4495 27.7202 14.4483 27.9573C14.447 28.1944 14.5381 28.4224 14.7019 28.5918L17.8122 31.7401L17.8176 31.7452C17.8262 31.7539 17.8349 31.7624 17.8441 31.7708L17.8614 31.7859L17.8769 31.7995L17.8986 31.8166C17.9028 31.82 17.9067 31.8233 17.9108 31.8263C17.915 31.8293 17.9269 31.8377 17.935 31.8435L17.9463 31.8516C17.9543 31.857 17.9627 31.8625 17.971 31.8676L17.9829 31.8751C17.9909 31.8802 17.9993 31.8848 18.0076 31.8896L18.021 31.8971C18.0288 31.9013 18.0365 31.9053 18.0446 31.9092L18.0604 31.9173C18.0675 31.9206 18.0746 31.9239 18.0821 31.927C18.0895 31.93 18.0946 31.9327 18.1009 31.9354C18.1071 31.9381 18.1137 31.9405 18.1202 31.9429C18.1268 31.9453 18.1348 31.9487 18.1423 31.9514C18.1497 31.9541 18.1536 31.9553 18.1592 31.9574L18.184 31.9655C18.189 31.9655 18.1941 31.9683 18.1992 31.9698C18.2042 31.9713 18.217 31.9749 18.2263 31.9773C18.2307 31.9773 18.2355 31.9794 18.2403 31.9803C18.2498 31.9827 18.259 31.9848 18.2686 31.9866L18.2829 31.9893C18.2924 31.9912 18.3016 31.9927 18.3112 31.9942C18.3207 31.9957 18.3222 31.9942 18.3275 31.9963C18.3329 31.9984 18.3451 31.9987 18.354 31.9996C18.363 32.0005 18.3686 31.9996 18.3758 31.9996L18.5286 31.9996C18.5357 31.9996 18.5462 31.9975 18.5551 31.9963C18.564 31.9951 18.5661 31.9963 18.5715 31.9942C18.5768 31.9921 18.5902 31.9912 18.6013 31.9893L18.6156 31.9866C18.6251 31.9848 18.6343 31.9827 18.6454 31.9803C18.6501 31.9803 18.6549 31.9782 18.6594 31.9773C18.6686 31.9749 18.6775 31.9725 18.6865 31.9698C18.6954 31.967 18.6966 31.967 18.7016 31.9655L18.7267 31.9574C18.7323 31.9553 18.738 31.9535 18.7434 31.9514C18.7487 31.9493 18.7582 31.9459 18.7657 31.9429C18.7731 31.9399 18.7785 31.9381 18.7848 31.9354C18.791 31.9327 18.7976 31.93 18.8038 31.927C18.8101 31.9239 18.8181 31.9206 18.8253 31.9173L18.841 31.9092C18.8491 31.9053 18.8568 31.9013 18.8646 31.8971L18.878 31.8896C18.8863 31.8848 18.8947 31.8802 18.9027 31.8751C18.9107 31.87 18.9107 31.8703 18.9146 31.8676C18.923 31.8625 18.9313 31.857 18.9393 31.8516L18.951 31.8435C18.9587 31.8377 18.9667 31.8323 18.9748 31.8263C18.9828 31.8203 18.9828 31.82 18.987 31.8166L19.0087 31.7995L19.0242 31.7859L19.0415 31.7708C19.0507 31.7624 19.0594 31.7539 19.068 31.7452L19.0734 31.7401L22.1807 28.5927C22.3445 28.4233 22.4357 28.1953 22.4344 27.9582C22.4331 27.7211 22.3395 27.4942 22.1738 27.3265C22.0081 27.1589 21.7838 27.0642 21.5496 27.0629C21.3153 27.0616 21.09 27.1538 20.9225 27.3196L19.331 28.9294L19.331 21.2524C19.331 21.0137 19.2373 20.7847 19.0704 20.6158C18.9036 20.447 18.6773 20.3521 18.4413 20.3521C18.2053 20.3521 17.979 20.447 17.8122 20.6158C17.6453 20.7847 17.5516 21.0137 17.5516 21.2524L17.5516 21.2533Z" fill="#8B5FFF"/>
</svg>
