<svg width="36" height="35" viewBox="0 0 36 35" fill="none" xmlns="http://www.w3.org/2000/svg">
<rect x="0.5" y="0.5" width="34.8062" height="34" rx="17" fill="#F6F2FF" stroke="#8B5FFF"/>
<path d="M31.218 18.5903L31.233 18.573L31.2466 18.5575L31.2638 18.5358C31.2671 18.5316 31.2704 18.5277 31.2734 18.5236C31.2764 18.5194 31.2849 18.5075 31.2906 18.4997L31.2987 18.4881C31.3042 18.4801 31.3096 18.4717 31.3147 18.4634C31.3174 18.4595 31.3198 18.4554 31.3223 18.4515C31.3247 18.4476 31.3319 18.4351 31.3367 18.4268L31.3443 18.4134C31.3485 18.4056 31.3524 18.3979 31.3563 18.3898L31.3645 18.374C31.3678 18.3669 31.3711 18.3597 31.3741 18.3523C31.3771 18.3449 31.3798 18.3401 31.3825 18.3335C31.3852 18.327 31.3877 18.3207 31.3904 18.3142C31.3931 18.3076 31.3961 18.2996 31.3985 18.2921C31.4009 18.2847 31.4024 18.2811 31.4045 18.2754L31.4127 18.2504C31.4127 18.2454 31.4154 18.2403 31.4169 18.2352C31.4184 18.2302 31.422 18.2174 31.4244 18.2081C31.4244 18.2037 31.4265 18.1989 31.4274 18.1941C31.4299 18.1846 31.432 18.1754 31.4338 18.1643L31.4365 18.15C31.4383 18.1405 31.4398 18.1313 31.4413 18.1203C31.4428 18.1092 31.4413 18.1092 31.4434 18.1039C31.4455 18.0985 31.4458 18.0863 31.4467 18.0774C31.4476 18.0684 31.4467 18.0628 31.4467 18.0556C31.4467 18.0485 31.4467 18.0413 31.4482 18.0339V17.9877V17.9463C31.4482 17.9389 31.4482 17.9317 31.4467 17.9246C31.4452 17.9174 31.4467 17.91 31.4467 17.9028C31.4467 17.8957 31.4446 17.8852 31.4434 17.8763C31.4422 17.8674 31.4434 17.8653 31.4413 17.8599C31.4392 17.8546 31.4383 17.8412 31.4365 17.8316L31.4338 17.8173C31.432 17.8078 31.4299 17.7986 31.4274 17.789C31.4274 17.7843 31.4253 17.7795 31.4244 17.775C31.422 17.7658 31.4196 17.7569 31.4169 17.7479C31.4142 17.739 31.4142 17.7378 31.4127 17.7327L31.4045 17.708C31.4024 17.7024 31.4006 17.6964 31.3985 17.691C31.3964 17.6857 31.3931 17.6761 31.3904 17.669C31.3877 17.6619 31.3852 17.6559 31.3825 17.6496C31.3798 17.6434 31.3771 17.6371 31.3741 17.6309C31.3711 17.6246 31.3678 17.6163 31.3645 17.6091L31.3563 17.5933C31.3524 17.5853 31.3485 17.5776 31.3443 17.5698L31.3367 17.5564C31.3319 17.5481 31.3274 17.5397 31.3223 17.5317L31.3147 17.5198C31.3096 17.5114 31.3042 17.5031 31.2987 17.495L31.2906 17.4837C31.2849 17.4757 31.2795 17.4676 31.2734 17.4596C31.2674 17.4516 31.2671 17.4516 31.2638 17.4474L31.2466 17.4256L31.233 17.4102L31.218 17.3929C31.2095 17.3836 31.2011 17.375 31.1923 17.3664L31.1872 17.361L28.0399 14.2537C27.8704 14.0899 27.6424 13.9987 27.4053 14C27.1683 14.0013 26.9413 14.0949 26.7737 14.2606C26.6061 14.4262 26.5113 14.6506 26.51 14.8848C26.5087 15.1191 26.6009 15.3444 26.7667 15.5119L28.3766 17.1034H20.7005C20.4617 17.1034 20.2327 17.1971 20.0639 17.364C19.895 17.5308 19.8002 17.7571 19.8002 17.9931C19.8002 18.229 19.895 18.4553 20.0639 18.6222C20.2327 18.7891 20.4617 18.8828 20.7005 18.8828H28.3766L26.7667 20.4743C26.6816 20.5566 26.6138 20.6547 26.5674 20.763C26.5209 20.8714 26.4966 20.9877 26.496 21.1054C26.4953 21.223 26.5183 21.3397 26.5636 21.4485C26.6088 21.5573 26.6755 21.6562 26.7597 21.7394C26.8439 21.8226 26.9439 21.8885 27.054 21.9332C27.1642 21.9779 27.2822 22.0006 27.4012 22C27.5203 21.9993 27.6381 21.9754 27.7477 21.9294C27.8573 21.8835 27.9566 21.8166 28.0399 21.7324L31.1872 18.6222L31.1923 18.6168C31.2011 18.6082 31.2098 18.5995 31.218 18.5903ZM15.1949 17.1034H7.51883L9.12958 15.5119C9.29535 15.3444 9.38759 15.1191 9.38629 14.8848C9.38498 14.6506 9.29023 14.4262 9.12261 14.2606C8.95498 14.0949 8.728 14.0013 8.49094 14C8.25388 13.9987 8.02587 14.0899 7.85641 14.2537L4.70816 17.364L4.70304 17.3694C4.6943 17.378 4.68586 17.3866 4.67742 17.3959L4.66235 17.4131L4.64878 17.4286L4.6316 17.4504C4.62829 17.4545 4.62497 17.4584 4.62196 17.4626C4.61894 17.4668 4.6105 17.4787 4.60478 17.4867L4.59664 17.498C4.59121 17.5061 4.58579 17.5144 4.58066 17.5227L4.57313 17.5347C4.568 17.5427 4.56348 17.551 4.55866 17.5594L4.55112 17.5728C4.5469 17.5805 4.54299 17.5883 4.53907 17.5963L4.53093 17.6121C4.52761 17.6193 4.5243 17.6264 4.52128 17.6339C4.51827 17.6413 4.51556 17.6464 4.51284 17.6526C4.51013 17.6589 4.50772 17.6654 4.50531 17.672C4.5029 17.6785 4.49958 17.6866 4.49687 17.694C4.49416 17.7015 4.49295 17.7053 4.49084 17.711L4.4827 17.7357C4.4827 17.7408 4.47999 17.7458 4.47848 17.7509C4.47698 17.756 4.47336 17.7688 4.47095 17.778C4.47095 17.7825 4.46884 17.7873 4.46793 17.792C4.46552 17.8015 4.46341 17.8108 4.4616 17.8203L4.45889 17.8346C4.45708 17.8441 4.45558 17.8534 4.45407 17.8629C4.45256 17.8724 4.45407 17.8739 4.45196 17.8793C4.44985 17.8847 4.44955 17.8969 4.44864 17.9058C4.44774 17.9147 4.44864 17.9204 4.44864 17.9275V18.0803C4.44864 18.0875 4.45075 18.0979 4.45196 18.1069C4.45317 18.1158 4.45196 18.1179 4.45407 18.1232C4.45618 18.1286 4.45708 18.142 4.45889 18.153L4.4616 18.1673C4.46341 18.1769 4.46552 18.1861 4.46793 18.1971C4.46793 18.2019 4.47004 18.2066 4.47095 18.2111C4.47336 18.2203 4.47577 18.2293 4.47848 18.2382C4.4812 18.2472 4.4812 18.2483 4.4827 18.2534L4.49084 18.2784C4.49295 18.2841 4.49476 18.2897 4.49687 18.2951C4.49898 18.3005 4.5023 18.31 4.50531 18.3174C4.50832 18.3249 4.51013 18.3303 4.51284 18.3365C4.51556 18.3428 4.51827 18.3493 4.52128 18.3556C4.5243 18.3618 4.52761 18.3699 4.53093 18.377L4.53907 18.3928C4.54299 18.4008 4.5469 18.4086 4.55112 18.4163L4.55866 18.4297C4.56348 18.4381 4.568 18.4464 4.57313 18.4545C4.57825 18.4625 4.57795 18.4625 4.58066 18.4664C4.58579 18.4747 4.59121 18.4831 4.59664 18.4911L4.60478 18.5027C4.6105 18.5105 4.61593 18.5185 4.62196 18.5265C4.62798 18.5346 4.62829 18.5346 4.6316 18.5388L4.64878 18.5605L4.66235 18.576L4.67742 18.5933C4.68586 18.6025 4.6943 18.6111 4.70304 18.6198L4.70816 18.6251L7.85551 21.7324C8.02497 21.8963 8.25298 21.9874 8.49004 21.9861C8.7271 21.9848 8.95407 21.8912 9.1217 21.7256C9.28933 21.5599 9.38408 21.3356 9.38539 21.1013C9.38669 20.8671 9.29444 20.6417 9.12867 20.4743L7.51883 18.8828H15.1958C15.4346 18.8828 15.6636 18.7891 15.8324 18.6222C16.0013 18.4553 16.0961 18.229 16.0961 17.9931C16.0961 17.7571 16.0013 17.5308 15.8324 17.364C15.6636 17.1971 15.4346 17.1034 15.1958 17.1034H15.1949Z" fill="#8B5FFF"/>
</svg>
