<svg width="30" height="30" viewBox="0 0 30 30" fill="none" xmlns="http://www.w3.org/2000/svg">
<rect x="0.5" y="0.5" width="29" height="29" rx="14.5" fill="#F6F2FF" stroke="#8B5FFF"/>
<g clip-path="url(#clip0_1285_1208)">
<path d="M21.3299 21.7978C19.6392 23.264 17.3913 24.0714 15.0003 24.0714C12.6092 24.0714 10.3613 23.2639 8.67064 21.7978C6.97987 20.3317 6.04877 18.3823 6.04877 16.3088C6.04877 14.2354 6.97991 12.286 8.67064 10.8199C9.85158 9.7958 11.3254 9.0812 12.9328 8.75333C13.1374 8.71163 13.282 8.55334 13.282 8.37106V6.81848C13.282 6.32748 13.7427 5.92799 14.3089 5.92799C14.5832 5.92799 14.8411 6.0206 15.035 6.18878L18.1925 8.92695C18.3865 9.0951 18.4933 9.31877 18.4933 9.55658C18.4933 9.79438 18.3865 10.0181 18.1925 10.1862L15.0351 12.9244C14.8411 13.0926 14.5832 13.1852 14.309 13.1852C13.7428 13.1852 13.2821 12.7857 13.2821 12.2947V11.0466C13.2821 10.9188 13.2103 10.799 13.0898 10.7254C12.9693 10.6519 12.815 10.6337 12.6762 10.677C9.94056 11.5283 8.10252 13.7915 8.10252 16.3088C8.10252 19.607 11.1969 22.2904 15.0003 22.2904C18.8037 22.2904 21.898 19.607 21.898 16.3087C21.898 15.8177 22.3587 15.4183 22.9249 15.4183C23.4911 15.4183 23.9518 15.8177 23.9518 16.3087C23.9517 18.3823 23.0206 20.3317 21.3299 21.7978Z" fill="#8B5FFF"/>
</g>
<defs>
<clipPath id="clip0_1285_1208">
<rect x="5.14307" y="5.14258" width="19.7143" height="19.7143" rx="9.85714" fill="white"/>
</clipPath>
</defs>
</svg>
