<svg width="36" height="35" viewBox="0 0 36 35" fill="none" xmlns="http://www.w3.org/2000/svg">
<path d="M35.5 17.5C35.5 26.8757 27.6784 34.5 18 34.5C8.32165 34.5 0.5 26.8757 0.5 17.5C0.5 8.12434 8.32165 0.5 18 0.5C27.6784 0.5 35.5 8.12434 35.5 17.5Z" fill="#F6F2FF" stroke="#8B5FFF"/>
<mask id="path-2-inside-1_1499_39" fill="white">
<path fill-rule="evenodd" clip-rule="evenodd" d="M18 23C20.7614 23 23 20.7614 23 18C23 15.2386 20.7614 13 18 13C15.2386 13 13 15.2386 13 18C13 20.7614 15.2386 23 18 23ZM21.3333 18C21.3333 19.8409 19.8409 21.3333 18 21.3333C16.1591 21.3333 14.6667 19.8409 14.6667 18C14.6667 16.1591 16.1591 14.6667 18 14.6667C19.8409 14.6667 21.3333 16.1591 21.3333 18Z"/>
</mask>
<path fill-rule="evenodd" clip-rule="evenodd" d="M18 23C20.7614 23 23 20.7614 23 18C23 15.2386 20.7614 13 18 13C15.2386 13 13 15.2386 13 18C13 20.7614 15.2386 23 18 23ZM21.3333 18C21.3333 19.8409 19.8409 21.3333 18 21.3333C16.1591 21.3333 14.6667 19.8409 14.6667 18C14.6667 16.1591 16.1591 14.6667 18 14.6667C19.8409 14.6667 21.3333 16.1591 21.3333 18Z" fill="#8B5FFF"/>
<path d="M18 25.2857C22.0238 25.2857 25.2857 22.0238 25.2857 18H20.7143C20.7143 19.4991 19.4991 20.7143 18 20.7143V25.2857ZM25.2857 18C25.2857 13.9762 22.0238 10.7143 18 10.7143V15.2857C19.4991 15.2857 20.7143 16.5009 20.7143 18H25.2857ZM18 10.7143C13.9762 10.7143 10.7143 13.9762 10.7143 18H15.2857C15.2857 16.5009 16.5009 15.2857 18 15.2857V10.7143ZM10.7143 18C10.7143 22.0238 13.9762 25.2857 18 25.2857V20.7143C16.5009 20.7143 15.2857 19.4991 15.2857 18H10.7143ZM19.0476 18C19.0476 18.5786 18.5786 19.0476 18 19.0476V23.619C21.1033 23.619 23.619 21.1033 23.619 18H19.0476ZM18 19.0476C17.4214 19.0476 16.9524 18.5786 16.9524 18H12.381C12.381 21.1033 14.8967 23.619 18 23.619V19.0476ZM16.9524 18C16.9524 17.4214 17.4214 16.9524 18 16.9524V12.381C14.8967 12.381 12.381 14.8967 12.381 18H16.9524ZM18 16.9524C18.5786 16.9524 19.0476 17.4214 19.0476 18H23.619C23.619 14.8967 21.1033 12.381 18 12.381V16.9524Z" fill="#8B5FFF" mask="url(#path-2-inside-1_1499_39)"/>
<mask id="path-4-inside-2_1499_39" fill="white">
<path fill-rule="evenodd" clip-rule="evenodd" d="M7 17.214V18.7854C7 20.0018 7.92134 21.003 9.10421 21.1292C9.20462 21.4146 9.31834 21.6937 9.44462 21.9657C8.66952 22.8919 8.71707 24.2731 9.58729 25.1434L10.6985 26.2546C11.5489 27.1049 12.8874 27.1698 13.8122 26.4489C14.1535 26.6183 14.5066 26.7678 14.8699 26.8957C14.9961 28.0786 15.9973 29 17.2137 29H18.7852C20.0013 29 21.0023 28.0791 21.1288 26.8965C21.459 26.7804 21.7808 26.6465 22.0929 26.4959C23.0147 27.1665 24.3127 27.086 25.1442 26.2546L26.2553 25.1434C27.0868 24.312 27.1672 23.0139 26.4967 22.0921C26.6471 21.7803 26.7809 21.459 26.897 21.129C28.0793 21.0023 29 20.0014 29 18.7854V17.214C29 15.998 28.0793 14.9972 26.897 14.8704C26.769 14.5065 26.6194 14.1529 26.4497 13.8112C27.1699 12.8865 27.105 11.5484 26.2548 10.6982L25.1436 9.58703C24.2736 8.71703 22.8927 8.66929 21.9667 9.44381C21.6942 9.31735 21.4146 9.20346 21.1287 9.10294C21.002 7.92068 20.0011 7 18.7852 7H17.2137C15.9975 7 14.9965 7.9211 14.87 9.10375C14.549 9.21674 14.2359 9.34656 13.932 9.49214C13.0063 8.66769 11.5867 8.69931 10.699 9.58703L9.58783 10.6982C8.70011 11.5859 8.66848 13.0056 9.49295 13.9312C9.34722 14.2355 9.21728 14.5489 9.10421 14.8703C7.92134 14.9964 7 15.9976 7 17.214ZM19.5709 9.35714C19.5709 8.92321 19.2191 8.57143 18.7852 8.57143H17.2137C16.7798 8.57143 16.428 8.92321 16.428 9.35714V9.65783C16.428 10.0315 16.1635 10.3493 15.8046 10.4535C15.2473 10.6154 14.7155 10.8374 14.2167 11.112C13.8894 11.2922 13.4776 11.2545 13.2134 10.9903L12.9213 10.6982C12.6145 10.3914 12.117 10.3914 11.8102 10.6982L10.699 11.8094C10.3922 12.1162 10.3922 12.6137 10.699 12.9205L10.9911 13.2126C11.2553 13.4768 11.293 13.8886 11.1128 14.216C10.8381 14.715 10.616 15.2471 10.4541 15.8048C10.3499 16.1637 10.032 16.4283 9.65834 16.4283H9.35714C8.92321 16.4283 8.57143 16.7801 8.57143 17.214V18.7854C8.57143 19.2194 8.92321 19.5711 9.35714 19.5711H9.65834C10.032 19.5711 10.3499 19.8357 10.4541 20.1946C10.6061 20.7181 10.811 21.219 11.0628 21.6912C11.2366 22.0171 11.1965 22.423 10.9353 22.6842L10.6985 22.9211C10.3916 23.2279 10.3916 23.7253 10.6985 24.0322L11.8096 25.1434C12.1165 25.4502 12.614 25.4502 12.9208 25.1434L13.112 24.9522C13.3792 24.6849 13.7969 24.6497 14.1255 24.8363C14.6505 25.1346 15.2131 25.3741 15.8046 25.5459C16.1635 25.6501 16.428 25.968 16.428 26.3416V26.6429C16.428 27.0768 16.7798 27.4286 17.2137 27.4286H18.7852C19.2191 27.4286 19.5709 27.0768 19.5709 26.6429V26.3422C19.5709 25.9686 19.8355 25.6507 20.1944 25.5465C20.7525 25.3845 21.285 25.1623 21.7843 24.8874C22.1116 24.7072 22.5234 24.745 22.7877 25.0092L22.9219 25.1434C23.2287 25.4502 23.7262 25.4502 24.033 25.1434L25.1442 24.0322C25.451 23.7253 25.451 23.2279 25.1442 22.9211L25.01 22.7869C24.7458 22.5226 24.708 22.1109 24.8883 21.7835C25.163 21.2844 25.3851 20.7524 25.547 20.1946C25.6512 19.8357 25.9691 19.5711 26.3428 19.5711H26.6429C27.0768 19.5711 27.4286 19.2194 27.4286 18.7854V17.214C27.4286 16.7801 27.0768 16.4283 26.6429 16.4283H26.3428C25.9691 16.4283 25.6512 16.1637 25.547 15.8048C25.3752 15.213 25.1356 14.6499 24.8372 14.1246C24.6505 13.796 24.6858 13.3784 24.953 13.1111L25.1436 12.9205C25.4505 12.6137 25.4505 12.1162 25.1436 11.8094L24.0325 10.6982C23.7257 10.3914 23.2281 10.3914 22.9213 10.6982L22.6851 10.9344C22.4239 11.1956 22.0179 11.2358 21.692 11.062C21.2195 10.81 20.7183 10.605 20.1944 10.453C19.8355 10.3488 19.5709 10.0309 19.5709 9.65718V9.35714Z"/>
</mask>
<path d="M9.10421 21.1292L11.2604 20.3707L10.7816 19.0094L9.34667 18.8564L9.10421 21.1292ZM9.44462 21.9657L11.1974 23.4327L12.1289 22.3197L11.5178 21.0033L9.44462 21.9657ZM9.58729 25.1434L7.97101 26.7596L7.97105 26.7596L9.58729 25.1434ZM10.6985 26.2546L9.08221 27.8708L9.08224 27.8708L10.6985 26.2546ZM13.8122 26.4489L14.8288 24.4017L13.5409 23.7621L12.4069 24.6462L13.8122 26.4489ZM14.8699 26.8957L17.1428 26.6532L16.9897 25.2187L15.6289 24.7397L14.8699 26.8957ZM21.1288 26.8965L20.3705 24.7402L19.0095 25.2188L18.856 26.6534L21.1288 26.8965ZM22.0929 26.4959L23.4375 24.6475L22.3313 23.8428L21.0994 24.4373L22.0929 26.4959ZM26.4967 22.0921L24.438 21.099L23.8439 22.3307L24.6483 23.4366L26.4967 22.0921ZM26.897 21.129L26.6533 18.8563L25.2193 19.01L24.7407 20.3706L26.897 21.129ZM26.897 14.8704L24.7407 15.6288L25.2193 16.9894L26.6533 17.1431L26.897 14.8704ZM26.4497 13.8112L24.6464 12.4067L23.7632 13.5406L24.4025 14.8279L26.4497 13.8112ZM26.2548 10.6982L24.6385 12.3144L24.6386 12.3145L26.2548 10.6982ZM25.1436 9.58703L26.7599 7.9708L26.7599 7.97078L25.1436 9.58703ZM21.9667 9.44381L21.0045 11.5171L22.3203 12.1278L23.4331 11.1971L21.9667 9.44381ZM21.1287 9.10294L18.856 9.34657L19.0098 10.7808L20.3706 11.2593L21.1287 9.10294ZM14.87 9.10375L15.6288 11.2598L16.9895 10.781L17.1428 9.3467L14.87 9.10375ZM13.932 9.49214L12.4117 11.199L13.5475 12.2106L14.9193 11.5536L13.932 9.49214ZM10.699 9.58703L12.3152 11.2033L12.3153 11.2033L10.699 9.58703ZM9.58783 10.6982L7.97159 9.08195L7.97158 9.08196L9.58783 10.6982ZM9.49295 13.9312L11.5544 14.9186L12.2115 13.5467L11.1998 12.4109L9.49295 13.9312ZM9.10421 14.8703L9.34667 17.1431L10.7816 16.99L11.2604 15.6288L9.10421 14.8703ZM15.8046 10.4535L15.167 8.25856L15.167 8.25858L15.8046 10.4535ZM14.2167 11.112L15.3191 13.1144L15.3191 13.1144L14.2167 11.112ZM13.2134 10.9903L14.8297 9.37404L14.8296 9.37402L13.2134 10.9903ZM12.9213 10.6982L11.3051 12.3144L11.3051 12.3145L12.9213 10.6982ZM11.8102 10.6982L10.1939 9.08194L10.1939 9.08196L11.8102 10.6982ZM10.699 11.8094L12.3152 13.4256L12.3153 13.4256L10.699 11.8094ZM10.699 12.9205L12.3152 11.3043L12.3152 11.3043L10.699 12.9205ZM11.1128 14.216L9.11049 13.1136L9.11049 13.1136L11.1128 14.216ZM10.4541 15.8048L8.25902 15.1675L8.259 15.1676L10.4541 15.8048ZM10.4541 20.1946L12.6492 19.5573L12.6491 19.5572L10.4541 20.1946ZM11.0628 21.6912L9.04586 22.7666L9.04589 22.7666L11.0628 21.6912ZM10.9353 22.6842L9.31905 21.0679L9.31886 21.0681L10.9353 22.6842ZM10.6985 22.9211L12.3147 24.5374L12.3149 24.5371L10.6985 22.9211ZM10.6985 24.0322L9.08204 25.6483L9.08222 25.6485L10.6985 24.0322ZM11.8096 25.1434L10.1934 26.7597L10.1934 26.7597L11.8096 25.1434ZM12.9208 25.1434L11.3046 23.5271L11.3046 23.5271L12.9208 25.1434ZM13.112 24.9522L14.7281 26.5685L14.7284 26.5683L13.112 24.9522ZM14.1255 24.8363L15.2546 22.849L15.2542 22.8487L14.1255 24.8363ZM15.8046 25.5459L15.167 27.7409L15.1673 27.741L15.8046 25.5459ZM20.1944 25.5465L19.5575 23.3513L19.5572 23.3514L20.1944 25.5465ZM21.7843 24.8874L20.6822 22.885L20.6819 22.8851L21.7843 24.8874ZM25.1442 24.0322L26.7604 25.6485L26.7606 25.6483L25.1442 24.0322ZM25.1442 22.9211L23.5279 24.5373L23.5279 24.5373L25.1442 22.9211ZM25.01 22.7869L26.6262 21.1706L26.6262 21.1706L25.01 22.7869ZM24.8883 21.7835L26.8905 22.8861L26.8906 22.8859L24.8883 21.7835ZM25.547 20.1946L23.352 19.5573L23.3519 19.5573L25.547 20.1946ZM25.547 15.8048L27.7421 15.1676L27.7421 15.1674L25.547 15.8048ZM24.8372 14.1246L22.8498 15.2537L22.8498 15.2537L24.8372 14.1246ZM24.953 13.1111L23.3368 11.4948L23.3367 11.4949L24.953 13.1111ZM25.1436 12.9205L26.7598 14.5368L26.7599 14.5367L25.1436 12.9205ZM25.1436 11.8094L26.7599 10.1932L26.7599 10.1931L25.1436 11.8094ZM24.0325 10.6982L22.4162 12.3144L22.4162 12.3144L24.0325 10.6982ZM22.9213 10.6982L24.5375 12.3145L24.5376 12.3144L22.9213 10.6982ZM22.6851 10.9344L21.0689 9.31815L21.0688 9.3182L22.6851 10.9344ZM21.692 11.062L20.6165 13.0789L20.6166 13.0789L21.692 11.062ZM20.1944 10.453L19.5574 12.6481L19.5574 12.6481L20.1944 10.453ZM4.71429 17.214V18.7854H9.28571V17.214H4.71429ZM4.71429 18.7854C4.71429 21.1828 6.52938 23.1532 8.86176 23.402L9.34667 18.8564C9.33362 18.855 9.31851 18.8493 9.30367 18.8329C9.29663 18.8251 9.29229 18.8174 9.28985 18.8112C9.2879 18.8063 9.28571 18.7988 9.28571 18.7854H4.71429ZM6.948 21.8876C7.07293 22.2428 7.2144 22.5899 7.37139 22.9281L11.5178 21.0033C11.4223 20.7975 11.3363 20.5865 11.2604 20.3707L6.948 21.8876ZM7.69179 20.4987C6.16357 22.3247 6.25612 25.0446 7.97101 26.7596L11.2036 23.5272C11.194 23.5176 11.1903 23.5108 11.1881 23.5058C11.1854 23.4995 11.1831 23.4909 11.1827 23.4802C11.1818 23.4581 11.1885 23.4435 11.1974 23.4327L7.69179 20.4987ZM7.97105 26.7596L9.08221 27.8708L12.3147 24.6383L11.2035 23.5272L7.97105 26.7596ZM9.08224 27.8708C10.7584 29.547 13.394 29.673 15.2174 28.2516L12.4069 24.6462C12.3971 24.6538 12.3822 24.6604 12.3602 24.6591C12.3499 24.6585 12.3416 24.6562 12.3356 24.6535C12.3308 24.6514 12.3241 24.6477 12.3147 24.6383L9.08224 27.8708ZM12.7956 28.4961C13.22 28.7068 13.6591 28.8927 14.111 29.0517L15.6289 24.7397C15.354 24.6429 15.0869 24.5299 14.8288 24.4017L12.7956 28.4961ZM12.5971 27.1382C12.8459 29.4704 14.8162 31.2857 17.2137 31.2857V26.7143C17.2003 26.7143 17.1929 26.7121 17.188 26.7102C17.1817 26.7077 17.1741 26.7034 17.1663 26.6963C17.1499 26.6815 17.1442 26.6663 17.1428 26.6532L12.5971 27.1382ZM17.2137 31.2857H18.7852V26.7143H17.2137V31.2857ZM18.7852 31.2857C21.182 31.2857 23.1521 29.4713 23.4015 27.1396L18.856 26.6534C18.8546 26.6664 18.8489 26.6815 18.8325 26.6964C18.8248 26.7034 18.8171 26.7077 18.8109 26.7102C18.806 26.7121 18.7986 26.7143 18.7852 26.7143V31.2857ZM21.8871 29.0528C22.2977 28.9084 22.6979 28.7418 23.0864 28.5544L21.0994 24.4373C20.8636 24.5511 20.6204 24.6523 20.3705 24.7402L21.8871 29.0528ZM20.7482 28.3442C22.5654 29.6662 25.1212 29.51 26.7604 27.8708L23.5279 24.6383C23.5187 24.6475 23.5121 24.6512 23.5074 24.6533C23.5017 24.6559 23.4937 24.6582 23.4838 24.659C23.4621 24.6606 23.4469 24.6543 23.4375 24.6475L20.7482 28.3442ZM26.7604 27.8708L27.8716 26.7596L24.6391 23.5272L23.5279 24.6383L26.7604 27.8708ZM27.8716 26.7596C29.5108 25.1204 29.6669 22.5646 28.3451 20.7475L24.6483 23.4366C24.6551 23.446 24.6614 23.4613 24.6598 23.483C24.659 23.4929 24.6567 23.5009 24.6541 23.5066C24.652 23.5113 24.6483 23.5179 24.6391 23.5272L27.8716 26.7596ZM28.5554 23.0851C28.7424 22.6976 28.9088 22.298 29.0532 21.8875L24.7407 20.3706C24.653 20.6199 24.5518 20.863 24.438 21.099L28.5554 23.0851ZM27.1406 23.4017C29.4718 23.1518 31.2857 21.1819 31.2857 18.7854H26.7143C26.7143 18.7988 26.7121 18.8062 26.7102 18.8112C26.7077 18.8174 26.7034 18.825 26.6963 18.8328C26.6815 18.8492 26.6664 18.8549 26.6533 18.8563L27.1406 23.4017ZM31.2857 18.7854V17.214H26.7143V18.7854H31.2857ZM31.2857 17.214C31.2857 14.8173 29.4718 12.8476 27.1406 12.5977L26.6533 17.1431C26.6664 17.1445 26.6816 17.1503 26.6964 17.1667C26.7034 17.1744 26.7077 17.182 26.7102 17.1882C26.7121 17.1932 26.7143 17.2006 26.7143 17.214H31.2857ZM29.0532 14.112C28.894 13.6594 28.7079 13.2196 28.4968 12.7945L24.4025 14.8279C24.5308 15.0863 24.6439 15.3537 24.7407 15.6288L29.0532 14.112ZM28.2529 15.2158C29.673 13.3925 29.547 10.7579 27.871 9.08194L24.6386 12.3145C24.648 12.3239 24.6516 12.3306 24.6538 12.3354C24.6564 12.3413 24.6587 12.3496 24.6593 12.3599C24.6606 12.3819 24.6541 12.3968 24.6464 12.4067L28.2529 15.2158ZM27.871 9.08198L26.7599 7.9708L23.5274 11.2033L24.6385 12.3144L27.871 9.08198ZM26.7599 7.97078C25.0454 6.25629 22.3262 6.16332 20.5003 7.6905L23.4331 11.1971C23.4437 11.1882 23.4583 11.1815 23.4805 11.1824C23.4911 11.1829 23.4998 11.1852 23.506 11.1879C23.511 11.19 23.5178 11.1937 23.5274 11.2033L26.7599 7.97078ZM22.9289 7.3705C22.5902 7.21331 22.2426 7.07168 21.8868 6.94661L20.3706 11.2593C20.5867 11.3353 20.7982 11.4214 21.0045 11.5171L22.9289 7.3705ZM23.4014 8.85931C23.1515 6.5281 21.1816 4.71429 18.7852 4.71429V9.28571C18.7985 9.28571 18.8059 9.28789 18.8109 9.28984C18.8171 9.29227 18.8247 9.29661 18.8325 9.30365C18.8489 9.31849 18.8546 9.3336 18.856 9.34657L23.4014 8.85931ZM18.7852 4.71429H17.2137V9.28571H18.7852V4.71429ZM17.2137 4.71429C14.8167 4.71429 12.8465 6.52894 12.5973 8.8608L17.1428 9.3467C17.1442 9.33366 17.1499 9.31852 17.1663 9.30367C17.1741 9.29662 17.1818 9.29228 17.188 9.28984C17.1929 9.28789 17.2003 9.28571 17.2137 9.28571V4.71429ZM14.1112 6.94766C13.7119 7.0882 13.3226 7.24966 12.9446 7.43066L14.9193 11.5536C15.1493 11.4435 15.3861 11.3453 15.6288 11.2598L14.1112 6.94766ZM15.4522 7.7853C13.6275 6.16003 10.8319 6.22168 9.08275 7.9708L12.3153 11.2033C12.3249 11.1936 12.3319 11.1899 12.337 11.1877C12.3435 11.185 12.3524 11.1827 12.3634 11.1824C12.3745 11.1821 12.3842 11.1839 12.3915 11.1865C12.3976 11.1887 12.4039 11.192 12.4117 11.199L15.4522 7.7853ZM9.08276 7.97079L7.97159 9.08195L11.2041 12.3144L12.3152 11.2033L9.08276 7.97079ZM7.97158 9.08196C6.22248 10.8311 6.16081 13.6267 7.78614 15.4515L11.1998 12.4109C11.1928 12.4031 11.1895 12.3968 11.1873 12.3907C11.1847 12.3834 11.1829 12.3737 11.1832 12.3626C11.1835 12.3516 11.1858 12.3427 11.1885 12.3362C11.1907 12.3311 11.1944 12.3241 11.2041 12.3144L7.97158 9.08196ZM7.4315 12.9438C7.25028 13.3222 7.08866 13.7119 6.94802 14.1118L11.2604 15.6288C11.3459 15.3858 11.4442 15.1487 11.5544 14.9186L7.4315 12.9438ZM8.86176 12.5974C6.52943 12.8463 4.71429 14.8166 4.71429 17.214H9.28571C9.28571 17.2006 9.28789 17.1932 9.28984 17.1882C9.29228 17.182 9.29662 17.1744 9.30366 17.1666C9.3185 17.1502 9.33362 17.1445 9.34667 17.1431L8.86176 12.5974ZM21.8566 9.35714C21.8566 7.66087 20.4815 6.28571 18.7852 6.28571V10.8571C17.9567 10.8571 17.2852 10.1855 17.2852 9.35714H21.8566ZM18.7852 6.28571H17.2137V10.8571H18.7852V6.28571ZM17.2137 6.28571C15.5174 6.28571 14.1423 7.66087 14.1423 9.35714H18.7137C18.7137 10.1855 18.0422 10.8571 17.2137 10.8571V6.28571ZM14.1423 9.35714V9.65783H18.7137V9.35714H14.1423ZM14.1423 9.65783C14.1423 8.90595 14.658 8.40643 15.167 8.25856L16.4422 12.6485C17.669 12.2922 18.7137 11.157 18.7137 9.65783H14.1423ZM15.167 8.25858C14.4461 8.468 13.7586 8.75503 13.1144 9.10969L15.3191 13.1144C15.6724 12.9198 16.0485 12.7629 16.4423 12.6485L15.167 8.25858ZM13.1144 9.10968C13.58 8.85338 14.2982 8.84262 14.8297 9.37404L11.5972 12.6065C12.657 13.6664 14.1989 13.7311 15.3191 13.1144L13.1144 9.10968ZM14.8296 9.37402L14.5376 9.08194L11.3051 12.3145L11.5972 12.6066L14.8296 9.37402ZM14.5376 9.08198C13.3381 7.88248 11.3934 7.88251 10.1939 9.08194L13.4264 12.3145C12.8406 12.9002 11.8909 12.9002 11.3051 12.3144L14.5376 9.08198ZM10.1939 9.08196L9.08275 10.1931L12.3153 13.4256L13.4264 12.3144L10.1939 9.08196ZM9.08278 10.1931C7.88328 11.3926 7.88328 13.3373 9.08278 14.5368L12.3152 11.3043C12.901 11.8901 12.901 12.8398 12.3152 13.4256L9.08278 10.1931ZM9.08276 14.5368L9.37485 14.8289L12.6073 11.5964L12.3152 11.3043L9.08276 14.5368ZM9.37485 14.8289C8.84343 14.2975 8.85419 13.5792 9.11049 13.1136L13.1152 15.3183C13.7319 14.1981 13.6672 12.6562 12.6073 11.5964L9.37485 14.8289ZM9.11049 13.1136C8.75566 13.7582 8.46849 14.446 8.25902 15.1675L12.6491 16.4421C12.7635 16.0482 12.9205 15.6718 13.1152 15.3183L9.11049 13.1136ZM8.259 15.1676C8.40688 14.6582 8.90659 14.1425 9.65834 14.1425V18.714C11.1575 18.714 12.2929 17.6693 12.6492 16.442L8.259 15.1676ZM9.65834 14.1425H9.35714V18.714H9.65834V14.1425ZM9.35714 14.1425C7.66072 14.1425 6.28571 15.5179 6.28571 17.214H10.8571C10.8571 18.0423 10.1857 18.714 9.35714 18.714V14.1425ZM6.28571 17.214V18.7854H10.8571V17.214H6.28571ZM6.28571 18.7854C6.28571 20.4817 7.66087 21.8568 9.35714 21.8568V17.2854C10.1855 17.2854 10.8571 17.957 10.8571 18.7854H6.28571ZM9.35714 21.8568H9.65834V17.2854H9.35714V21.8568ZM9.65834 21.8568C8.90634 21.8568 8.40688 21.3411 8.25905 20.832L12.6491 19.5572C12.2929 18.3304 11.1577 17.2854 9.65834 17.2854V21.8568ZM8.259 20.8318C8.4556 21.5091 8.72066 22.1566 9.04586 22.7666L13.0798 20.6158C12.9014 20.2814 12.7565 19.9271 12.6492 19.5573L8.259 20.8318ZM9.04589 22.7666C8.79821 22.3021 8.79396 21.593 9.31905 21.0679L12.5515 24.3004C13.599 23.253 13.675 21.7321 13.0797 20.6158L9.04589 22.7666ZM9.31886 21.0681L9.08202 21.305L12.3149 24.5371L12.5517 24.3002L9.31886 21.0681ZM9.08225 21.3048C7.88261 22.5044 7.88291 24.4489 9.08204 25.6483L12.3149 22.4162C12.9003 23.0017 12.9006 23.9514 12.3147 24.5374L9.08225 21.3048ZM9.08222 25.6485L10.1934 26.7597L13.4259 23.5271L12.3147 22.416L9.08222 25.6485ZM10.1934 26.7597C11.3929 27.9591 13.3375 27.9591 14.537 26.7597L11.3046 23.5271C11.8904 22.9414 12.84 22.9414 13.4258 23.5271L10.1934 26.7597ZM14.537 26.7597L14.7281 26.5685L11.4958 23.3359L11.3046 23.5271L14.537 26.7597ZM14.7284 26.5683C14.1905 27.1063 13.463 27.0887 12.9968 26.824L15.2542 22.8487C14.1308 22.2108 12.5679 22.2635 11.4955 23.3362L14.7284 26.5683ZM12.9964 26.8237C13.6745 27.2089 14.4019 27.5186 15.167 27.7409L16.4423 23.351C16.0244 23.2296 15.6265 23.0603 15.2546 22.849L12.9964 26.8237ZM15.1673 27.741C14.6578 27.5931 14.1423 27.0934 14.1423 26.3416H18.7137C18.7137 24.8427 17.6691 23.7072 16.442 23.3509L15.1673 27.741ZM14.1423 26.3416V26.6429H18.7137V26.3416H14.1423ZM14.1423 26.6429C14.1423 28.3392 15.5174 29.7143 17.2137 29.7143V25.1429C18.0422 25.1429 18.7137 25.8144 18.7137 26.6429H14.1423ZM17.2137 29.7143H18.7852V25.1429H17.2137V29.7143ZM18.7852 29.7143C20.4815 29.7143 21.8566 28.3392 21.8566 26.6429H17.2852C17.2852 25.8144 17.9567 25.1429 18.7852 25.1429V29.7143ZM21.8566 26.6429V26.3422H17.2852V26.6429H21.8566ZM21.8566 26.3422C21.8566 27.0942 21.3408 27.5938 20.8316 27.7416L19.5572 23.3514C18.3302 23.7076 17.2852 24.8429 17.2852 26.3422H21.8566ZM20.8314 27.7416C21.5533 27.5322 22.2418 27.2448 22.8868 26.8897L20.6819 22.8851C20.3282 23.0799 19.9517 23.2369 19.5575 23.3513L20.8314 27.7416ZM22.8865 26.8898C22.421 27.1461 21.7028 27.1568 21.1714 26.6254L24.4039 23.393C23.3441 22.3331 21.8023 22.2684 20.6822 22.885L22.8865 26.8898ZM21.1714 26.6254L21.3056 26.7596L24.5381 23.5272L24.4039 23.393L21.1714 26.6254ZM21.3056 26.7596C22.5051 27.9591 24.4498 27.9591 25.6493 26.7596L22.4168 23.5272C23.0026 22.9414 23.9523 22.9414 24.5381 23.5272L21.3056 26.7596ZM25.6493 26.7596L26.7604 25.6485L23.5279 22.416L22.4168 23.5272L25.6493 26.7596ZM26.7606 25.6483C27.9597 24.4489 27.96 22.5044 26.7604 21.3048L23.5279 24.5373C22.942 23.9514 22.9423 23.0018 23.5277 22.4162L26.7606 25.6483ZM26.7604 21.3049L26.6262 21.1706L23.3937 24.4031L23.5279 24.5373L26.7604 21.3049ZM26.6262 21.1706C27.1576 21.702 27.1469 22.4204 26.8905 22.8861L22.886 20.681C22.2691 21.8013 22.3339 23.3433 23.3937 24.4031L26.6262 21.1706ZM26.8906 22.8859C27.2455 22.2412 27.5326 21.5533 27.7421 20.8319L23.3519 19.5573C23.2375 19.9514 23.0806 20.3277 22.886 20.6812L26.8906 22.8859ZM27.7421 20.8319C27.5942 21.3412 27.0947 21.8568 26.3428 21.8568V17.2854C24.8436 17.2854 23.7082 18.3303 23.352 19.5573L27.7421 20.8319ZM26.3428 21.8568H26.6429V17.2854H26.3428V21.8568ZM26.6429 21.8568C28.3392 21.8568 29.7143 20.4817 29.7143 18.7854H25.1429C25.1429 17.957 25.8144 17.2854 26.6429 17.2854V21.8568ZM29.7143 18.7854V17.214H25.1429V18.7854H29.7143ZM29.7143 17.214C29.7143 15.5179 28.3393 14.1425 26.6429 14.1425V18.714C25.8143 18.714 25.1429 18.0423 25.1429 17.214H29.7143ZM26.6429 14.1425H26.3428V18.714H26.6429V14.1425ZM26.3428 14.1425C27.0944 14.1425 27.5942 14.6581 27.7421 15.1676L23.3519 16.442C23.7082 17.6694 24.8438 18.714 26.3428 18.714V14.1425ZM27.7421 15.1674C27.5198 14.402 27.2101 13.6741 26.8246 12.9956L22.8498 15.2537C23.0612 15.6258 23.2306 16.024 23.352 16.4422L27.7421 15.1674ZM26.8246 12.9956C27.0897 13.4623 27.1069 14.1897 26.5693 14.7273L23.3367 11.4949C22.2647 12.5671 22.2113 14.1298 22.8498 15.2537L26.8246 12.9956ZM26.5692 14.7274L26.7598 14.5368L23.5275 11.3042L23.3368 11.4948L26.5692 14.7274ZM26.7599 14.5367C27.9593 13.3373 27.9593 11.3926 26.7599 10.1932L23.5273 13.4256C22.9416 12.8398 22.9416 11.8901 23.5273 11.3043L26.7599 14.5367ZM26.7599 10.1931L25.6487 9.08197L22.4162 12.3144L23.5274 13.4256L26.7599 10.1931ZM25.6488 9.082C24.4493 7.88248 22.5045 7.88248 21.305 9.082L24.5376 12.3144C23.9518 12.9002 23.002 12.9002 22.4162 12.3144L25.6488 9.082ZM21.3051 9.0819L21.0689 9.31815L24.3012 12.5507L24.5375 12.3145L21.3051 9.0819ZM21.0688 9.3182C21.5939 8.79312 22.3029 8.79738 22.7674 9.04506L20.6166 13.0789C21.7329 13.6741 23.2539 13.5981 24.3013 12.5507L21.0688 9.3182ZM22.7675 9.0451C22.1571 8.7196 21.509 8.45443 20.8315 8.25781L19.5574 12.6481C19.9275 12.7555 20.282 12.9005 20.6165 13.0789L22.7675 9.0451ZM20.8315 8.25781C21.3409 8.40564 21.8566 8.9053 21.8566 9.65718H17.2852C17.2852 11.1565 18.3302 12.2919 19.5574 12.6481L20.8315 8.25781ZM21.8566 9.65718V9.35714H17.2852V9.65718H21.8566Z" fill="#8B5FFF" mask="url(#path-4-inside-2_1499_39)"/>
</svg>
