<svg width="30" height="30" viewBox="0 0 30 30" fill="none" xmlns="http://www.w3.org/2000/svg">
<rect x="0.5" y="0.5" width="29" height="29" rx="14.5" fill="#F6F2FF" stroke="#8B5FFF"/>
<path d="M24 15.4998C24 12.2907 21.4084 9.67969 18.2229 9.67969H16.726C16.4878 9.67969 16.2946 9.87427 16.2946 10.1143C16.2946 10.3543 16.4878 10.5489 16.726 10.5489H18.2229C20.9325 10.5489 23.1372 12.7699 23.1372 15.4997C23.1372 18.2295 20.9325 20.4504 18.2229 20.4504H17.1971L18.6913 19.5815C18.8977 19.4616 18.9683 19.1957 18.8492 18.9877C18.7303 18.78 18.4663 18.7083 18.2599 18.8287L15.3714 20.5084C15.238 20.586 15.1558 20.7295 15.1558 20.8848C15.1558 21.0401 15.238 21.1835 15.3714 21.2612L18.2599 22.9413C18.3278 22.9809 18.402 22.9997 18.4752 22.9997C18.6243 22.9997 18.7693 22.9217 18.8492 22.7823C18.9683 22.5744 18.8977 22.3085 18.6913 22.1886L17.1974 21.3196H18.2228C21.4084 21.3198 24 18.7089 24 15.4998Z" fill="#8B5FFF" stroke="#8B5FFF" stroke-width="0.490663"/>
<path d="M14.6284 9.73853L11.74 8.05833C11.5335 7.93824 11.2697 8.00956 11.1507 8.2174C11.0315 8.42528 11.1022 8.69105 11.3086 8.8111L12.8024 9.68006H11.777C8.59163 9.68006 6 12.2909 6 15.5C6 18.7091 8.59159 21.3201 11.777 21.3201H13.2739C13.5122 21.3201 13.7053 21.1255 13.7053 20.8854C13.7053 20.6454 13.5122 20.4508 13.2739 20.4508H11.777C9.06737 20.4508 6.86278 18.2299 6.86278 15.5C6.86278 12.7702 9.06737 10.5493 11.777 10.5493H12.8028L11.3086 11.4183C11.1023 11.5381 11.0316 11.804 11.1507 12.0119C11.2305 12.1514 11.3756 12.2293 11.5247 12.2293C11.5979 12.2293 11.6721 12.2105 11.74 12.171L14.6284 10.4913C14.7619 10.4137 14.8441 10.2702 14.8441 10.1149C14.8441 9.95964 14.7618 9.81616 14.6284 9.73853Z" fill="#8B5FFF" stroke="#8B5FFF" stroke-width="0.490663"/>
</svg>
