<svg width="201" height="24" viewBox="0 0 201 24" fill="none" xmlns="http://www.w3.org/2000/svg">
<mask id="path-1-outside-1_465_7" maskUnits="userSpaceOnUse" x="0" y="0" width="201" height="24" fill="black">
<rect fill="white" width="201" height="24"/>
<path d="M10.3105 2.09375V22H6.67383V2.09375H10.3105ZM15.3281 2.09375V5.15625H1.73828V2.09375H15.3281ZM67.418 16.8184C67.418 16.4264 67.377 16.0801 67.2949 15.7793C67.222 15.4694 67.0762 15.1868 66.8574 14.9316C66.6387 14.6764 66.3242 14.4258 65.9141 14.1797C65.5039 13.9245 64.9753 13.6647 64.3281 13.4004C63.5625 13.0905 62.8379 12.7624 62.1543 12.416C61.4707 12.0605 60.86 11.6504 60.3223 11.1855C59.7845 10.7207 59.3607 10.1738 59.0508 9.54492C58.75 8.91602 58.5996 8.18229 58.5996 7.34375C58.5996 6.52344 58.7454 5.77604 59.0371 5.10156C59.3379 4.41797 59.7617 3.83464 60.3086 3.35156C60.8555 2.85938 61.5026 2.48112 62.25 2.2168C63.0065 1.95247 63.8405 1.82031 64.752 1.82031C66.0371 1.82031 67.14 2.08919 68.0605 2.62695C68.9811 3.16471 69.6921 3.89388 70.1934 4.81445C70.6947 5.73503 70.9453 6.77409 70.9453 7.93164H67.2949C67.2949 7.33008 67.2038 6.79688 67.0215 6.33203C66.8483 5.85807 66.5703 5.48893 66.1875 5.22461C65.8047 4.96029 65.3125 4.82812 64.7109 4.82812C64.1458 4.82812 63.681 4.94206 63.3164 5.16992C62.9518 5.38867 62.6829 5.68945 62.5098 6.07227C62.3366 6.44596 62.25 6.87435 62.25 7.35742C62.25 7.70378 62.3275 8.01823 62.4824 8.30078C62.6465 8.57422 62.8698 8.82487 63.1523 9.05273C63.4349 9.2806 63.7767 9.49935 64.1777 9.70898C64.5879 9.90951 65.0436 10.1055 65.5449 10.2969C66.4655 10.6432 67.2721 11.026 67.9648 11.4453C68.6576 11.8555 69.2318 12.3203 69.6875 12.8398C70.1523 13.3503 70.4987 13.929 70.7266 14.5762C70.9544 15.2233 71.0684 15.9616 71.0684 16.791C71.0684 17.6113 70.9271 18.3587 70.6445 19.0332C70.362 19.7077 69.9518 20.2865 69.4141 20.7695C68.8763 21.2526 68.2246 21.6263 67.459 21.8906C66.7025 22.1458 65.8594 22.2734 64.9297 22.2734C64.0365 22.2734 63.1842 22.1458 62.373 21.8906C61.571 21.6263 60.86 21.2298 60.2402 20.7012C59.6204 20.1725 59.1328 19.5072 58.7773 18.7051C58.4219 17.8939 58.2441 16.9414 58.2441 15.8477H61.8945C61.8945 16.4583 61.9629 16.987 62.0996 17.4336C62.2363 17.8711 62.4414 18.2266 62.7148 18.5C62.9883 18.7643 63.3164 18.9603 63.6992 19.0879C64.082 19.2064 64.515 19.2656 64.998 19.2656C65.5723 19.2656 66.0371 19.1608 66.3926 18.9512C66.748 18.7415 67.0078 18.4544 67.1719 18.0898C67.3359 17.7161 67.418 17.2923 67.418 16.8184ZM147.07 18.9512V22H138.43V18.9512H147.07ZM139.482 2.09375V22H135.818V2.09375H139.482ZM145.908 10.2695V13.2363H138.43V10.2695H145.908ZM147.016 2.09375V5.15625H138.43V2.09375H147.016ZM156.408 18.8281V1H159.908V22L156.736 22.0137L156.408 18.8281ZM148.588 15.1641V14.0977C148.588 12.8854 148.693 11.8327 148.902 10.9395C149.121 10.0371 149.436 9.28971 149.846 8.69727C150.265 8.10482 150.775 7.66276 151.377 7.37109C151.979 7.07943 152.662 6.93359 153.428 6.93359C154.148 6.93359 154.777 7.10677 155.314 7.45312C155.852 7.79036 156.303 8.26888 156.668 8.88867C157.042 9.50846 157.342 10.2467 157.57 11.1035C157.798 11.9512 157.958 12.8854 158.049 13.9062V15.4375C157.939 16.4128 157.771 17.3197 157.543 18.1582C157.324 18.9967 157.028 19.7214 156.654 20.332C156.281 20.9427 155.825 21.4212 155.287 21.7676C154.758 22.1048 154.134 22.2734 153.414 22.2734C152.648 22.2734 151.965 22.123 151.363 21.8223C150.771 21.5124 150.265 21.0612 149.846 20.4688C149.436 19.8672 149.121 19.1243 148.902 18.2402C148.693 17.347 148.588 16.3216 148.588 15.1641ZM152.102 14.0977V15.1641C152.102 15.8841 152.143 16.5085 152.225 17.0371C152.307 17.5566 152.434 17.985 152.607 18.3223C152.79 18.6504 153.027 18.8965 153.318 19.0605C153.619 19.2155 153.984 19.293 154.412 19.293C154.959 19.293 155.401 19.1562 155.738 18.8828C156.085 18.6094 156.349 18.2357 156.531 17.7617C156.714 17.2786 156.832 16.7318 156.887 16.1211V13.2363C156.859 12.7441 156.786 12.293 156.668 11.8828C156.549 11.4727 156.39 11.1217 156.189 10.8301C155.989 10.5293 155.743 10.2969 155.451 10.1328C155.16 9.96875 154.818 9.88672 154.426 9.88672C153.997 9.88672 153.633 9.97331 153.332 10.1465C153.04 10.3105 152.803 10.5612 152.621 10.8984C152.448 11.2357 152.316 11.6732 152.225 12.2109C152.143 12.7396 152.102 13.3685 152.102 14.0977ZM166.689 7.20703V22H163.176V7.20703H166.689ZM162.998 3.35156C162.998 2.79557 163.171 2.33984 163.518 1.98438C163.864 1.61979 164.338 1.4375 164.939 1.4375C165.541 1.4375 166.01 1.61979 166.348 1.98438C166.685 2.33984 166.854 2.79557 166.854 3.35156C166.854 3.89844 166.685 4.35417 166.348 4.71875C166.01 5.07422 165.541 5.25195 164.939 5.25195C164.338 5.25195 163.864 5.07422 163.518 4.71875C163.171 4.35417 162.998 3.89844 162.998 3.35156ZM176.123 7.20703V9.87305H168.727V7.20703H176.123ZM170.586 3.57031H174.072V17.6797C174.072 18.1081 174.118 18.4408 174.209 18.6777C174.3 18.9056 174.432 19.0605 174.605 19.1426C174.788 19.2246 175.007 19.2656 175.262 19.2656C175.453 19.2656 175.635 19.252 175.809 19.2246C175.982 19.1973 176.109 19.1699 176.191 19.1426L176.178 21.9316C175.913 22.0319 175.622 22.1139 175.303 22.1777C174.984 22.2415 174.601 22.2734 174.154 22.2734C173.443 22.2734 172.819 22.1367 172.281 21.8633C171.753 21.5807 171.338 21.125 171.037 20.4961C170.736 19.8581 170.586 19.0241 170.586 17.9941V3.57031ZM177.6 15.1504V14.0703C177.6 12.9128 177.741 11.8919 178.023 11.0078C178.306 10.1146 178.707 9.36719 179.227 8.76562C179.746 8.16406 180.366 7.70833 181.086 7.39844C181.815 7.08854 182.622 6.93359 183.506 6.93359C184.408 6.93359 185.219 7.08854 185.939 7.39844C186.669 7.70833 187.293 8.16406 187.812 8.76562C188.341 9.36719 188.742 10.1146 189.016 11.0078C189.298 11.8919 189.439 12.9128 189.439 14.0703V15.1504C189.439 16.3079 189.298 17.3288 189.016 18.2129C188.742 19.097 188.341 19.8444 187.812 20.4551C187.293 21.0566 186.669 21.5124 185.939 21.8223C185.219 22.123 184.417 22.2734 183.533 22.2734C182.649 22.2734 181.842 22.123 181.113 21.8223C180.393 21.5124 179.769 21.0566 179.24 20.4551C178.712 19.8444 178.306 19.097 178.023 18.2129C177.741 17.3288 177.6 16.3079 177.6 15.1504ZM181.113 14.0703V15.1504C181.113 15.8704 181.168 16.4948 181.277 17.0234C181.387 17.543 181.546 17.9759 181.756 18.3223C181.975 18.6686 182.23 18.9284 182.521 19.1016C182.822 19.2656 183.16 19.3477 183.533 19.3477C183.934 19.3477 184.285 19.2656 184.586 19.1016C184.887 18.9284 185.137 18.6686 185.338 18.3223C185.538 17.9759 185.689 17.543 185.789 17.0234C185.889 16.4948 185.939 15.8704 185.939 15.1504V14.0703C185.939 13.3685 185.88 12.7533 185.762 12.2246C185.652 11.696 185.493 11.2585 185.283 10.9121C185.074 10.5658 184.818 10.306 184.518 10.1328C184.217 9.95052 183.88 9.85938 183.506 9.85938C183.141 9.85938 182.813 9.95052 182.521 10.1328C182.23 10.306 181.975 10.5658 181.756 10.9121C181.546 11.2585 181.387 11.696 181.277 12.2246C181.168 12.7533 181.113 13.3685 181.113 14.0703ZM195.537 10.2832V22H192.037V7.20703H195.359L195.537 10.2832ZM199.064 7.09766L199.037 10.584C198.855 10.5475 198.65 10.5202 198.422 10.502C198.203 10.4837 197.998 10.4746 197.807 10.4746C197.378 10.4746 197.009 10.5475 196.699 10.6934C196.389 10.8392 196.13 11.0488 195.92 11.3223C195.71 11.5957 195.551 11.9329 195.441 12.334C195.332 12.7259 195.264 13.1725 195.236 13.6738L194.525 13.5508C194.525 12.6029 194.598 11.7279 194.744 10.9258C194.899 10.1237 195.122 9.42643 195.414 8.83398C195.715 8.23242 196.084 7.76758 196.521 7.43945C196.959 7.10221 197.46 6.93359 198.025 6.93359C198.199 6.93359 198.385 6.95182 198.586 6.98828C198.796 7.01562 198.955 7.05208 199.064 7.09766Z"/>
<path d="M21.2754 7.20703V22H17.7617V7.20703H21.2754ZM17.584 3.35156C17.584 2.79557 17.7572 2.33984 18.1035 1.98438C18.4499 1.61979 18.9238 1.4375 19.5254 1.4375C20.127 1.4375 20.5964 1.61979 20.9336 1.98438C21.2708 2.33984 21.4395 2.79557 21.4395 3.35156C21.4395 3.89844 21.2708 4.35417 20.9336 4.71875C20.5964 5.07422 20.127 5.25195 19.5254 5.25195C18.9238 5.25195 18.4499 5.07422 18.1035 4.71875C17.7572 4.35417 17.584 3.89844 17.584 3.35156ZM28.0293 10.2422V22H24.5156V7.20703H27.7969L28.0293 10.2422ZM27.4961 14.084L26.416 14.0977C26.4069 13.0677 26.5026 12.1152 26.7031 11.2402C26.9036 10.3652 27.209 9.60872 27.6191 8.9707C28.0293 8.32357 28.5488 7.82227 29.1777 7.4668C29.8066 7.11133 30.5358 6.93359 31.3652 6.93359C31.903 6.93359 32.4043 7.03385 32.8691 7.23438C33.334 7.42578 33.735 7.73112 34.0723 8.15039C34.4186 8.56055 34.6829 9.09831 34.8652 9.76367C35.0566 10.4199 35.1523 11.2083 35.1523 12.1289V22H31.6523V12.5254C31.6523 11.8418 31.5794 11.3132 31.4336 10.9395C31.2969 10.5566 31.0918 10.2878 30.8184 10.1328C30.554 9.96875 30.2259 9.88672 29.834 9.88672C29.4238 9.88672 29.0638 9.99609 28.7539 10.2148C28.4531 10.4245 28.2116 10.7253 28.0293 11.1172C27.847 11.5 27.7103 11.9466 27.6191 12.457C27.528 12.9583 27.487 13.5007 27.4961 14.084ZM34.8789 13.4688L33.4434 13.7285C33.4251 12.7897 33.5117 11.9102 33.7031 11.0898C33.9036 10.2604 34.2044 9.53581 34.6055 8.91602C35.0065 8.29622 35.5124 7.81315 36.123 7.4668C36.7337 7.11133 37.4447 6.93359 38.2559 6.93359C38.8665 6.93359 39.418 7.03385 39.9102 7.23438C40.4115 7.4349 40.8398 7.75846 41.1953 8.20508C41.5508 8.64258 41.8197 9.2168 42.002 9.92773C42.1934 10.6296 42.2891 11.4863 42.2891 12.498V22H38.7754V12.498C38.7754 11.7962 38.7025 11.2585 38.5566 10.8848C38.4108 10.502 38.2057 10.2422 37.9414 10.1055C37.6771 9.95964 37.3535 9.88672 36.9707 9.88672C36.6243 9.88672 36.319 9.98242 36.0547 10.1738C35.7995 10.3561 35.5807 10.6113 35.3984 10.9395C35.2253 11.2676 35.0931 11.6458 35.002 12.0742C34.9199 12.5026 34.8789 12.9674 34.8789 13.4688ZM51.1621 22.2734C50.1777 22.2734 49.3027 22.123 48.5371 21.8223C47.7806 21.5215 47.138 21.084 46.6094 20.5098C46.0807 19.9355 45.6751 19.2292 45.3926 18.3906C45.1191 17.5521 44.9824 16.5905 44.9824 15.5059V14.1797C44.9824 12.9492 45.1237 11.8828 45.4062 10.9805C45.6888 10.069 46.0807 9.31706 46.582 8.72461C47.0924 8.12305 47.7031 7.67643 48.4141 7.38477C49.1341 7.08398 49.9271 6.93359 50.793 6.93359C51.7227 6.93359 52.5339 7.08854 53.2266 7.39844C53.9284 7.69922 54.5072 8.15039 54.9629 8.75195C55.4186 9.35352 55.7559 10.1009 55.9746 10.9941C56.2025 11.8783 56.3164 12.9036 56.3164 14.0703V15.752H46.5547V13.1953H52.8711V12.8535C52.8529 12.2155 52.7754 11.6732 52.6387 11.2266C52.502 10.7799 52.2832 10.4427 51.9824 10.2148C51.6908 9.97786 51.2897 9.85938 50.7793 9.85938C50.3783 9.85938 50.0319 9.94141 49.7402 10.1055C49.4486 10.2604 49.2116 10.5065 49.0293 10.8438C48.8561 11.1719 48.724 11.6139 48.6328 12.1699C48.5417 12.7168 48.4961 13.3867 48.4961 14.1797V15.5059C48.4961 16.2077 48.5599 16.8047 48.6875 17.2969C48.8151 17.7799 49.002 18.1764 49.248 18.4863C49.4941 18.7871 49.7949 19.0059 50.1504 19.1426C50.5059 19.2793 50.9206 19.3477 51.3945 19.3477C52.1055 19.3477 52.7298 19.2201 53.2676 18.9648C53.8053 18.7005 54.2702 18.3496 54.6621 17.9121L56.125 20.0586C55.8607 20.4141 55.5007 20.765 55.0449 21.1113C54.5892 21.4486 54.0378 21.7266 53.3906 21.9453C52.7526 22.1641 52.0098 22.2734 51.1621 22.2734ZM79.4902 22.2734C78.5059 22.2734 77.6309 22.123 76.8652 21.8223C76.1087 21.5215 75.4661 21.084 74.9375 20.5098C74.4089 19.9355 74.0033 19.2292 73.7207 18.3906C73.4473 17.5521 73.3105 16.5905 73.3105 15.5059V14.1797C73.3105 12.9492 73.4518 11.8828 73.7344 10.9805C74.0169 10.069 74.4089 9.31706 74.9102 8.72461C75.4206 8.12305 76.0312 7.67643 76.7422 7.38477C77.4622 7.08398 78.2552 6.93359 79.1211 6.93359C80.0508 6.93359 80.862 7.08854 81.5547 7.39844C82.2565 7.69922 82.8353 8.15039 83.291 8.75195C83.7467 9.35352 84.084 10.1009 84.3027 10.9941C84.5306 11.8783 84.6445 12.9036 84.6445 14.0703V15.752H74.8828V13.1953H81.1992V12.8535C81.181 12.2155 81.1035 11.6732 80.9668 11.2266C80.8301 10.7799 80.6113 10.4427 80.3105 10.2148C80.0189 9.97786 79.6178 9.85938 79.1074 9.85938C78.7064 9.85938 78.36 9.94141 78.0684 10.1055C77.7767 10.2604 77.5397 10.5065 77.3574 10.8438C77.1842 11.1719 77.0521 11.6139 76.9609 12.1699C76.8698 12.7168 76.8242 13.3867 76.8242 14.1797V15.5059C76.8242 16.2077 76.888 16.8047 77.0156 17.2969C77.1432 17.7799 77.3301 18.1764 77.5762 18.4863C77.8223 18.7871 78.123 19.0059 78.4785 19.1426C78.834 19.2793 79.2487 19.3477 79.7227 19.3477C80.4336 19.3477 81.0579 19.2201 81.5957 18.9648C82.1335 18.7005 82.5983 18.3496 82.9902 17.9121L84.4531 20.0586C84.1888 20.4141 83.8288 20.765 83.373 21.1113C82.9173 21.4486 82.3659 21.7266 81.7188 21.9453C81.0807 22.1641 80.3379 22.2734 79.4902 22.2734ZM90.5371 10.2832V22H87.0371V7.20703H90.3594L90.5371 10.2832ZM94.0645 7.09766L94.0371 10.584C93.8548 10.5475 93.6497 10.5202 93.4219 10.502C93.2031 10.4837 92.998 10.4746 92.8066 10.4746C92.3783 10.4746 92.0091 10.5475 91.6992 10.6934C91.3893 10.8392 91.1296 11.0488 90.9199 11.3223C90.7103 11.5957 90.5508 11.9329 90.4414 12.334C90.332 12.7259 90.2637 13.1725 90.2363 13.6738L89.5254 13.5508C89.5254 12.6029 89.5983 11.7279 89.7441 10.9258C89.8991 10.1237 90.1224 9.42643 90.4141 8.83398C90.7148 8.23242 91.084 7.76758 91.5215 7.43945C91.959 7.10221 92.4603 6.93359 93.0254 6.93359C93.1986 6.93359 93.3854 6.95182 93.5859 6.98828C93.7956 7.01562 93.9551 7.05208 94.0645 7.09766ZM99.834 7.20703V22H96.3203V7.20703H99.834ZM96.1426 3.35156C96.1426 2.79557 96.3158 2.33984 96.6621 1.98438C97.0085 1.61979 97.4824 1.4375 98.084 1.4375C98.6855 1.4375 99.1549 1.61979 99.4922 1.98438C99.8294 2.33984 99.998 2.79557 99.998 3.35156C99.998 3.89844 99.8294 4.35417 99.4922 4.71875C99.1549 5.07422 98.6855 5.25195 98.084 5.25195C97.4824 5.25195 97.0085 5.07422 96.6621 4.71875C96.3158 4.35417 96.1426 3.89844 96.1426 3.35156ZM108.857 22.2734C107.873 22.2734 106.998 22.123 106.232 21.8223C105.476 21.5215 104.833 21.084 104.305 20.5098C103.776 19.9355 103.37 19.2292 103.088 18.3906C102.814 17.5521 102.678 16.5905 102.678 15.5059V14.1797C102.678 12.9492 102.819 11.8828 103.102 10.9805C103.384 10.069 103.776 9.31706 104.277 8.72461C104.788 8.12305 105.398 7.67643 106.109 7.38477C106.829 7.08398 107.622 6.93359 108.488 6.93359C109.418 6.93359 110.229 7.08854 110.922 7.39844C111.624 7.69922 112.202 8.15039 112.658 8.75195C113.114 9.35352 113.451 10.1009 113.67 10.9941C113.898 11.8783 114.012 12.9036 114.012 14.0703V15.752H104.25V13.1953H110.566V12.8535C110.548 12.2155 110.471 11.6732 110.334 11.2266C110.197 10.7799 109.979 10.4427 109.678 10.2148C109.386 9.97786 108.985 9.85938 108.475 9.85938C108.074 9.85938 107.727 9.94141 107.436 10.1055C107.144 10.2604 106.907 10.5065 106.725 10.8438C106.551 11.1719 106.419 11.6139 106.328 12.1699C106.237 12.7168 106.191 13.3867 106.191 14.1797V15.5059C106.191 16.2077 106.255 16.8047 106.383 17.2969C106.51 17.7799 106.697 18.1764 106.943 18.4863C107.189 18.7871 107.49 19.0059 107.846 19.1426C108.201 19.2793 108.616 19.3477 109.09 19.3477C109.801 19.3477 110.425 19.2201 110.963 18.9648C111.501 18.7005 111.965 18.3496 112.357 17.9121L113.82 20.0586C113.556 20.4141 113.196 20.765 112.74 21.1113C112.285 21.4486 111.733 21.7266 111.086 21.9453C110.448 22.1641 109.705 22.2734 108.857 22.2734ZM123.104 18.0488C123.104 17.7663 123.012 17.5156 122.83 17.2969C122.657 17.0781 122.379 16.8548 121.996 16.627C121.613 16.3991 121.107 16.153 120.479 15.8887C119.795 15.6152 119.189 15.3372 118.66 15.0547C118.141 14.763 117.699 14.444 117.334 14.0977C116.969 13.7422 116.696 13.3411 116.514 12.8945C116.331 12.4388 116.24 11.9147 116.24 11.3223C116.24 10.7116 116.354 10.1419 116.582 9.61328C116.81 9.08464 117.138 8.61979 117.566 8.21875C118.004 7.81771 118.533 7.50326 119.152 7.27539C119.772 7.04753 120.469 6.93359 121.244 6.93359C122.329 6.93359 123.258 7.12956 124.033 7.52148C124.817 7.9043 125.414 8.44206 125.824 9.13477C126.243 9.82747 126.453 10.625 126.453 11.5273H122.953C122.953 11.181 122.894 10.8665 122.775 10.584C122.657 10.3014 122.47 10.0781 122.215 9.91406C121.96 9.74089 121.632 9.6543 121.23 9.6543C120.893 9.6543 120.602 9.72266 120.355 9.85938C120.118 9.99609 119.936 10.1784 119.809 10.4062C119.681 10.625 119.617 10.8757 119.617 11.1582C119.617 11.377 119.658 11.5684 119.74 11.7324C119.831 11.8965 119.973 12.056 120.164 12.2109C120.355 12.3568 120.611 12.5117 120.93 12.6758C121.258 12.8307 121.663 13.013 122.146 13.2227C123.131 13.5964 123.947 13.9928 124.594 14.4121C125.241 14.8223 125.724 15.3053 126.043 15.8613C126.362 16.4082 126.521 17.0918 126.521 17.9121C126.521 18.5592 126.398 19.1517 126.152 19.6895C125.906 20.2272 125.551 20.6921 125.086 21.084C124.63 21.4668 124.079 21.763 123.432 21.9727C122.785 22.1732 122.06 22.2734 121.258 22.2734C120.082 22.2734 119.089 22.041 118.277 21.5762C117.475 21.1113 116.865 20.5098 116.445 19.7715C116.035 19.0332 115.83 18.263 115.83 17.4609H119.193C119.212 17.9896 119.316 18.4089 119.508 18.7188C119.708 19.0195 119.968 19.2292 120.287 19.3477C120.606 19.4661 120.948 19.5254 121.312 19.5254C121.714 19.5254 122.046 19.4707 122.311 19.3613C122.575 19.2428 122.771 19.0742 122.898 18.8555C123.035 18.6276 123.104 18.3587 123.104 18.0488Z"/>
</mask>
<path d="M10.3105 2.09375V22H6.67383V2.09375H10.3105ZM15.3281 2.09375V5.15625H1.73828V2.09375H15.3281ZM67.418 16.8184C67.418 16.4264 67.377 16.0801 67.2949 15.7793C67.222 15.4694 67.0762 15.1868 66.8574 14.9316C66.6387 14.6764 66.3242 14.4258 65.9141 14.1797C65.5039 13.9245 64.9753 13.6647 64.3281 13.4004C63.5625 13.0905 62.8379 12.7624 62.1543 12.416C61.4707 12.0605 60.86 11.6504 60.3223 11.1855C59.7845 10.7207 59.3607 10.1738 59.0508 9.54492C58.75 8.91602 58.5996 8.18229 58.5996 7.34375C58.5996 6.52344 58.7454 5.77604 59.0371 5.10156C59.3379 4.41797 59.7617 3.83464 60.3086 3.35156C60.8555 2.85938 61.5026 2.48112 62.25 2.2168C63.0065 1.95247 63.8405 1.82031 64.752 1.82031C66.0371 1.82031 67.14 2.08919 68.0605 2.62695C68.9811 3.16471 69.6921 3.89388 70.1934 4.81445C70.6947 5.73503 70.9453 6.77409 70.9453 7.93164H67.2949C67.2949 7.33008 67.2038 6.79688 67.0215 6.33203C66.8483 5.85807 66.5703 5.48893 66.1875 5.22461C65.8047 4.96029 65.3125 4.82812 64.7109 4.82812C64.1458 4.82812 63.681 4.94206 63.3164 5.16992C62.9518 5.38867 62.6829 5.68945 62.5098 6.07227C62.3366 6.44596 62.25 6.87435 62.25 7.35742C62.25 7.70378 62.3275 8.01823 62.4824 8.30078C62.6465 8.57422 62.8698 8.82487 63.1523 9.05273C63.4349 9.2806 63.7767 9.49935 64.1777 9.70898C64.5879 9.90951 65.0436 10.1055 65.5449 10.2969C66.4655 10.6432 67.2721 11.026 67.9648 11.4453C68.6576 11.8555 69.2318 12.3203 69.6875 12.8398C70.1523 13.3503 70.4987 13.929 70.7266 14.5762C70.9544 15.2233 71.0684 15.9616 71.0684 16.791C71.0684 17.6113 70.9271 18.3587 70.6445 19.0332C70.362 19.7077 69.9518 20.2865 69.4141 20.7695C68.8763 21.2526 68.2246 21.6263 67.459 21.8906C66.7025 22.1458 65.8594 22.2734 64.9297 22.2734C64.0365 22.2734 63.1842 22.1458 62.373 21.8906C61.571 21.6263 60.86 21.2298 60.2402 20.7012C59.6204 20.1725 59.1328 19.5072 58.7773 18.7051C58.4219 17.8939 58.2441 16.9414 58.2441 15.8477H61.8945C61.8945 16.4583 61.9629 16.987 62.0996 17.4336C62.2363 17.8711 62.4414 18.2266 62.7148 18.5C62.9883 18.7643 63.3164 18.9603 63.6992 19.0879C64.082 19.2064 64.515 19.2656 64.998 19.2656C65.5723 19.2656 66.0371 19.1608 66.3926 18.9512C66.748 18.7415 67.0078 18.4544 67.1719 18.0898C67.3359 17.7161 67.418 17.2923 67.418 16.8184ZM147.07 18.9512V22H138.43V18.9512H147.07ZM139.482 2.09375V22H135.818V2.09375H139.482ZM145.908 10.2695V13.2363H138.43V10.2695H145.908ZM147.016 2.09375V5.15625H138.43V2.09375H147.016ZM156.408 18.8281V1H159.908V22L156.736 22.0137L156.408 18.8281ZM148.588 15.1641V14.0977C148.588 12.8854 148.693 11.8327 148.902 10.9395C149.121 10.0371 149.436 9.28971 149.846 8.69727C150.265 8.10482 150.775 7.66276 151.377 7.37109C151.979 7.07943 152.662 6.93359 153.428 6.93359C154.148 6.93359 154.777 7.10677 155.314 7.45312C155.852 7.79036 156.303 8.26888 156.668 8.88867C157.042 9.50846 157.342 10.2467 157.57 11.1035C157.798 11.9512 157.958 12.8854 158.049 13.9062V15.4375C157.939 16.4128 157.771 17.3197 157.543 18.1582C157.324 18.9967 157.028 19.7214 156.654 20.332C156.281 20.9427 155.825 21.4212 155.287 21.7676C154.758 22.1048 154.134 22.2734 153.414 22.2734C152.648 22.2734 151.965 22.123 151.363 21.8223C150.771 21.5124 150.265 21.0612 149.846 20.4688C149.436 19.8672 149.121 19.1243 148.902 18.2402C148.693 17.347 148.588 16.3216 148.588 15.1641ZM152.102 14.0977V15.1641C152.102 15.8841 152.143 16.5085 152.225 17.0371C152.307 17.5566 152.434 17.985 152.607 18.3223C152.79 18.6504 153.027 18.8965 153.318 19.0605C153.619 19.2155 153.984 19.293 154.412 19.293C154.959 19.293 155.401 19.1562 155.738 18.8828C156.085 18.6094 156.349 18.2357 156.531 17.7617C156.714 17.2786 156.832 16.7318 156.887 16.1211V13.2363C156.859 12.7441 156.786 12.293 156.668 11.8828C156.549 11.4727 156.39 11.1217 156.189 10.8301C155.989 10.5293 155.743 10.2969 155.451 10.1328C155.16 9.96875 154.818 9.88672 154.426 9.88672C153.997 9.88672 153.633 9.97331 153.332 10.1465C153.04 10.3105 152.803 10.5612 152.621 10.8984C152.448 11.2357 152.316 11.6732 152.225 12.2109C152.143 12.7396 152.102 13.3685 152.102 14.0977ZM166.689 7.20703V22H163.176V7.20703H166.689ZM162.998 3.35156C162.998 2.79557 163.171 2.33984 163.518 1.98438C163.864 1.61979 164.338 1.4375 164.939 1.4375C165.541 1.4375 166.01 1.61979 166.348 1.98438C166.685 2.33984 166.854 2.79557 166.854 3.35156C166.854 3.89844 166.685 4.35417 166.348 4.71875C166.01 5.07422 165.541 5.25195 164.939 5.25195C164.338 5.25195 163.864 5.07422 163.518 4.71875C163.171 4.35417 162.998 3.89844 162.998 3.35156ZM176.123 7.20703V9.87305H168.727V7.20703H176.123ZM170.586 3.57031H174.072V17.6797C174.072 18.1081 174.118 18.4408 174.209 18.6777C174.3 18.9056 174.432 19.0605 174.605 19.1426C174.788 19.2246 175.007 19.2656 175.262 19.2656C175.453 19.2656 175.635 19.252 175.809 19.2246C175.982 19.1973 176.109 19.1699 176.191 19.1426L176.178 21.9316C175.913 22.0319 175.622 22.1139 175.303 22.1777C174.984 22.2415 174.601 22.2734 174.154 22.2734C173.443 22.2734 172.819 22.1367 172.281 21.8633C171.753 21.5807 171.338 21.125 171.037 20.4961C170.736 19.8581 170.586 19.0241 170.586 17.9941V3.57031ZM177.6 15.1504V14.0703C177.6 12.9128 177.741 11.8919 178.023 11.0078C178.306 10.1146 178.707 9.36719 179.227 8.76562C179.746 8.16406 180.366 7.70833 181.086 7.39844C181.815 7.08854 182.622 6.93359 183.506 6.93359C184.408 6.93359 185.219 7.08854 185.939 7.39844C186.669 7.70833 187.293 8.16406 187.812 8.76562C188.341 9.36719 188.742 10.1146 189.016 11.0078C189.298 11.8919 189.439 12.9128 189.439 14.0703V15.1504C189.439 16.3079 189.298 17.3288 189.016 18.2129C188.742 19.097 188.341 19.8444 187.812 20.4551C187.293 21.0566 186.669 21.5124 185.939 21.8223C185.219 22.123 184.417 22.2734 183.533 22.2734C182.649 22.2734 181.842 22.123 181.113 21.8223C180.393 21.5124 179.769 21.0566 179.24 20.4551C178.712 19.8444 178.306 19.097 178.023 18.2129C177.741 17.3288 177.6 16.3079 177.6 15.1504ZM181.113 14.0703V15.1504C181.113 15.8704 181.168 16.4948 181.277 17.0234C181.387 17.543 181.546 17.9759 181.756 18.3223C181.975 18.6686 182.23 18.9284 182.521 19.1016C182.822 19.2656 183.16 19.3477 183.533 19.3477C183.934 19.3477 184.285 19.2656 184.586 19.1016C184.887 18.9284 185.137 18.6686 185.338 18.3223C185.538 17.9759 185.689 17.543 185.789 17.0234C185.889 16.4948 185.939 15.8704 185.939 15.1504V14.0703C185.939 13.3685 185.88 12.7533 185.762 12.2246C185.652 11.696 185.493 11.2585 185.283 10.9121C185.074 10.5658 184.818 10.306 184.518 10.1328C184.217 9.95052 183.88 9.85938 183.506 9.85938C183.141 9.85938 182.813 9.95052 182.521 10.1328C182.23 10.306 181.975 10.5658 181.756 10.9121C181.546 11.2585 181.387 11.696 181.277 12.2246C181.168 12.7533 181.113 13.3685 181.113 14.0703ZM195.537 10.2832V22H192.037V7.20703H195.359L195.537 10.2832ZM199.064 7.09766L199.037 10.584C198.855 10.5475 198.65 10.5202 198.422 10.502C198.203 10.4837 197.998 10.4746 197.807 10.4746C197.378 10.4746 197.009 10.5475 196.699 10.6934C196.389 10.8392 196.13 11.0488 195.92 11.3223C195.71 11.5957 195.551 11.9329 195.441 12.334C195.332 12.7259 195.264 13.1725 195.236 13.6738L194.525 13.5508C194.525 12.6029 194.598 11.7279 194.744 10.9258C194.899 10.1237 195.122 9.42643 195.414 8.83398C195.715 8.23242 196.084 7.76758 196.521 7.43945C196.959 7.10221 197.46 6.93359 198.025 6.93359C198.199 6.93359 198.385 6.95182 198.586 6.98828C198.796 7.01562 198.955 7.05208 199.064 7.09766Z" fill="#4D4D4D"/>
<path d="M10.3105 2.09375H11.3105V1.09375H10.3105V2.09375ZM10.3105 22V23H11.3105V22H10.3105ZM6.67383 22H5.67383V23H6.67383V22ZM6.67383 2.09375V1.09375H5.67383V2.09375H6.67383ZM15.3281 2.09375H16.3281V1.09375H15.3281V2.09375ZM15.3281 5.15625V6.15625H16.3281V5.15625H15.3281ZM1.73828 5.15625H0.738281V6.15625H1.73828V5.15625ZM1.73828 2.09375V1.09375H0.738281V2.09375H1.73828ZM9.31055 2.09375V22H11.3105V2.09375H9.31055ZM10.3105 21H6.67383V23H10.3105V21ZM7.67383 22V2.09375H5.67383V22H7.67383ZM6.67383 3.09375H10.3105V1.09375H6.67383V3.09375ZM14.3281 2.09375V5.15625H16.3281V2.09375H14.3281ZM15.3281 4.15625H1.73828V6.15625H15.3281V4.15625ZM2.73828 5.15625V2.09375H0.738281V5.15625H2.73828ZM1.73828 3.09375H15.3281V1.09375H1.73828V3.09375ZM21.2754 7.20703H22.2754V6.20703H21.2754V7.20703ZM21.2754 22V23H22.2754V22H21.2754ZM17.7617 22H16.7617V23H17.7617V22ZM17.7617 7.20703V6.20703H16.7617V7.20703H17.7617ZM18.1035 1.98438L18.8198 2.6823L18.8285 2.67312L18.1035 1.98438ZM20.9336 1.98438L20.1994 2.66347L20.2081 2.67264L20.9336 1.98438ZM20.9336 4.71875L21.6591 5.40707L21.6677 5.39779L20.9336 4.71875ZM18.1035 4.71875L17.3785 5.40755L17.3873 5.41661L18.1035 4.71875ZM20.2754 7.20703V22H22.2754V7.20703H20.2754ZM21.2754 21H17.7617V23H21.2754V21ZM18.7617 22V7.20703H16.7617V22H18.7617ZM17.7617 8.20703H21.2754V6.20703H17.7617V8.20703ZM18.584 3.35156C18.584 3.02216 18.6778 2.82788 18.8197 2.68224L17.3873 1.28651C16.8365 1.85181 16.584 2.56898 16.584 3.35156H18.584ZM18.8285 2.67312C18.9495 2.5458 19.1398 2.4375 19.5254 2.4375V0.4375C18.7078 0.4375 17.9503 0.693787 17.3785 1.29563L18.8285 2.67312ZM19.5254 2.4375C19.9118 2.4375 20.0908 2.54591 20.1995 2.66342L21.6677 1.30533C21.1019 0.693674 20.3421 0.4375 19.5254 0.4375V2.4375ZM20.2081 2.67264C20.345 2.81693 20.4395 3.01443 20.4395 3.35156H22.4395C22.4395 2.57672 22.1966 1.86276 21.6591 1.29611L20.2081 2.67264ZM20.4395 3.35156C20.4395 3.67433 20.3479 3.87927 20.1995 4.03971L21.6677 5.39779C22.1938 4.82907 22.4395 4.12255 22.4395 3.35156H20.4395ZM20.2081 4.03049C20.1013 4.14309 19.9195 4.25195 19.5254 4.25195V6.25195C20.3344 6.25195 21.0914 6.00535 21.6591 5.40701L20.2081 4.03049ZM19.5254 4.25195C19.1323 4.25195 18.939 4.1433 18.8197 4.02089L17.3873 5.41661C17.9607 6.00514 18.7154 6.25195 19.5254 6.25195V4.25195ZM18.8285 4.03C18.6749 3.86832 18.584 3.66662 18.584 3.35156H16.584C16.584 4.13025 16.8394 4.84001 17.3785 5.4075L18.8285 4.03ZM28.0293 10.2422H29.0293V10.204L29.0264 10.1658L28.0293 10.2422ZM28.0293 22V23H29.0293V22H28.0293ZM24.5156 22H23.5156V23H24.5156V22ZM24.5156 7.20703V6.20703H23.5156V7.20703H24.5156ZM27.7969 7.20703L28.794 7.13068L28.7232 6.20703H27.7969V7.20703ZM27.4961 14.084L27.5088 15.0839L28.5116 15.0712L28.496 14.0684L27.4961 14.084ZM26.416 14.0977L25.4161 14.1065L25.4249 15.1103L26.4287 15.0976L26.416 14.0977ZM27.6191 8.9707L28.4603 9.51147L28.4638 9.50604L27.6191 8.9707ZM32.8691 7.23438L32.473 8.15259L32.4807 8.15588L32.4884 8.15905L32.8691 7.23438ZM34.0723 8.15039L33.2931 8.77715L33.3005 8.78645L33.3082 8.79557L34.0723 8.15039ZM34.8652 9.76367L33.9008 10.0279L33.9029 10.0358L33.9052 10.0437L34.8652 9.76367ZM35.1523 22V23H36.1523V22H35.1523ZM31.6523 22H30.6523V23H31.6523V22ZM31.4336 10.9395L30.4919 11.2758L30.4967 11.2895L30.502 11.303L31.4336 10.9395ZM30.8184 10.1328L30.291 10.9825L30.308 10.993L30.3253 11.0028L30.8184 10.1328ZM28.7539 10.2148L29.3257 11.0353L29.3306 11.0318L28.7539 10.2148ZM28.0293 11.1172L28.9322 11.5471L28.936 11.5389L28.0293 11.1172ZM27.6191 12.457L28.603 12.6359L28.6036 12.6328L27.6191 12.457ZM34.8789 13.4688L35.057 14.4528L35.8789 14.304V13.4688H34.8789ZM33.4434 13.7285L32.4435 13.7479L32.4663 14.9216L33.6214 14.7125L33.4434 13.7285ZM33.7031 11.0898L32.7311 10.8548L32.7293 10.8626L33.7031 11.0898ZM36.123 7.4668L36.6164 8.33669L36.6261 8.33104L36.123 7.4668ZM39.9102 7.23438L39.5329 8.16049L39.5388 8.16285L39.9102 7.23438ZM41.1953 8.20508L40.4128 8.82786L40.4192 8.83567L41.1953 8.20508ZM42.002 9.92773L41.0333 10.1761L41.0352 10.1835L41.0372 10.1909L42.002 9.92773ZM42.2891 22V23H43.2891V22H42.2891ZM38.7754 22H37.7754V23H38.7754V22ZM38.5566 10.8848L37.6221 11.2408L37.6251 11.2483L38.5566 10.8848ZM37.9414 10.1055L37.4583 10.981L37.4701 10.9875L37.482 10.9937L37.9414 10.1055ZM36.0547 10.1738L36.6359 10.9876L36.6412 10.9838L36.0547 10.1738ZM35.3984 10.9395L34.5243 10.4538L34.5191 10.4632L34.5141 10.4727L35.3984 10.9395ZM35.002 12.0742L34.0238 11.8661L34.0217 11.8761L34.0198 11.8861L35.002 12.0742ZM27.0293 10.2422V22H29.0293V10.2422H27.0293ZM28.0293 21H24.5156V23H28.0293V21ZM25.5156 22V7.20703H23.5156V22H25.5156ZM24.5156 8.20703H27.7969V6.20703H24.5156V8.20703ZM26.7998 7.28338L27.0322 10.3185L29.0264 10.1658L28.794 7.13068L26.7998 7.28338ZM27.4834 13.0841L26.4034 13.0977L26.4287 15.0976L27.5088 15.0839L27.4834 13.0841ZM27.416 14.0888C27.4075 13.1258 27.4971 12.2523 27.6779 11.4636L25.7284 11.0169C25.5081 11.9782 25.4063 13.0096 25.4161 14.1065L27.416 14.0888ZM27.6779 11.4636C27.8572 10.6811 28.123 10.0362 28.4603 9.51146L26.778 8.42995C26.295 9.18126 25.9501 10.0493 25.7284 11.0169L27.6779 11.4636ZM28.4638 9.50604C28.7913 8.98928 29.1929 8.6069 29.6698 8.33736L28.6857 6.59623C27.9047 7.03763 27.2673 7.65785 26.7745 8.43537L28.4638 9.50604ZM29.6698 8.33736C30.1276 8.07862 30.6824 7.93359 31.3652 7.93359V5.93359C30.3892 5.93359 29.4857 6.14404 28.6857 6.59623L29.6698 8.33736ZM31.3652 7.93359C31.7754 7.93359 32.141 8.00933 32.473 8.15259L33.2652 6.31616C32.6676 6.05838 32.0306 5.93359 31.3652 5.93359V7.93359ZM32.4884 8.15905C32.7865 8.28181 33.0538 8.47965 33.2931 8.77715L34.8515 7.52363C34.4163 6.98259 33.8815 6.56975 33.2499 6.3097L32.4884 8.15905ZM33.3082 8.79557C33.5382 9.06792 33.7463 9.46412 33.9008 10.0279L35.8297 9.49944C35.6196 8.7325 35.299 8.05318 34.8363 7.50521L33.3082 8.79557ZM33.9052 10.0437C34.0627 10.5837 34.1523 11.2726 34.1523 12.1289H36.1523C36.1523 11.1441 36.0505 10.2562 35.8252 9.48367L33.9052 10.0437ZM34.1523 12.1289V22H36.1523V12.1289H34.1523ZM35.1523 21H31.6523V23H35.1523V21ZM32.6523 22V12.5254H30.6523V22H32.6523ZM32.6523 12.5254C32.6523 11.7925 32.5772 11.1193 32.3652 10.5759L30.502 11.303C30.5816 11.507 30.6523 11.8911 30.6523 12.5254H32.6523ZM32.3753 10.6031C32.1821 10.0621 31.8486 9.56724 31.3114 9.26279L30.3253 11.0028C30.335 11.0083 30.4116 11.0512 30.4919 11.2758L32.3753 10.6031ZM31.3457 9.28317C30.8867 8.99825 30.3642 8.88672 29.834 8.88672V10.8867C30.0876 10.8867 30.2214 10.9392 30.291 10.9825L31.3457 9.28317ZM29.834 8.88672C29.235 8.88672 28.6697 9.05023 28.1772 9.39788L29.3306 11.0318C29.4579 10.942 29.6127 10.8867 29.834 10.8867V8.88672ZM28.1821 9.39445C27.7124 9.72183 27.3659 10.1723 27.1226 10.6955L28.936 11.5389C29.0573 11.2783 29.1939 11.1271 29.3257 11.0352L28.1821 9.39445ZM27.1264 10.6873C26.8983 11.1663 26.7382 11.7016 26.6347 12.2812L28.6036 12.6328C28.6824 12.1916 28.7957 11.8337 28.9322 11.5471L27.1264 10.6873ZM26.6353 12.2781C26.5309 12.852 26.4862 13.4603 26.4962 14.0996L28.496 14.0684C28.4877 13.5411 28.5251 13.0646 28.603 12.6359L26.6353 12.2781ZM34.7008 12.4847L33.2653 12.7445L33.6214 14.7125L35.057 14.4528L34.7008 12.4847ZM34.4432 13.7091C34.4264 12.8439 34.5064 12.0479 34.677 11.3171L32.7293 10.8626C32.517 11.7724 32.4239 12.7355 32.4435 13.7479L34.4432 13.7091ZM34.6751 11.3248C34.8532 10.5881 35.1139 9.97103 35.445 9.45927L33.7659 8.37276C33.295 9.10059 32.9541 9.93271 32.7311 10.8549L34.6751 11.3248ZM35.445 9.45927C35.7633 8.96744 36.153 8.59946 36.6164 8.33663L35.6297 6.59696C34.8718 7.02684 34.2497 7.62501 33.7659 8.37276L35.445 9.45927ZM36.6261 8.33104C37.0626 8.07696 37.5948 7.93359 38.2559 7.93359V5.93359C37.2945 5.93359 36.4048 6.1457 35.62 6.60255L36.6261 8.33104ZM38.2559 7.93359C38.7563 7.93359 39.177 8.01548 39.5329 8.16047L40.2875 6.30828C39.659 6.05223 38.9768 5.93359 38.2559 5.93359V7.93359ZM39.5388 8.16285C39.8695 8.29516 40.1591 8.50902 40.4129 8.82782L41.9777 7.58233C41.5205 7.00791 40.9534 6.57463 40.2815 6.3059L39.5388 8.16285ZM40.4192 8.83567C40.6605 9.13272 40.8765 9.56451 41.0333 10.1761L42.9706 9.67936C42.7629 8.86908 42.441 8.15244 41.9714 7.57449L40.4192 8.83567ZM41.0372 10.1909C41.1981 10.7808 41.2891 11.5434 41.2891 12.498H43.2891C43.2891 11.4293 43.1886 10.4783 42.9667 9.66462L41.0372 10.1909ZM41.2891 12.498V22H43.2891V12.498H41.2891ZM42.2891 21H38.7754V23H42.2891V21ZM39.7754 22V12.498H37.7754V22H39.7754ZM39.7754 12.498C39.7754 11.7508 39.7011 11.0667 39.4882 10.5212L37.6251 11.2483C37.7038 11.4502 37.7754 11.8416 37.7754 12.498H39.7754ZM39.4911 10.5288C39.2909 10.0031 38.954 9.5034 38.4008 9.21725L37.482 10.9937C37.4574 10.981 37.5307 11.0008 37.6222 11.2408L39.4911 10.5288ZM38.4245 9.22989C37.9777 8.9834 37.4781 8.88672 36.9707 8.88672V10.8867C37.2289 10.8867 37.3764 10.9359 37.4583 10.981L38.4245 9.22989ZM36.9707 8.88672C36.4274 8.88672 35.9139 9.04113 35.4682 9.36389L36.6412 10.9838C36.7241 10.9237 36.8213 10.8867 36.9707 10.8867V8.88672ZM35.4734 9.3601C35.076 9.64398 34.7646 10.0211 34.5243 10.4538L36.2726 11.4251C36.3968 11.2015 36.5229 11.0683 36.6359 10.9876L35.4734 9.3601ZM34.5141 10.4727C34.2909 10.8954 34.1308 11.3634 34.0238 11.8661L35.9801 12.2823C36.0554 11.9283 36.1596 11.6397 36.2828 11.4062L34.5141 10.4727ZM34.0198 11.8861C33.9243 12.3849 33.8789 12.9135 33.8789 13.4688H35.8789C35.8789 13.0214 35.9156 12.6203 35.9841 12.2623L34.0198 11.8861ZM48.5371 21.8223L48.1676 22.7515L48.1715 22.753L48.5371 21.8223ZM45.3926 18.3906L44.4418 18.7007L44.4449 18.7099L45.3926 18.3906ZM45.4062 10.9805L46.3606 11.2793L46.3614 11.2766L45.4062 10.9805ZM46.582 8.72461L45.8195 8.07763L45.8186 8.07867L46.582 8.72461ZM48.4141 7.38477L48.7936 8.30995L48.7995 8.3075L48.4141 7.38477ZM53.2266 7.39844L52.8182 8.31126L52.8254 8.31448L52.8326 8.31758L53.2266 7.39844ZM55.9746 10.9941L55.0032 11.232L55.0063 11.2437L55.9746 10.9941ZM56.3164 15.752V16.752H57.3164V15.752H56.3164ZM46.5547 15.752H45.5547V16.752H46.5547V15.752ZM46.5547 13.1953V12.1953H45.5547V13.1953H46.5547ZM52.8711 13.1953V14.1953H53.8711V13.1953H52.8711ZM52.8711 12.8535H53.8711V12.8392L53.8707 12.825L52.8711 12.8535ZM51.9824 10.2148L51.3518 10.991L51.365 11.0017L51.3786 11.0119L51.9824 10.2148ZM49.7402 10.1055L50.2094 10.9886L50.22 10.9829L50.2305 10.977L49.7402 10.1055ZM49.0293 10.8438L48.1495 10.3682L48.1449 10.377L49.0293 10.8438ZM48.6328 12.1699L49.6192 12.3343L49.6196 12.3317L48.6328 12.1699ZM48.6875 17.2969L47.7195 17.5478L47.7207 17.5523L48.6875 17.2969ZM49.248 18.4863L48.4649 19.1082L48.4695 19.1139L48.4741 19.1196L49.248 18.4863ZM53.2676 18.9648L53.6964 19.8684L53.7087 19.8623L53.2676 18.9648ZM54.6621 17.9121L55.4884 17.3489L54.7693 16.2938L53.9173 17.2449L54.6621 17.9121ZM56.125 20.0586L56.9275 20.6553L57.3524 20.0839L56.9513 19.4954L56.125 20.0586ZM55.0449 21.1113L55.6398 21.9152L55.65 21.9075L55.0449 21.1113ZM53.3906 21.9453L53.0704 20.998L53.0663 20.9994L53.3906 21.9453ZM51.1621 21.2734C50.2788 21.2734 49.5315 21.1385 48.9028 20.8915L48.1715 22.753C49.074 23.1076 50.0766 23.2734 51.1621 23.2734V21.2734ZM48.9066 20.893C48.2833 20.6452 47.7677 20.2915 47.3451 19.8325L45.8737 21.1871C46.5084 21.8765 47.2779 22.3977 48.1676 22.7515L48.9066 20.893ZM47.3451 19.8325C46.9233 19.3743 46.584 18.7947 46.3402 18.0713L44.4449 18.7099C44.7663 19.6636 45.2381 20.4968 45.8737 21.1871L47.3451 19.8325ZM46.3433 18.0806C46.109 17.3621 45.9824 16.5084 45.9824 15.5059H43.9824C43.9824 16.6725 44.1293 17.7421 44.4418 18.7006L46.3433 18.0806ZM45.9824 15.5059V14.1797H43.9824V15.5059H45.9824ZM45.9824 14.1797C45.9824 13.0218 46.1158 12.0608 46.3606 11.2793L44.4519 10.6816C44.1316 11.7048 43.9824 12.8766 43.9824 14.1797H45.9824ZM46.3614 11.2766C46.6131 10.4648 46.9484 9.8398 47.3454 9.37055L45.8186 8.07867C45.2131 8.79431 44.7645 9.67324 44.4511 10.6844L46.3614 11.2766ZM47.3445 9.37159C47.7543 8.88869 48.2348 8.5392 48.7936 8.30993L48.0345 6.4596C47.1715 6.81367 46.4306 7.3574 45.8195 8.07763L47.3445 9.37159ZM48.7995 8.3075C49.3847 8.06304 50.0449 7.93359 50.793 7.93359V5.93359C49.8093 5.93359 48.8835 6.10493 48.0286 6.46203L48.7995 8.3075ZM50.793 7.93359C51.6128 7.93359 52.2795 8.07025 52.8182 8.31126L53.6349 6.48562C52.7882 6.10684 51.8325 5.93359 50.793 5.93359V7.93359ZM52.8326 8.31758C53.377 8.55086 53.8161 8.89423 54.1658 9.35581L55.76 8.1481C55.1982 7.40655 54.4798 6.84757 53.6205 6.47929L52.8326 8.31758ZM54.1658 9.35581C54.5232 9.82752 54.8101 10.4431 55.0033 11.232L56.9459 10.7563C56.7016 9.75872 56.3141 8.87951 55.76 8.1481L54.1658 9.35581ZM55.0063 11.2437C55.2082 12.0274 55.3164 12.9658 55.3164 14.0703H57.3164C57.3164 12.8415 57.1967 11.7291 56.943 10.7446L55.0063 11.2437ZM55.3164 14.0703V15.752H57.3164V14.0703H55.3164ZM56.3164 14.752H46.5547V16.752H56.3164V14.752ZM47.5547 15.752V13.1953H45.5547V15.752H47.5547ZM46.5547 14.1953H52.8711V12.1953H46.5547V14.1953ZM53.8711 13.1953V12.8535H51.8711V13.1953H53.8711ZM53.8707 12.825C53.8508 12.1276 53.7654 11.491 53.5949 10.9338L51.6825 11.5193C51.7854 11.8554 51.855 12.3033 51.8715 12.8821L53.8707 12.825ZM53.5949 10.9338C53.4115 10.3347 53.0909 9.80005 52.5863 9.41775L51.3786 11.0119C51.4755 11.0854 51.5924 11.2252 51.6825 11.5193L53.5949 10.9338ZM52.613 9.43873C52.0885 9.01252 51.4374 8.85938 50.7793 8.85938V10.8594C51.142 10.8594 51.2931 10.9432 51.3518 10.991L52.613 9.43873ZM50.7793 8.85938C50.2406 8.85938 49.7184 8.97038 49.25 9.23389L50.2305 10.977C50.3454 10.9124 50.5159 10.8594 50.7793 10.8594V8.85938ZM49.2711 9.22235C48.7788 9.48389 48.4101 9.8862 48.1496 10.3682L49.909 11.3193C50.013 11.1268 50.1184 11.0369 50.2094 10.9886L49.2711 9.22235ZM48.1449 10.377C47.9024 10.8365 47.7465 11.3949 47.646 12.0081L49.6196 12.3317C49.7014 11.8329 49.8099 11.5072 49.9137 11.3105L48.1449 10.377ZM47.6464 12.0055C47.5433 12.6244 47.4961 13.353 47.4961 14.1797H49.4961C49.4961 13.4205 49.5401 12.8092 49.6192 12.3343L47.6464 12.0055ZM47.4961 14.1797V15.5059H49.4961V14.1797H47.4961ZM47.4961 15.5059C47.4961 16.2628 47.5643 16.9493 47.7195 17.5478L49.6555 17.0459C49.5555 16.6601 49.4961 16.1526 49.4961 15.5059H47.4961ZM47.7207 17.5523C47.8746 18.135 48.1136 18.6657 48.4649 19.1082L50.0312 17.8644C49.8904 17.6871 49.7556 17.4249 49.6543 17.0415L47.7207 17.5523ZM48.4741 19.1196C48.8278 19.5518 49.2705 19.8756 49.7914 20.0759L50.5094 18.2092C50.3194 18.1362 50.1605 18.0224 50.022 17.8531L48.4741 19.1196ZM49.7914 20.0759C50.2856 20.266 50.8267 20.3477 51.3945 20.3477V18.3477C51.0144 18.3477 50.7261 18.2926 50.5094 18.2092L49.7914 20.0759ZM51.3945 20.3477C52.2253 20.3477 53.001 20.1982 53.6963 19.8683L52.8388 18.0614C52.4586 18.2419 51.9856 18.3477 51.3945 18.3477V20.3477ZM53.7087 19.8623C54.3591 19.5426 54.9277 19.1143 55.4069 18.5794L53.9173 17.2449C53.6126 17.5849 53.2515 17.8585 52.8265 18.0674L53.7087 19.8623ZM53.8358 18.4753L55.2987 20.6218L56.9513 19.4954L55.4884 17.3489L53.8358 18.4753ZM55.3225 19.4619C55.1279 19.7237 54.8413 20.01 54.4398 20.3152L55.65 21.9075C56.16 21.5199 56.5935 21.1045 56.9275 20.6553L55.3225 19.4619ZM54.4501 20.3075C54.093 20.5718 53.6386 20.8059 53.0704 20.998L53.7109 22.8927C54.4369 22.6472 55.0854 22.3254 55.6398 21.9152L54.4501 20.3075ZM53.0663 20.9994C52.5555 21.1745 51.9265 21.2734 51.1621 21.2734V23.2734C52.093 23.2734 52.9497 23.1536 53.715 22.8913L53.0663 20.9994ZM67.2949 15.7793L66.3215 16.0083L66.3255 16.0255L66.3302 16.0424L67.2949 15.7793ZM66.8574 14.9316L67.6167 14.2808L66.8574 14.9316ZM65.9141 14.1797L65.3858 15.0287L65.3926 15.033L65.3996 15.0372L65.9141 14.1797ZM64.3281 13.4004L64.7063 12.4746L64.7033 12.4734L64.3281 13.4004ZM62.1543 12.416L61.6929 13.3033L61.7023 13.3081L62.1543 12.416ZM59.0508 9.54492L58.1486 9.97641L58.1538 9.98693L59.0508 9.54492ZM59.0371 5.10156L58.1218 4.69882L58.1193 4.70465L59.0371 5.10156ZM60.3086 3.35156L60.9707 4.10107L60.9776 4.09486L60.3086 3.35156ZM62.25 2.2168L61.9202 1.27275L61.9166 1.27402L62.25 2.2168ZM70.9453 7.93164V8.93164H71.9453V7.93164H70.9453ZM67.2949 7.93164H66.2949V8.93164H67.2949V7.93164ZM67.0215 6.33203L66.0822 6.67522L66.0862 6.68622L66.0905 6.69712L67.0215 6.33203ZM63.3164 5.16992L63.8309 6.02742L63.8387 6.02274L63.8464 6.01792L63.3164 5.16992ZM62.5098 6.07227L63.4171 6.49274L63.4209 6.48443L62.5098 6.07227ZM62.4824 8.30078L61.6056 8.78161L61.6149 8.79863L61.6249 8.81528L62.4824 8.30078ZM64.1777 9.70898L63.7145 10.5952L63.7264 10.6015L63.7385 10.6074L64.1777 9.70898ZM65.5449 10.2969L65.1882 11.2311L65.1928 11.2328L65.5449 10.2969ZM67.9648 11.4453L67.447 12.3009L67.4554 12.3058L67.9648 11.4453ZM69.6875 12.8398L68.9357 13.4993L68.9419 13.5063L68.9482 13.5132L69.6875 12.8398ZM70.7266 14.5762L69.7833 14.9083L70.7266 14.5762ZM70.6445 19.0332L69.7222 18.6468L70.6445 19.0332ZM67.459 21.8906L67.7786 22.8382L67.7853 22.8359L67.459 21.8906ZM62.373 21.8906L62.06 22.8405L62.0729 22.8445L62.373 21.8906ZM58.7773 18.7051L57.8614 19.1064L57.8631 19.1103L58.7773 18.7051ZM58.2441 15.8477V14.8477H57.2441V15.8477H58.2441ZM61.8945 15.8477H62.8945V14.8477H61.8945V15.8477ZM62.0996 17.4336L61.1434 17.7263L61.1451 17.7319L62.0996 17.4336ZM62.7148 18.5L62.0077 19.2071L62.0137 19.2131L62.0198 19.219L62.7148 18.5ZM63.6992 19.0879L63.383 20.0366L63.3932 20.04L63.4035 20.0432L63.6992 19.0879ZM67.1719 18.0898L68.0838 18.5002L68.0875 18.4918L67.1719 18.0898ZM68.418 16.8184C68.418 16.3592 68.3702 15.9214 68.2597 15.5162L66.3302 16.0424C66.3837 16.2388 66.418 16.4936 66.418 16.8184H68.418ZM68.2683 15.5503C68.1567 15.076 67.9335 14.6505 67.6167 14.2808L66.0982 15.5824C66.2188 15.7232 66.2873 15.8628 66.3215 16.0083L68.2683 15.5503ZM67.6167 14.2808C67.3053 13.9175 66.8952 13.6022 66.4286 13.3222L65.3996 15.0372C65.7532 15.2494 65.9721 15.4353 66.0982 15.5824L67.6167 14.2808ZM66.4424 13.3306C65.9684 13.0357 65.3846 12.7517 64.7062 12.4746L63.95 14.3261C64.5659 14.5777 65.0394 14.8132 65.3858 15.0287L66.4424 13.3306ZM64.7033 12.4734C63.9618 12.1733 63.2629 11.8567 62.6063 11.524L61.7023 13.3081C62.4129 13.6681 63.1632 14.0077 63.9529 14.3273L64.7033 12.4734ZM62.6157 11.5288C61.9954 11.2063 61.4504 10.8389 60.9762 10.429L59.6683 11.9421C60.2697 12.4619 60.946 12.9148 61.6929 13.3032L62.6157 11.5288ZM60.9762 10.429C60.5383 10.0504 60.1977 9.61007 59.9478 9.10292L58.1538 9.98693C58.5237 10.7376 59.0307 11.391 59.6683 11.9421L60.9762 10.429ZM59.9529 9.11347C59.7283 8.64384 59.5996 8.06283 59.5996 7.34375H57.5996C57.5996 8.30175 57.7717 9.18819 58.1486 9.97638L59.9529 9.11347ZM59.5996 7.34375C59.5996 6.64405 59.7235 6.03382 59.955 5.49847L58.1193 4.70465C57.7674 5.51826 57.5996 6.40283 57.5996 7.34375H59.5996ZM59.9524 5.5043C60.1963 4.95005 60.5349 4.48594 60.9706 4.10104L59.6466 2.60209C58.9885 3.18333 58.4795 3.88589 58.1218 4.69882L59.9524 5.5043ZM60.9776 4.09486C61.4194 3.69719 61.9502 3.38352 62.5834 3.15957L61.9166 1.27402C61.055 1.57872 60.2915 2.02156 59.6396 2.60827L60.9776 4.09486ZM62.5798 3.16083C63.2169 2.93826 63.9376 2.82031 64.752 2.82031V0.820312C63.7434 0.820312 62.7962 0.966685 61.9202 1.27276L62.5798 3.16083ZM64.752 2.82031C65.8963 2.82031 66.8173 3.05882 67.5561 3.49042L68.5649 1.76348C67.4627 1.11957 66.1779 0.820312 64.752 0.820312V2.82031ZM67.5561 3.49042C68.3222 3.9379 68.9026 4.53506 69.3151 5.2927L71.0716 4.33621C70.4816 3.2527 69.6401 2.39153 68.5649 1.76348L67.5561 3.49042ZM69.3151 5.2927C69.7284 6.05166 69.9453 6.92338 69.9453 7.93164H71.9453C71.9453 6.6248 71.6609 5.41839 71.0716 4.33621L69.3151 5.2927ZM70.9453 6.93164H67.2949V8.93164H70.9453V6.93164ZM68.2949 7.93164C68.2949 7.23007 68.1887 6.56925 67.9525 5.96694L66.0905 6.69712C66.2189 7.0245 66.2949 7.43008 66.2949 7.93164H68.2949ZM67.9607 5.98884C67.7229 5.33776 67.3235 4.79374 66.7557 4.40171L65.6193 6.04751C65.8172 6.18413 65.9738 6.37839 66.0822 6.67522L67.9607 5.98884ZM66.7557 4.40171C66.163 3.99248 65.4563 3.82812 64.7109 3.82812V5.82812C65.1687 5.82812 65.4464 5.92809 65.6193 6.04751L66.7557 4.40171ZM64.7109 3.82812C64.0161 3.82812 63.3526 3.96805 62.7864 4.32192L63.8464 6.01792C64.0094 5.91606 64.2756 5.82812 64.7109 5.82812V3.82812ZM62.8019 4.31243C62.2651 4.63449 61.8567 5.08961 61.5987 5.6601L63.4209 6.48443C63.5092 6.28929 63.6385 6.14285 63.8309 6.02742L62.8019 4.31243ZM61.6025 5.6518C61.3586 6.17812 61.25 6.75402 61.25 7.35742H63.25C63.25 6.99468 63.3146 6.71381 63.4171 6.49273L61.6025 5.6518ZM61.25 7.35742C61.25 7.85892 61.3638 8.34074 61.6056 8.78161L63.3592 7.81995C63.2911 7.69572 63.25 7.54863 63.25 7.35742H61.25ZM61.6249 8.81528C61.8572 9.20242 62.1631 9.53958 62.5246 9.83115L63.7801 8.27432C63.5765 8.11016 63.4358 7.94602 63.3399 7.78629L61.6249 8.81528ZM62.5246 9.83115C62.869 10.1089 63.2688 10.3622 63.7145 10.5952L64.641 8.82276C64.2846 8.63646 64.0008 8.45231 63.7801 8.27432L62.5246 9.83115ZM63.7385 10.6074C64.1798 10.8231 64.6636 11.0308 65.1882 11.2311L65.9016 9.36266C65.4236 9.18015 64.996 8.9959 64.6169 8.8106L63.7385 10.6074ZM65.1928 11.2328C66.0676 11.5619 66.8167 11.9193 67.447 12.3008L68.4826 10.5898C67.7275 10.1328 66.8634 9.72451 65.8971 9.36093L65.1928 11.2328ZM67.4554 12.3058C68.0718 12.6708 68.56 13.071 68.9357 13.4993L70.4393 12.1804C69.9035 11.5696 69.2433 11.0401 68.4743 10.5848L67.4554 12.3058ZM68.9482 13.5132C69.3235 13.9253 69.6002 14.3882 69.7833 14.9083L71.6698 14.244C71.3972 13.4699 70.9812 12.7752 70.4268 12.1665L68.9482 13.5132ZM69.7833 14.9083C69.9667 15.4291 70.0684 16.0518 70.0684 16.791H72.0684C72.0684 15.8714 71.9422 15.0175 71.6698 14.244L69.7833 14.9083ZM70.0684 16.791C70.0684 17.4948 69.9476 18.1088 69.7222 18.6468L71.5669 19.4196C71.9066 18.6087 72.0684 17.7279 72.0684 16.791H70.0684ZM69.7222 18.6468C69.4961 19.1864 69.1721 19.6426 68.7458 20.0256L70.0823 21.5135C70.7315 20.9303 71.2278 20.2289 71.5669 19.4196L69.7222 18.6468ZM68.7458 20.0256C68.3187 20.4092 67.7872 20.7194 67.1326 20.9454L67.7853 22.8359C68.662 22.5332 69.4339 22.096 70.0823 21.5135L68.7458 20.0256ZM67.1393 20.9431C66.5012 21.1584 65.7682 21.2734 64.9297 21.2734V23.2734C65.9506 23.2734 66.9038 23.1333 67.7786 22.8382L67.1393 20.9431ZM64.9297 21.2734C64.1331 21.2734 63.3825 21.1599 62.6732 20.9367L62.0729 22.8445C62.986 23.1318 63.9398 23.2734 64.9297 23.2734V21.2734ZM62.686 20.9409C62.0025 20.7156 61.4067 20.3817 60.8892 19.9403L59.5913 21.462C60.3134 22.0779 61.1394 22.537 62.0601 22.8404L62.686 20.9409ZM60.8892 19.9403C60.3919 19.5162 59.9911 18.9758 59.6916 18.2999L57.8631 19.1103C58.2745 20.0385 58.8489 20.8288 59.5913 21.462L60.8892 19.9403ZM59.6933 18.3037C59.4047 17.6451 59.2441 16.8348 59.2441 15.8477H57.2441C57.2441 17.048 57.4391 18.1427 57.8614 19.1064L59.6933 18.3037ZM58.2441 16.8477H61.8945V14.8477H58.2441V16.8477ZM60.8945 15.8477C60.8945 16.5289 60.9703 17.1608 61.1434 17.7263L63.0558 17.1409C62.9555 16.8131 62.8945 16.3878 62.8945 15.8477H60.8945ZM61.1451 17.7319C61.3211 18.2951 61.6006 18.8 62.0077 19.2071L63.422 17.7929C63.2822 17.6531 63.1515 17.4471 63.0541 17.1353L61.1451 17.7319ZM62.0198 19.219C62.4073 19.5935 62.8672 19.8646 63.383 20.0366L64.0154 18.1392C63.7656 18.0559 63.5693 17.9351 63.4099 17.781L62.0198 19.219ZM63.4035 20.0432C63.8994 20.1967 64.4346 20.2656 64.998 20.2656V18.2656C64.5953 18.2656 64.2646 18.2161 63.9949 18.1326L63.4035 20.0432ZM64.998 20.2656C65.6842 20.2656 66.3424 20.1417 66.9006 19.8125L65.8846 18.0898C65.7318 18.1799 65.4603 18.2656 64.998 18.2656V20.2656ZM66.9006 19.8125C67.4279 19.5015 67.8321 19.0596 68.0838 18.5002L66.26 17.6795C66.1836 17.8492 66.0682 17.9815 65.8846 18.0898L66.9006 19.8125ZM68.0875 18.4918C68.3155 17.9726 68.418 17.4086 68.418 16.8184H66.418C66.418 17.1761 66.3564 17.4597 66.2562 17.6879L68.0875 18.4918ZM76.8652 21.8223L76.4958 22.7515L76.4996 22.753L76.8652 21.8223ZM73.7207 18.3906L72.7699 18.7007L72.7731 18.7099L73.7207 18.3906ZM73.7344 10.9805L74.6887 11.2793L74.6895 11.2766L73.7344 10.9805ZM74.9102 8.72461L74.1476 8.07763L74.1468 8.07867L74.9102 8.72461ZM76.7422 7.38477L77.1217 8.30995L77.1276 8.3075L76.7422 7.38477ZM81.5547 7.39844L81.1463 8.31126L81.1535 8.31448L81.1608 8.31758L81.5547 7.39844ZM84.3027 10.9941L83.3314 11.232L83.3344 11.2437L84.3027 10.9941ZM84.6445 15.752V16.752H85.6445V15.752H84.6445ZM74.8828 15.752H73.8828V16.752H74.8828V15.752ZM74.8828 13.1953V12.1953H73.8828V13.1953H74.8828ZM81.1992 13.1953V14.1953H82.1992V13.1953H81.1992ZM81.1992 12.8535H82.1992V12.8392L82.1988 12.825L81.1992 12.8535ZM80.3105 10.2148L79.68 10.991L79.6931 11.0017L79.7067 11.0119L80.3105 10.2148ZM78.0684 10.1055L78.5375 10.9886L78.5481 10.9829L78.5586 10.977L78.0684 10.1055ZM77.3574 10.8438L76.4777 10.3682L76.473 10.377L77.3574 10.8438ZM76.9609 12.1699L77.9473 12.3343L77.9478 12.3317L76.9609 12.1699ZM77.0156 17.2969L76.0476 17.5478L76.0488 17.5523L77.0156 17.2969ZM77.5762 18.4863L76.7931 19.1082L76.7976 19.1139L76.8022 19.1196L77.5762 18.4863ZM81.5957 18.9648L82.0245 19.8684L82.0368 19.8623L81.5957 18.9648ZM82.9902 17.9121L83.8166 17.3489L83.0974 16.2938L82.2454 17.2449L82.9902 17.9121ZM84.4531 20.0586L85.2556 20.6553L85.6805 20.0839L85.2795 19.4954L84.4531 20.0586ZM83.373 21.1113L83.9679 21.9152L83.9781 21.9075L83.373 21.1113ZM81.7188 21.9453L81.3985 20.998L81.3944 20.9994L81.7188 21.9453ZM79.4902 21.2734C78.607 21.2734 77.8596 21.1385 77.2309 20.8915L76.4996 22.753C77.4021 23.1076 78.4048 23.2734 79.4902 23.2734V21.2734ZM77.2347 20.893C76.6115 20.6452 76.0958 20.2915 75.6732 19.8325L74.2018 21.1871C74.8365 21.8765 75.606 22.3977 76.4958 22.7515L77.2347 20.893ZM75.6732 19.8325C75.2514 19.3743 74.9121 18.7947 74.6684 18.0713L72.7731 18.7099C73.0944 19.6636 73.5663 20.4968 74.2018 21.1871L75.6732 19.8325ZM74.6714 18.0806C74.4371 17.3621 74.3105 16.5084 74.3105 15.5059H72.3105C72.3105 16.6725 72.4574 17.7421 72.77 18.7006L74.6714 18.0806ZM74.3105 15.5059V14.1797H72.3105V15.5059H74.3105ZM74.3105 14.1797C74.3105 13.0218 74.444 12.0608 74.6887 11.2793L72.7801 10.6816C72.4597 11.7048 72.3105 12.8766 72.3105 14.1797H74.3105ZM74.6895 11.2766C74.9412 10.4648 75.2765 9.8398 75.6735 9.37055L74.1468 8.07867C73.5412 8.79431 73.0927 9.67324 72.7792 10.6844L74.6895 11.2766ZM75.6727 9.37159C76.0824 8.88869 76.5629 8.5392 77.1217 8.30993L76.3626 6.4596C75.4996 6.81367 74.7588 7.3574 74.1476 8.07763L75.6727 9.37159ZM77.1276 8.3075C77.7129 8.06304 78.373 7.93359 79.1211 7.93359V5.93359C78.1374 5.93359 77.2116 6.10493 76.3567 6.46203L77.1276 8.3075ZM79.1211 7.93359C79.941 7.93359 80.6076 8.07025 81.1463 8.31126L81.9631 6.48562C81.1164 6.10684 80.1606 5.93359 79.1211 5.93359V7.93359ZM81.1608 8.31758C81.7051 8.55086 82.1442 8.89423 82.4939 9.35581L84.0881 8.1481C83.5263 7.40655 82.8079 6.84757 81.9486 6.47929L81.1608 8.31758ZM82.4939 9.35581C82.8513 9.82752 83.1382 10.4431 83.3314 11.232L85.274 10.7563C85.0297 9.75872 84.6422 8.87951 84.0881 8.1481L82.4939 9.35581ZM83.3344 11.2437C83.5364 12.0274 83.6445 12.9658 83.6445 14.0703H85.6445C85.6445 12.8415 85.5248 11.7291 85.2711 10.7446L83.3344 11.2437ZM83.6445 14.0703V15.752H85.6445V14.0703H83.6445ZM84.6445 14.752H74.8828V16.752H84.6445V14.752ZM75.8828 15.752V13.1953H73.8828V15.752H75.8828ZM74.8828 14.1953H81.1992V12.1953H74.8828V14.1953ZM82.1992 13.1953V12.8535H80.1992V13.1953H82.1992ZM82.1988 12.825C82.1789 12.1276 82.0936 11.491 81.923 10.9338L80.0106 11.5193C80.1135 11.8554 80.1831 12.3033 80.1996 12.8821L82.1988 12.825ZM81.923 10.9338C81.7396 10.3347 81.419 9.80005 80.9144 9.41775L79.7067 11.0119C79.8036 11.0854 79.9206 11.2252 80.0106 11.5193L81.923 10.9338ZM80.9411 9.43873C80.4166 9.01252 79.7655 8.85938 79.1074 8.85938V10.8594C79.4701 10.8594 79.6212 10.9432 79.68 10.991L80.9411 9.43873ZM79.1074 8.85938C78.5687 8.85938 78.0466 8.97038 77.5781 9.23389L78.5586 10.977C78.6735 10.9124 78.8441 10.8594 79.1074 10.8594V8.85938ZM77.5992 9.22235C77.1069 9.48389 76.7383 9.8862 76.4777 10.3682L78.2371 11.3193C78.3412 11.1268 78.4465 11.0369 78.5375 10.9886L77.5992 9.22235ZM76.473 10.377C76.2305 10.8365 76.0746 11.3949 75.9741 12.0081L77.9478 12.3317C78.0295 11.8329 78.138 11.5072 78.2418 11.3105L76.473 10.377ZM75.9745 12.0055C75.8714 12.6244 75.8242 13.353 75.8242 14.1797H77.8242C77.8242 13.4205 77.8682 12.8092 77.9473 12.3343L75.9745 12.0055ZM75.8242 14.1797V15.5059H77.8242V14.1797H75.8242ZM75.8242 15.5059C75.8242 16.2628 75.8925 16.9493 76.0476 17.5478L77.9836 17.0459C77.8836 16.6601 77.8242 16.1526 77.8242 15.5059H75.8242ZM76.0488 17.5523C76.2027 18.135 76.4417 18.6657 76.7931 19.1082L78.3593 17.8644C78.2185 17.6871 78.0837 17.4249 77.9825 17.0415L76.0488 17.5523ZM76.8022 19.1196C77.1559 19.5518 77.5986 19.8756 78.1195 20.0759L78.8375 18.2092C78.6475 18.1362 78.4886 18.0224 78.3501 17.8531L76.8022 19.1196ZM78.1195 20.0759C78.6138 20.266 79.1549 20.3477 79.7227 20.3477V18.3477C79.3425 18.3477 79.0542 18.2926 78.8375 18.2092L78.1195 20.0759ZM79.7227 20.3477C80.5534 20.3477 81.3292 20.1982 82.0244 19.8683L81.167 18.0614C80.7867 18.2419 80.3138 18.3477 79.7227 18.3477V20.3477ZM82.0368 19.8623C82.6873 19.5426 83.2559 19.1143 83.7351 18.5794L82.2454 17.2449C81.9408 17.5849 81.5797 17.8585 81.1546 18.0674L82.0368 19.8623ZM82.1639 18.4753L83.6268 20.6218L85.2795 19.4954L83.8166 17.3489L82.1639 18.4753ZM83.6507 19.4619C83.456 19.7237 83.1694 20.01 82.768 20.3152L83.9781 21.9075C84.4881 21.5199 84.9216 21.1045 85.2556 20.6553L83.6507 19.4619ZM82.7782 20.3075C82.4211 20.5718 81.9667 20.8059 81.3985 20.998L82.039 22.8927C82.7651 22.6472 83.4136 22.3254 83.9679 21.9152L82.7782 20.3075ZM81.3944 20.9994C80.8837 21.1745 80.2546 21.2734 79.4902 21.2734V23.2734C80.4212 23.2734 81.2778 23.1536 82.0431 22.8913L81.3944 20.9994ZM90.5371 10.2832H91.5371V10.2543L91.5354 10.2255L90.5371 10.2832ZM90.5371 22V23H91.5371V22H90.5371ZM87.0371 22H86.0371V23H87.0371V22ZM87.0371 7.20703V6.20703H86.0371V7.20703H87.0371ZM90.3594 7.20703L91.3577 7.14935L91.3033 6.20703H90.3594V7.20703ZM94.0645 7.09766L95.0644 7.1055L95.0697 6.43317L94.4491 6.17458L94.0645 7.09766ZM94.0371 10.584L93.841 11.5646L95.0276 11.8019L95.0371 10.5918L94.0371 10.584ZM93.4219 10.502L93.3388 11.4985L93.3421 11.4988L93.4219 10.502ZM90.4414 12.334L91.4046 12.6028L91.4062 12.5971L90.4414 12.334ZM90.2363 13.6738L90.0658 14.6592L91.1736 14.8509L91.2348 13.7283L90.2363 13.6738ZM89.5254 13.5508H88.5254V14.3926L89.3549 14.5361L89.5254 13.5508ZM89.7441 10.9258L88.7622 10.7361L88.7603 10.7469L89.7441 10.9258ZM90.4141 8.83398L89.5196 8.38676L89.5169 8.3923L90.4141 8.83398ZM91.5215 7.43945L92.1215 8.23952L92.132 8.23146L91.5215 7.43945ZM93.5859 6.98828L93.4071 7.97215L93.4317 7.97664L93.4566 7.97988L93.5859 6.98828ZM89.5371 10.2832V22H91.5371V10.2832H89.5371ZM90.5371 21H87.0371V23H90.5371V21ZM88.0371 22V7.20703H86.0371V22H88.0371ZM87.0371 8.20703H90.3594V6.20703H87.0371V8.20703ZM89.361 7.26471L89.5388 10.3409L91.5354 10.2255L91.3577 7.14935L89.361 7.26471ZM93.0645 7.08981L93.0371 10.5761L95.0371 10.5918L95.0644 7.1055L93.0645 7.08981ZM94.2332 9.6034C94.005 9.55775 93.7601 9.52581 93.5016 9.50514L93.3421 11.4988C93.5394 11.5146 93.7047 11.5373 93.841 11.5646L94.2332 9.6034ZM93.5049 9.50541C93.2625 9.4852 93.0294 9.47461 92.8066 9.47461V11.4746C92.9667 11.4746 93.1438 11.4822 93.3388 11.4985L93.5049 9.50541ZM92.8066 9.47461C92.267 9.47461 91.7456 9.56635 91.2734 9.78854L92.125 11.5982C92.2727 11.5287 92.4895 11.4746 92.8066 11.4746V9.47461ZM91.2734 9.78854C90.8181 10.0028 90.4325 10.3144 90.1263 10.7138L91.7135 11.9307C91.8266 11.7832 91.9605 11.6756 92.125 11.5982L91.2734 9.78854ZM90.1263 10.7138C89.8233 11.1091 89.6133 11.5699 89.4766 12.0709L91.4062 12.5971C91.4883 12.296 91.5973 12.0823 91.7135 11.9307L90.1263 10.7138ZM89.4782 12.0652C89.3454 12.5411 89.2682 13.0617 89.2378 13.6194L91.2348 13.7283C91.2591 13.2834 91.3187 12.9108 91.4046 12.6028L89.4782 12.0652ZM90.4069 12.6885L89.6959 12.5654L89.3549 14.5361L90.0658 14.6592L90.4069 12.6885ZM90.5254 13.5508C90.5254 12.6534 90.5945 11.8391 90.728 11.1047L88.7603 10.7469C88.6021 11.6166 88.5254 12.5523 88.5254 13.5508H90.5254ZM90.726 11.1155C90.8679 10.381 91.0669 9.77201 91.3112 9.27567L89.5169 8.3923C89.1779 9.08085 88.9303 9.86639 88.7623 10.7361L90.726 11.1155ZM91.3085 9.2812C91.5555 8.78715 91.8335 8.45547 92.1215 8.23945L90.9215 6.63945C90.3345 7.07969 89.8742 7.6777 89.5196 8.38677L91.3085 9.2812ZM92.132 8.23146C92.3902 8.03239 92.6757 7.93359 93.0254 7.93359V5.93359C92.2449 5.93359 91.5277 6.17204 90.911 6.64744L92.132 8.23146ZM93.0254 7.93359C93.1292 7.93359 93.2555 7.9446 93.4071 7.97215L93.7648 6.00441C93.5153 5.95905 93.268 5.93359 93.0254 5.93359V7.93359ZM93.4566 7.97988C93.5385 7.99057 93.5985 8.00151 93.64 8.01099C93.6836 8.02097 93.693 8.02622 93.6798 8.02073L94.4491 6.17458C94.218 6.07829 93.9556 6.02802 93.7153 5.99668L93.4566 7.97988ZM99.834 7.20703H100.834V6.20703H99.834V7.20703ZM99.834 22V23H100.834V22H99.834ZM96.3203 22H95.3203V23H96.3203V22ZM96.3203 7.20703V6.20703H95.3203V7.20703H96.3203ZM96.6621 1.98438L97.3784 2.6823L97.3871 2.67312L96.6621 1.98438ZM99.4922 1.98438L98.758 2.66347L98.7667 2.67264L99.4922 1.98438ZM99.4922 4.71875L100.218 5.40707L100.226 5.39779L99.4922 4.71875ZM96.6621 4.71875L95.937 5.40755L95.9459 5.41661L96.6621 4.71875ZM98.834 7.20703V22H100.834V7.20703H98.834ZM99.834 21H96.3203V23H99.834V21ZM97.3203 22V7.20703H95.3203V22H97.3203ZM96.3203 8.20703H99.834V6.20703H96.3203V8.20703ZM97.1426 3.35156C97.1426 3.02216 97.2364 2.82788 97.3783 2.68224L95.9459 1.28651C95.3951 1.85181 95.1426 2.56898 95.1426 3.35156H97.1426ZM97.3871 2.67312C97.5081 2.5458 97.6984 2.4375 98.084 2.4375V0.4375C97.2664 0.4375 96.5089 0.693787 95.9371 1.29563L97.3871 2.67312ZM98.084 2.4375C98.4704 2.4375 98.6494 2.54591 98.7581 2.66342L100.226 1.30533C99.6605 0.693674 98.9007 0.4375 98.084 0.4375V2.4375ZM98.7667 2.67264C98.9036 2.81693 98.998 3.01443 98.998 3.35156H100.998C100.998 2.57672 100.755 1.86276 100.218 1.29611L98.7667 2.67264ZM98.998 3.35156C98.998 3.67433 98.9065 3.87927 98.7581 4.03971L100.226 5.39779C100.752 4.82907 100.998 4.12255 100.998 3.35156H98.998ZM98.7667 4.03049C98.6599 4.14309 98.4781 4.25195 98.084 4.25195V6.25195C98.893 6.25195 99.65 6.00535 100.218 5.40701L98.7667 4.03049ZM98.084 4.25195C97.6909 4.25195 97.4976 4.1433 97.3783 4.02089L95.9459 5.41661C96.5193 6.00514 97.274 6.25195 98.084 6.25195V4.25195ZM97.3871 4.03C97.2335 3.86832 97.1426 3.66662 97.1426 3.35156H95.1426C95.1426 4.13025 95.398 4.84001 95.9371 5.4075L97.3871 4.03ZM106.232 21.8223L105.863 22.7515L105.867 22.753L106.232 21.8223ZM103.088 18.3906L102.137 18.7007L102.14 18.7099L103.088 18.3906ZM103.102 10.9805L104.056 11.2793L104.057 11.2766L103.102 10.9805ZM104.277 8.72461L103.515 8.07763L103.514 8.07867L104.277 8.72461ZM106.109 7.38477L106.489 8.30995L106.495 8.3075L106.109 7.38477ZM110.922 7.39844L110.514 8.31126L110.521 8.31448L110.528 8.31758L110.922 7.39844ZM113.67 10.9941L112.699 11.232L112.702 11.2437L113.67 10.9941ZM114.012 15.752V16.752H115.012V15.752H114.012ZM104.25 15.752H103.25V16.752H104.25V15.752ZM104.25 13.1953V12.1953H103.25V13.1953H104.25ZM110.566 13.1953V14.1953H111.566V13.1953H110.566ZM110.566 12.8535H111.566V12.8392L111.566 12.825L110.566 12.8535ZM109.678 10.2148L109.047 10.991L109.06 11.0017L109.074 11.0119L109.678 10.2148ZM107.436 10.1055L107.905 10.9886L107.915 10.9829L107.926 10.977L107.436 10.1055ZM106.725 10.8438L105.845 10.3682L105.84 10.377L106.725 10.8438ZM106.328 12.1699L107.315 12.3343L107.315 12.3317L106.328 12.1699ZM106.383 17.2969L105.415 17.5478L105.416 17.5523L106.383 17.2969ZM106.943 18.4863L106.16 19.1082L106.165 19.1139L106.169 19.1196L106.943 18.4863ZM110.963 18.9648L111.392 19.8684L111.404 19.8623L110.963 18.9648ZM112.357 17.9121L113.184 17.3489L112.465 16.2938L111.613 17.2449L112.357 17.9121ZM113.82 20.0586L114.623 20.6553L115.048 20.0839L114.647 19.4954L113.82 20.0586ZM112.74 21.1113L113.335 21.9152L113.345 21.9075L112.74 21.1113ZM111.086 21.9453L110.766 20.998L110.762 20.9994L111.086 21.9453ZM108.857 21.2734C107.974 21.2734 107.227 21.1385 106.598 20.8915L105.867 22.753C106.769 23.1076 107.772 23.2734 108.857 23.2734V21.2734ZM106.602 20.893C105.979 20.6452 105.463 20.2915 105.04 19.8325L103.569 21.1871C104.204 21.8765 104.973 22.3977 105.863 22.7515L106.602 20.893ZM105.04 19.8325C104.619 19.3743 104.279 18.7947 104.036 18.0713L102.14 18.7099C102.462 19.6636 102.933 20.4968 103.569 21.1871L105.04 19.8325ZM104.039 18.0806C103.804 17.3621 103.678 16.5084 103.678 15.5059H101.678C101.678 16.6725 101.825 17.7421 102.137 18.7006L104.039 18.0806ZM103.678 15.5059V14.1797H101.678V15.5059H103.678ZM103.678 14.1797C103.678 13.0218 103.811 12.0608 104.056 11.2793L102.147 10.6816C101.827 11.7048 101.678 12.8766 101.678 14.1797H103.678ZM104.057 11.2766C104.308 10.4648 104.644 9.8398 105.041 9.37055L103.514 8.07867C102.908 8.79431 102.46 9.67324 102.146 10.6844L104.057 11.2766ZM105.04 9.37159C105.45 8.88869 105.93 8.5392 106.489 8.30993L105.73 6.4596C104.867 6.81367 104.126 7.3574 103.515 8.07763L105.04 9.37159ZM106.495 8.3075C107.08 8.06304 107.74 7.93359 108.488 7.93359V5.93359C107.505 5.93359 106.579 6.10493 105.724 6.46203L106.495 8.3075ZM108.488 7.93359C109.308 7.93359 109.975 8.07025 110.514 8.31126L111.33 6.48562C110.484 6.10684 109.528 5.93359 108.488 5.93359V7.93359ZM110.528 8.31758C111.072 8.55086 111.511 8.89423 111.861 9.35581L113.455 8.1481C112.894 7.40655 112.175 6.84757 111.316 6.47929L110.528 8.31758ZM111.861 9.35581C112.218 9.82752 112.505 10.4431 112.699 11.232L114.641 10.7563C114.397 9.75872 114.009 8.87951 113.455 8.1481L111.861 9.35581ZM112.702 11.2437C112.904 12.0274 113.012 12.9658 113.012 14.0703H115.012C115.012 12.8415 114.892 11.7291 114.638 10.7446L112.702 11.2437ZM113.012 14.0703V15.752H115.012V14.0703H113.012ZM114.012 14.752H104.25V16.752H114.012V14.752ZM105.25 15.752V13.1953H103.25V15.752H105.25ZM104.25 14.1953H110.566V12.1953H104.25V14.1953ZM111.566 13.1953V12.8535H109.566V13.1953H111.566ZM111.566 12.825C111.546 12.1276 111.461 11.491 111.29 10.9338L109.378 11.5193C109.481 11.8554 109.55 12.3033 109.567 12.8821L111.566 12.825ZM111.29 10.9338C111.107 10.3347 110.786 9.80005 110.282 9.41775L109.074 11.0119C109.171 11.0854 109.288 11.2252 109.378 11.5193L111.29 10.9338ZM110.308 9.43873C109.784 9.01252 109.133 8.85938 108.475 8.85938V10.8594C108.837 10.8594 108.988 10.9432 109.047 10.991L110.308 9.43873ZM108.475 8.85938C107.936 8.85938 107.414 8.97038 106.945 9.23389L107.926 10.977C108.041 10.9124 108.211 10.8594 108.475 10.8594V8.85938ZM106.966 9.22235C106.474 9.48389 106.105 9.8862 105.845 10.3682L107.604 11.3193C107.708 11.1268 107.814 11.0369 107.905 10.9886L106.966 9.22235ZM105.84 10.377C105.598 10.8365 105.442 11.3949 105.341 12.0081L107.315 12.3317C107.397 11.8329 107.505 11.5072 107.609 11.3105L105.84 10.377ZM105.342 12.0055C105.239 12.6244 105.191 13.353 105.191 14.1797H107.191C107.191 13.4205 107.235 12.8092 107.315 12.3343L105.342 12.0055ZM105.191 14.1797V15.5059H107.191V14.1797H105.191ZM105.191 15.5059C105.191 16.2628 105.26 16.9493 105.415 17.5478L107.351 17.0459C107.251 16.6601 107.191 16.1526 107.191 15.5059H105.191ZM105.416 17.5523C105.57 18.135 105.809 18.6657 106.16 19.1082L107.726 17.8644C107.586 17.6871 107.451 17.4249 107.35 17.0415L105.416 17.5523ZM106.169 19.1196C106.523 19.5518 106.966 19.8756 107.487 20.0759L108.205 18.2092C108.015 18.1362 107.856 18.0224 107.717 17.8531L106.169 19.1196ZM107.487 20.0759C107.981 20.266 108.522 20.3477 109.09 20.3477V18.3477C108.71 18.3477 108.421 18.2926 108.205 18.2092L107.487 20.0759ZM109.09 20.3477C109.921 20.3477 110.696 20.1982 111.392 19.8683L110.534 18.0614C110.154 18.2419 109.681 18.3477 109.09 18.3477V20.3477ZM111.404 19.8623C112.054 19.5426 112.623 19.1143 113.102 18.5794L111.613 17.2449C111.308 17.5849 110.947 17.8585 110.522 18.0674L111.404 19.8623ZM111.531 18.4753L112.994 20.6218L114.647 19.4954L113.184 17.3489L111.531 18.4753ZM113.018 19.4619C112.823 19.7237 112.537 20.01 112.135 20.3152L113.345 21.9075C113.855 21.5199 114.289 21.1045 114.623 20.6553L113.018 19.4619ZM112.145 20.3075C111.788 20.5718 111.334 20.8059 110.766 20.998L111.406 22.8927C112.132 22.6472 112.781 22.3254 113.335 21.9152L112.145 20.3075ZM110.762 20.9994C110.251 21.1745 109.622 21.2734 108.857 21.2734V23.2734C109.788 23.2734 110.645 23.1536 111.41 22.8913L110.762 20.9994ZM122.83 17.2969L122.046 17.9176L122.054 17.9274L122.062 17.9371L122.83 17.2969ZM120.479 15.8887L120.866 14.9668L120.858 14.9634L120.85 14.9602L120.479 15.8887ZM118.66 15.0547L118.171 15.9267L118.18 15.9317L118.189 15.9366L118.66 15.0547ZM117.334 14.0977L116.636 14.8137L116.645 14.8227L117.334 14.0977ZM116.514 12.8945L115.585 13.2659L115.588 13.2724L116.514 12.8945ZM117.566 8.21875L116.891 7.48155L116.883 7.48873L117.566 8.21875ZM124.033 7.52148L123.582 8.41389L123.594 8.42005L124.033 7.52148ZM125.824 9.13477L124.964 9.64428L124.969 9.65257L125.824 9.13477ZM126.453 11.5273V12.5273H127.453V11.5273H126.453ZM122.953 11.5273H121.953V12.5273H122.953V11.5273ZM122.775 10.584L123.698 10.1973L122.775 10.584ZM122.215 9.91406L121.653 10.7415L121.664 10.7485L121.674 10.7552L122.215 9.91406ZM120.355 9.85938L119.87 8.98522L119.863 8.98915L119.856 8.99319L120.355 9.85938ZM119.809 10.4062L120.672 10.9101L120.677 10.9025L120.681 10.8949L119.809 10.4062ZM119.74 11.7324L118.846 12.1796L118.856 12.1991L118.866 12.2181L119.74 11.7324ZM120.164 12.2109L119.535 12.9882L119.546 12.9974L119.558 13.0064L120.164 12.2109ZM120.93 12.6758L120.472 13.5651L120.487 13.5728L120.503 13.58L120.93 12.6758ZM122.146 13.2227L121.748 14.14L121.77 14.1493L121.792 14.1576L122.146 13.2227ZM124.594 14.4121L124.05 15.2514L124.058 15.2568L124.594 14.4121ZM126.043 15.8613L125.176 16.359L125.179 16.3652L126.043 15.8613ZM125.086 21.084L125.729 21.8497L125.731 21.8485L125.086 21.084ZM123.432 21.9727L123.728 22.9279L123.74 22.924L123.432 21.9727ZM118.277 21.5762L117.776 22.4414L117.78 22.4438L118.277 21.5762ZM116.445 19.7715L115.571 20.2571L115.576 20.2653L116.445 19.7715ZM115.83 17.4609V16.4609H114.83V17.4609H115.83ZM119.193 17.4609L120.193 17.4265L120.159 16.4609H119.193V17.4609ZM119.508 18.7188L118.657 19.2442L118.666 19.259L118.676 19.2735L119.508 18.7188ZM122.311 19.3613L122.693 20.2853L122.706 20.2798L122.72 20.2738L122.311 19.3613ZM122.898 18.8555L122.041 18.3409L122.035 18.3516L122.898 18.8555ZM124.104 18.0488C124.104 17.5304 123.929 17.0536 123.598 16.6567L122.062 17.9371C122.096 17.9776 122.104 18.0022 122.104 18.0488H124.104ZM123.614 16.6762C123.334 16.3222 122.94 16.0251 122.508 15.7677L121.485 17.4862C121.818 17.6845 121.98 17.8341 122.046 17.9176L123.614 16.6762ZM122.508 15.7677C122.07 15.5071 121.518 15.2407 120.866 14.9668L120.091 16.8106C120.697 17.0653 121.157 17.291 121.485 17.4862L122.508 15.7677ZM120.85 14.9602C120.193 14.6975 119.621 14.4346 119.132 14.1728L118.189 15.9366C118.756 16.2399 119.397 16.533 120.107 16.8171L120.85 14.9602ZM119.15 14.1827C118.69 13.9244 118.317 13.6526 118.023 13.3727L116.645 14.8227C117.08 15.2354 117.592 15.6017 118.171 15.9267L119.15 14.1827ZM118.032 13.3817C117.76 13.1166 117.567 12.8291 117.44 12.5166L115.588 13.2724C115.825 13.8532 116.179 14.3677 116.636 14.8137L118.032 13.3817ZM117.442 12.5231C117.316 12.2072 117.24 11.8132 117.24 11.3223H115.24C115.24 12.0163 115.347 12.6704 115.585 13.2659L117.442 12.5231ZM117.24 11.3223C117.24 10.8393 117.33 10.4052 117.5 10.0091L115.664 9.21745C115.379 9.87861 115.24 10.5839 115.24 11.3223H117.24ZM117.5 10.0091C117.673 9.60933 117.92 9.25764 118.25 8.94877L116.883 7.48873C116.356 7.98195 115.947 8.55994 115.664 9.21745L117.5 10.0091ZM118.242 8.9559C118.573 8.65231 118.986 8.40194 119.497 8.21397L118.807 6.33681C118.079 6.60457 117.434 6.98311 116.891 7.4816L118.242 8.9559ZM119.497 8.21397C119.989 8.0331 120.567 7.93359 121.244 7.93359V5.93359C120.372 5.93359 119.555 6.06195 118.807 6.33681L119.497 8.21397ZM121.244 7.93359C122.21 7.93359 122.978 8.10812 123.582 8.4138L124.485 6.62917C123.539 6.151 122.447 5.93359 121.244 5.93359V7.93359ZM123.594 8.42005C124.218 8.72463 124.661 9.13374 124.964 9.64426L126.685 8.62527C126.167 7.75037 125.416 7.08397 124.472 6.62292L123.594 8.42005ZM124.969 9.65257C125.283 10.1717 125.453 10.7861 125.453 11.5273H127.453C127.453 10.4639 127.204 9.48324 126.68 8.61696L124.969 9.65257ZM126.453 10.5273H122.953V12.5273H126.453V10.5273ZM123.953 11.5273C123.953 11.0655 123.874 10.6172 123.698 10.1973L121.853 10.9707C121.914 11.1158 121.953 11.2965 121.953 11.5273H123.953ZM123.698 10.1973C123.502 9.73009 123.183 9.34751 122.756 9.07288L121.674 10.7552C121.757 10.8087 121.812 10.8728 121.853 10.9707L123.698 10.1973ZM122.776 9.08659C122.312 8.77164 121.772 8.6543 121.23 8.6543V10.6543C121.491 10.6543 121.607 10.7101 121.653 10.7415L122.776 9.08659ZM121.23 8.6543C120.757 8.6543 120.291 8.75107 119.87 8.98522L120.841 10.7335C120.912 10.6942 121.03 10.6543 121.23 10.6543V8.6543ZM119.856 8.99319C119.471 9.21543 119.156 9.52502 118.936 9.91765L120.681 10.8949C120.716 10.8317 120.766 10.7768 120.855 10.7256L119.856 8.99319ZM118.945 9.90238C118.718 10.2912 118.617 10.7196 118.617 11.1582H120.617C120.617 11.0317 120.644 10.9588 120.672 10.9101L118.945 9.90238ZM118.617 11.1582C118.617 11.5026 118.682 11.8524 118.846 12.1796L120.635 11.2852C120.634 11.2843 120.617 11.2514 120.617 11.1582H118.617ZM118.866 12.2181C119.036 12.5231 119.273 12.7765 119.535 12.9882L120.793 11.4337C120.672 11.3355 120.627 11.2699 120.614 11.2468L118.866 12.2181ZM119.558 13.0064C119.813 13.2005 120.124 13.3858 120.472 13.5651L121.387 11.7865C121.098 11.6376 120.898 11.513 120.77 11.4155L119.558 13.0064ZM120.503 13.58C120.844 13.741 121.26 13.9278 121.748 14.14L122.545 12.3053C122.067 12.0982 121.672 11.9205 121.357 11.7715L120.503 13.58ZM121.792 14.1576C122.732 14.5146 123.479 14.8816 124.05 15.2514L125.137 13.5729C124.414 13.1041 123.53 12.6781 122.501 12.2878L121.792 14.1576ZM124.058 15.2568C124.595 15.5968 124.952 15.969 125.176 16.359L126.91 15.3637C126.496 14.6417 125.887 14.0477 125.129 13.5675L124.058 15.2568ZM125.179 16.3652C125.386 16.7203 125.521 17.2177 125.521 17.9121H127.521C127.521 16.9659 127.338 16.0961 126.907 15.3575L125.179 16.3652ZM125.521 17.9121C125.521 18.4293 125.424 18.8781 125.243 19.2733L127.062 20.1056C127.373 19.4253 127.521 18.6892 127.521 17.9121H125.521ZM125.243 19.2733C125.06 19.673 124.797 20.0199 124.441 20.3195L125.731 21.8485C126.305 21.3642 126.752 20.7814 127.062 20.1056L125.243 19.2733ZM124.443 20.3183C124.099 20.6072 123.665 20.8458 123.123 21.0213L123.74 22.924C124.492 22.6803 125.162 22.3264 125.729 21.8497L124.443 20.3183ZM123.136 21.0175C122.6 21.1834 121.977 21.2734 121.258 21.2734V23.2734C122.142 23.2734 122.969 23.1629 123.728 22.9279L123.136 21.0175ZM121.258 21.2734C120.212 21.2734 119.4 21.067 118.775 20.7085L117.78 22.4438C118.777 23.015 119.952 23.2734 121.258 23.2734V21.2734ZM118.779 20.711C118.116 20.3267 117.639 19.8477 117.315 19.2777L115.576 20.2653C116.091 21.1718 116.835 21.896 117.776 22.4414L118.779 20.711ZM117.319 19.2858C116.987 18.688 116.83 18.084 116.83 17.4609H114.83C114.83 18.4421 115.083 19.3784 115.571 20.2571L117.319 19.2858ZM115.83 18.4609H119.193V16.4609H115.83V18.4609ZM118.194 17.4954C118.216 18.1243 118.342 18.7343 118.657 19.2442L120.359 18.1933C120.291 18.0834 120.208 17.8549 120.193 17.4265L118.194 17.4954ZM118.676 19.2735C118.985 19.738 119.41 20.0885 119.939 20.2851L120.635 18.4102C120.527 18.3698 120.431 18.301 120.34 18.164L118.676 19.2735ZM119.939 20.2851C120.377 20.4478 120.838 20.5254 121.312 20.5254V18.5254C121.058 18.5254 120.835 18.4845 120.635 18.4102L119.939 20.2851ZM121.312 20.5254C121.796 20.5254 122.269 20.4607 122.693 20.2853L121.928 18.4373C121.823 18.4807 121.631 18.5254 121.312 18.5254V20.5254ZM122.72 20.2738C123.146 20.0827 123.515 19.7836 123.762 19.3593L122.035 18.3516C122.027 18.3648 122.004 18.403 121.901 18.4488L122.72 20.2738ZM123.756 19.37C124 18.9624 124.104 18.5094 124.104 18.0488H122.104C122.104 18.208 122.07 18.2928 122.041 18.341L123.756 19.37ZM147.07 18.9512H148.07V17.9512H147.07V18.9512ZM147.07 22V23H148.07V22H147.07ZM138.43 22H137.43V23H138.43V22ZM138.43 18.9512V17.9512H137.43V18.9512H138.43ZM139.482 2.09375H140.482V1.09375H139.482V2.09375ZM139.482 22V23H140.482V22H139.482ZM135.818 22H134.818V23H135.818V22ZM135.818 2.09375V1.09375H134.818V2.09375H135.818ZM145.908 10.2695H146.908V9.26953H145.908V10.2695ZM145.908 13.2363V14.2363H146.908V13.2363H145.908ZM138.43 13.2363H137.43V14.2363H138.43V13.2363ZM138.43 10.2695V9.26953H137.43V10.2695H138.43ZM147.016 2.09375H148.016V1.09375H147.016V2.09375ZM147.016 5.15625V6.15625H148.016V5.15625H147.016ZM138.43 5.15625H137.43V6.15625H138.43V5.15625ZM138.43 2.09375V1.09375H137.43V2.09375H138.43ZM146.07 18.9512V22H148.07V18.9512H146.07ZM147.07 21H138.43V23H147.07V21ZM139.43 22V18.9512H137.43V22H139.43ZM138.43 19.9512H147.07V17.9512H138.43V19.9512ZM138.482 2.09375V22H140.482V2.09375H138.482ZM139.482 21H135.818V23H139.482V21ZM136.818 22V2.09375H134.818V22H136.818ZM135.818 3.09375H139.482V1.09375H135.818V3.09375ZM144.908 10.2695V13.2363H146.908V10.2695H144.908ZM145.908 12.2363H138.43V14.2363H145.908V12.2363ZM139.43 13.2363V10.2695H137.43V13.2363H139.43ZM138.43 11.2695H145.908V9.26953H138.43V11.2695ZM146.016 2.09375V5.15625H148.016V2.09375H146.016ZM147.016 4.15625H138.43V6.15625H147.016V4.15625ZM139.43 5.15625V2.09375H137.43V5.15625H139.43ZM138.43 3.09375H147.016V1.09375H138.43V3.09375ZM156.408 18.8281H155.408V18.8795L155.413 18.9306L156.408 18.8281ZM156.408 1V0H155.408V1H156.408ZM159.908 1H160.908V0H159.908V1ZM159.908 22L159.913 23L160.908 22.9957V22H159.908ZM156.736 22.0137L155.742 22.1161L155.834 23.0176L156.741 23.0137L156.736 22.0137ZM148.902 10.9395L147.93 10.7038L147.929 10.711L148.902 10.9395ZM149.846 8.69727L149.029 8.11957L149.024 8.12806L149.846 8.69727ZM155.314 7.45312L154.773 8.2939L154.783 8.30032L155.314 7.45312ZM156.668 8.88867L155.806 9.39572L155.812 9.40502L156.668 8.88867ZM157.57 11.1035L156.604 11.3605L156.605 11.3631L157.57 11.1035ZM158.049 13.9062H159.049V13.8617L159.045 13.8173L158.049 13.9062ZM158.049 15.4375L159.043 15.549L159.049 15.4934V15.4375H158.049ZM157.543 18.1582L156.578 17.896L156.575 17.9058L157.543 18.1582ZM156.654 20.332L155.801 19.8101L156.654 20.332ZM155.287 21.7676L155.825 22.6106L155.829 22.6083L155.287 21.7676ZM151.363 21.8223L150.9 22.7084L150.908 22.7126L150.916 22.7167L151.363 21.8223ZM149.846 20.4688L149.019 21.0321L149.024 21.0393L149.029 21.0464L149.846 20.4688ZM148.902 18.2402L147.929 18.4687L147.932 18.4804L148.902 18.2402ZM152.225 17.0371L151.236 17.1904L151.237 17.1931L152.225 17.0371ZM152.607 18.3223L151.718 18.7791L151.725 18.7936L151.733 18.8079L152.607 18.3223ZM153.318 19.0605L152.828 19.9321L152.844 19.9411L152.86 19.9495L153.318 19.0605ZM155.738 18.8828L155.119 18.0979L155.108 18.1061L155.738 18.8828ZM156.531 17.7617L157.465 18.1207L157.467 18.1148L156.531 17.7617ZM156.887 16.1211L157.883 16.2103L157.887 16.1658V16.1211H156.887ZM156.887 13.2363H157.887V13.2086L157.885 13.1809L156.887 13.2363ZM156.189 10.8301L155.357 11.3848L155.361 11.3907L155.365 11.3966L156.189 10.8301ZM155.451 10.1328L154.961 11.0044L155.451 10.1328ZM153.332 10.1465L153.822 11.0181L153.831 11.0131L153.332 10.1465ZM152.621 10.8984L151.741 10.4229L151.736 10.4322L151.732 10.4416L152.621 10.8984ZM152.225 12.2109L151.239 12.0438L151.236 12.0576L152.225 12.2109ZM157.408 18.8281V1H155.408V18.8281H157.408ZM156.408 2H159.908V0H156.408V2ZM158.908 1V22H160.908V1H158.908ZM159.904 21L156.732 21.0137L156.741 23.0137L159.913 23L159.904 21ZM157.731 21.9112L157.403 18.7257L155.413 18.9306L155.742 22.1161L157.731 21.9112ZM149.588 15.1641V14.0977H147.588V15.1641H149.588ZM149.588 14.0977C149.588 12.9394 149.688 11.9668 149.876 11.1679L147.929 10.711C147.697 11.6986 147.588 12.8315 147.588 14.0977H149.588ZM149.874 11.1751C150.072 10.3593 150.345 9.73338 150.668 9.26648L149.024 8.12806C148.526 8.84605 148.17 9.71489 147.93 10.7039L149.874 11.1751ZM150.662 9.27493C150.992 8.80809 151.376 8.48276 151.813 8.27091L150.941 6.47128C150.174 6.84277 149.538 7.40154 149.029 8.1196L150.662 9.27493ZM151.813 8.27091C152.26 8.05414 152.791 7.93359 153.428 7.93359V5.93359C152.533 5.93359 151.697 6.10472 150.941 6.47128L151.813 8.27091ZM153.428 7.93359C153.981 7.93359 154.416 8.06418 154.773 8.29384L155.856 6.61241C155.137 6.14937 154.315 5.93359 153.428 5.93359V7.93359ZM154.783 8.30032C155.168 8.54159 155.512 8.89562 155.806 9.39569L157.53 8.38165C157.095 7.64214 156.537 7.03914 155.846 6.60593L154.783 8.30032ZM155.812 9.40502C156.127 9.92824 156.395 10.5753 156.604 11.3605L158.537 10.8465C158.29 9.91819 157.956 9.08868 157.524 8.37232L155.812 9.40502ZM156.605 11.3631C156.815 12.1465 156.966 13.0227 157.053 13.9952L159.045 13.8173C158.949 12.7481 158.781 11.7558 158.536 10.8439L156.605 11.3631ZM157.049 13.9062V15.4375H159.049V13.9062H157.049ZM157.055 15.326C156.951 16.2568 156.791 17.1127 156.578 17.896L158.508 18.4204C158.751 17.5266 158.928 16.5687 159.043 15.549L157.055 15.326ZM156.575 17.9058C156.376 18.6686 156.114 19.2986 155.801 19.8101L157.507 20.854C157.942 20.1442 158.272 19.3249 158.511 18.4106L156.575 17.9058ZM155.801 19.8101C155.497 20.3078 155.143 20.6712 154.746 20.9269L155.829 22.6083C156.507 22.1712 157.064 21.5776 157.507 20.854L155.801 19.8101ZM154.749 20.9245C154.404 21.1447 153.972 21.2734 153.414 21.2734V23.2734C154.296 23.2734 155.113 23.0649 155.825 22.6106L154.749 20.9245ZM153.414 21.2734C152.782 21.2734 152.255 21.1501 151.811 20.9278L150.916 22.7167C151.675 23.096 152.515 23.2734 153.414 23.2734V21.2734ZM151.827 20.9362C151.386 20.7058 150.998 20.3655 150.662 19.8911L149.029 21.0464C149.532 21.7569 150.155 22.3189 150.9 22.7084L151.827 20.9362ZM150.672 19.9054C150.343 19.4233 150.07 18.7965 149.873 18.0001L147.932 18.4804C148.172 19.4522 148.528 20.3111 149.019 21.0321L150.672 19.9054ZM149.876 18.0117C149.688 17.2099 149.588 16.2637 149.588 15.1641H147.588C147.588 16.3795 147.698 17.4841 147.929 18.4687L149.876 18.0117ZM151.102 14.0977V15.1641H153.102V14.0977H151.102ZM151.102 15.1641C151.102 15.9191 151.144 16.5971 151.236 17.1904L153.213 16.8838C153.141 16.4198 153.102 15.8491 153.102 15.1641H151.102ZM151.237 17.1931C151.33 17.78 151.481 18.3187 151.718 18.7791L153.497 17.8655C153.387 17.6513 153.284 17.3333 153.212 16.8811L151.237 17.1931ZM151.733 18.8079C151.994 19.2775 152.356 19.6667 152.828 19.9321L153.809 18.189C153.697 18.1263 153.585 18.0233 153.482 17.8366L151.733 18.8079ZM152.86 19.9495C153.335 20.1943 153.866 20.293 154.412 20.293V18.293C154.102 18.293 153.903 18.2367 153.776 18.1716L152.86 19.9495ZM154.412 20.293C155.127 20.293 155.811 20.1116 156.368 19.6596L155.108 18.1061C154.992 18.2009 154.791 18.293 154.412 18.293V20.293ZM156.358 19.6677C156.865 19.2671 157.228 18.7365 157.465 18.1207L155.598 17.4027C155.47 17.7348 155.304 17.9516 155.119 18.0979L156.358 19.6677ZM157.467 18.1148C157.686 17.5328 157.821 16.8949 157.883 16.2103L155.891 16.0319C155.843 16.5687 155.741 17.0245 155.596 17.4087L157.467 18.1148ZM157.887 16.1211V13.2363H155.887V16.1211H157.887ZM157.885 13.1809C157.854 12.6248 157.771 12.0979 157.629 11.6053L155.707 12.1604C155.802 12.488 155.864 12.8635 155.888 13.2918L157.885 13.1809ZM157.629 11.6053C157.486 11.1126 157.286 10.6596 157.013 10.2635L155.365 11.3966C155.494 11.5838 155.613 11.8327 155.707 12.1604L157.629 11.6053ZM157.021 10.2754C156.741 9.85427 156.381 9.50862 155.941 9.26124L154.961 11.0044C155.104 11.0851 155.237 11.2043 155.357 11.3848L157.021 10.2754ZM155.941 9.26124C155.476 8.99958 154.96 8.88672 154.426 8.88672V10.8867C154.676 10.8867 154.843 10.9379 154.961 11.0044L155.941 9.26124ZM154.426 8.88672C153.863 8.88672 153.317 9.00102 152.833 9.27986L153.831 11.0131C153.948 10.9456 154.132 10.8867 154.426 10.8867V8.88672ZM152.842 9.27491C152.363 9.54446 152 9.94429 151.741 10.4229L153.501 11.374C153.607 11.1781 153.718 11.0766 153.822 11.0181L152.842 9.27491ZM151.732 10.4416C151.496 10.9003 151.34 11.4454 151.239 12.0438L153.211 12.378C153.291 11.9009 153.4 11.5711 153.511 11.3552L151.732 10.4416ZM151.236 12.0576C151.144 12.6514 151.102 13.3342 151.102 14.0977H153.102C153.102 13.4028 153.141 12.8277 153.213 12.3643L151.236 12.0576ZM166.689 7.20703H167.689V6.20703H166.689V7.20703ZM166.689 22V23H167.689V22H166.689ZM163.176 22H162.176V23H163.176V22ZM163.176 7.20703V6.20703H162.176V7.20703H163.176ZM163.518 1.98438L164.234 2.6823L164.243 2.67312L163.518 1.98438ZM166.348 1.98438L165.613 2.66347L165.622 2.67264L166.348 1.98438ZM166.348 4.71875L167.073 5.40707L167.082 5.39779L166.348 4.71875ZM163.518 4.71875L162.793 5.40755L162.801 5.41661L163.518 4.71875ZM165.689 7.20703V22H167.689V7.20703H165.689ZM166.689 21H163.176V23H166.689V21ZM164.176 22V7.20703H162.176V22H164.176ZM163.176 8.20703H166.689V6.20703H163.176V8.20703ZM163.998 3.35156C163.998 3.02216 164.092 2.82788 164.234 2.68224L162.801 1.28651C162.251 1.85181 161.998 2.56898 161.998 3.35156H163.998ZM164.243 2.67312C164.364 2.5458 164.554 2.4375 164.939 2.4375V0.4375C164.122 0.4375 163.364 0.693787 162.793 1.29563L164.243 2.67312ZM164.939 2.4375C165.326 2.4375 165.505 2.54591 165.614 2.66342L167.082 1.30533C166.516 0.693674 165.756 0.4375 164.939 0.4375V2.4375ZM165.622 2.67264C165.759 2.81693 165.854 3.01443 165.854 3.35156H167.854C167.854 2.57672 167.611 1.86276 167.073 1.29611L165.622 2.67264ZM165.854 3.35156C165.854 3.67433 165.762 3.87927 165.614 4.03971L167.082 5.39779C167.608 4.82907 167.854 4.12255 167.854 3.35156H165.854ZM165.622 4.03049C165.515 4.14309 165.334 4.25195 164.939 4.25195V6.25195C165.748 6.25195 166.505 6.00535 167.073 5.40701L165.622 4.03049ZM164.939 4.25195C164.546 4.25195 164.353 4.1433 164.234 4.02089L162.801 5.41661C163.375 6.00514 164.129 6.25195 164.939 6.25195V4.25195ZM164.243 4.03C164.089 3.86832 163.998 3.66662 163.998 3.35156H161.998C161.998 4.13025 162.253 4.84001 162.793 5.4075L164.243 4.03ZM176.123 7.20703H177.123V6.20703H176.123V7.20703ZM176.123 9.87305V10.873H177.123V9.87305H176.123ZM168.727 9.87305H167.727V10.873H168.727V9.87305ZM168.727 7.20703V6.20703H167.727V7.20703H168.727ZM170.586 3.57031V2.57031H169.586V3.57031H170.586ZM174.072 3.57031H175.072V2.57031H174.072V3.57031ZM174.209 18.6777L173.276 19.0367L173.281 19.0491L174.209 18.6777ZM174.605 19.1426L174.177 20.0463L174.186 20.0505L174.195 20.0545L174.605 19.1426ZM176.191 19.1426L177.191 19.1475L177.198 17.7529L175.875 18.1939L176.191 19.1426ZM176.178 21.9316L176.532 22.8666L177.174 22.6231L177.178 21.9365L176.178 21.9316ZM175.303 22.1777L175.107 21.1972L175.303 22.1777ZM172.281 21.8633L171.81 22.7452L171.819 22.75L171.828 22.7547L172.281 21.8633ZM171.037 20.4961L170.133 20.9225L170.135 20.9275L171.037 20.4961ZM175.123 7.20703V9.87305H177.123V7.20703H175.123ZM176.123 8.87305H168.727V10.873H176.123V8.87305ZM169.727 9.87305V7.20703H167.727V9.87305H169.727ZM168.727 8.20703H176.123V6.20703H168.727V8.20703ZM170.586 4.57031H174.072V2.57031H170.586V4.57031ZM173.072 3.57031V17.6797H175.072V3.57031H173.072ZM173.072 17.6797C173.072 18.1583 173.12 18.6328 173.276 19.0367L175.142 18.3188C175.115 18.2487 175.072 18.0579 175.072 17.6797H173.072ZM173.281 19.0491C173.438 19.4431 173.718 19.8285 174.177 20.0463L175.034 18.2388C175.083 18.262 175.118 18.2928 175.137 18.3159C175.155 18.3362 175.151 18.3393 175.137 18.3063L173.281 19.0491ZM174.195 20.0545C174.537 20.2083 174.903 20.2656 175.262 20.2656V18.2656C175.11 18.2656 175.039 18.2409 175.016 18.2307L174.195 20.0545ZM175.262 20.2656C175.501 20.2656 175.735 20.2486 175.965 20.2124L175.653 18.2368C175.535 18.2553 175.406 18.2656 175.262 18.2656V20.2656ZM175.965 20.2124C176.149 20.1833 176.344 20.1459 176.508 20.0913L175.875 18.1939C175.882 18.1916 175.869 18.1964 175.825 18.2058C175.783 18.2146 175.727 18.2251 175.653 18.2368L175.965 20.2124ZM175.191 19.1377L175.178 21.9267L177.178 21.9365L177.191 19.1475L175.191 19.1377ZM175.823 20.9966C175.617 21.0747 175.38 21.1426 175.107 21.1972L175.499 23.1583C175.864 23.0853 176.21 22.9891 176.532 22.8666L175.823 20.9966ZM175.107 21.1972C174.871 21.2443 174.558 21.2734 174.154 21.2734V23.2734C174.644 23.2734 175.096 23.2388 175.499 23.1583L175.107 21.1972ZM174.154 21.2734C173.573 21.2734 173.109 21.1622 172.734 20.9719L171.828 22.7547C172.529 23.1112 173.314 23.2734 174.154 23.2734V21.2734ZM172.753 20.9813C172.441 20.815 172.164 20.5338 171.939 20.0646L170.135 20.9275C170.512 21.7162 171.064 22.3465 171.81 22.7452L172.753 20.9813ZM171.942 20.0697C171.726 19.6119 171.586 18.9392 171.586 17.9941H169.586C169.586 19.109 169.747 20.1042 170.133 20.9225L171.942 20.0697ZM171.586 17.9941V3.57031H169.586V17.9941H171.586ZM178.023 11.0078L178.976 11.3122L178.977 11.3094L178.023 11.0078ZM181.086 7.39844L180.695 6.4781L180.691 6.47989L181.086 7.39844ZM185.939 7.39844L185.544 8.31699L185.548 8.31877L185.939 7.39844ZM187.812 8.76562L187.056 9.41927L187.061 9.42574L187.812 8.76562ZM189.016 11.0078L188.059 11.3005L188.063 11.3122L189.016 11.0078ZM189.016 18.2129L188.063 17.9085L188.06 17.9174L189.016 18.2129ZM187.812 20.4551L187.056 19.8006L187.056 19.8015L187.812 20.4551ZM185.939 21.8223L186.325 22.745L186.331 22.7426L185.939 21.8223ZM181.113 21.8223L180.718 22.7408L180.725 22.7438L180.732 22.7467L181.113 21.8223ZM179.24 20.4551L178.484 21.1096L178.489 21.1152L179.24 20.4551ZM181.277 17.0234L180.298 17.226L180.299 17.2294L181.277 17.0234ZM181.756 18.3223L180.9 18.8401L180.905 18.8482L180.91 18.8563L181.756 18.3223ZM182.521 19.1016L182.011 19.9614L182.027 19.9707L182.043 19.9795L182.521 19.1016ZM184.586 19.1016L185.065 19.9795L185.075 19.9739L185.085 19.9682L184.586 19.1016ZM185.338 18.3223L184.472 17.8212L185.338 18.3223ZM185.789 17.0234L186.771 17.2129L186.772 17.2098L185.789 17.0234ZM185.762 12.2246L184.782 12.4272L184.784 12.4353L184.786 12.4433L185.762 12.2246ZM184.518 10.1328L183.999 10.988L184.009 10.9938L184.019 10.9994L184.518 10.1328ZM182.521 10.1328L183.032 10.9927L183.042 10.9868L183.051 10.9808L182.521 10.1328ZM181.756 10.9121L180.91 10.3781L180.905 10.3862L180.9 10.3943L181.756 10.9121ZM178.6 15.1504V14.0703H176.6V15.1504H178.6ZM178.6 14.0703C178.6 12.9917 178.732 12.0771 178.976 11.3122L177.071 10.7034C176.75 11.7067 176.6 12.8339 176.6 14.0703H178.6ZM178.977 11.3094C179.226 10.5229 179.567 9.90136 179.983 9.41924L178.47 8.11201C177.847 8.83302 177.386 9.70631 177.07 10.7062L178.977 11.3094ZM179.983 9.41924C180.405 8.93055 180.902 8.5662 181.481 8.31698L180.691 6.47989C179.83 6.85047 179.087 7.39758 178.47 8.11201L179.983 9.41924ZM181.477 8.31877C182.069 8.06722 182.741 7.93359 183.506 7.93359V5.93359C182.503 5.93359 181.561 6.10986 180.695 6.47811L181.477 8.31877ZM183.506 7.93359C184.293 7.93359 184.966 8.06834 185.544 8.31698L186.335 6.47989C185.472 6.10874 184.524 5.93359 183.506 5.93359V7.93359ZM185.548 8.31877C186.136 8.56868 186.636 8.93298 187.056 9.41924L188.569 8.11201C187.95 7.39515 187.201 6.84799 186.331 6.47811L185.548 8.31877ZM187.061 9.42574C187.482 9.90448 187.821 10.5205 188.059 11.3005L189.972 10.7151C189.664 9.70863 189.2 8.8299 188.564 8.10551L187.061 9.42574ZM188.063 11.3122C188.308 12.0771 188.439 12.9917 188.439 14.0703H190.439C190.439 12.8339 190.289 11.7067 189.968 10.7034L188.063 11.3122ZM188.439 14.0703V15.1504H190.439V14.0703H188.439ZM188.439 15.1504C188.439 16.229 188.308 17.1436 188.063 17.9085L189.968 18.5173C190.289 17.514 190.439 16.3869 190.439 15.1504H188.439ZM188.06 17.9174C187.822 18.6885 187.482 19.3087 187.056 19.8006L188.569 21.1096C189.2 20.3801 189.663 19.5055 189.971 18.5084L188.06 17.9174ZM187.056 19.8015C186.636 20.2877 186.136 20.652 185.548 20.9019L186.331 22.7426C187.201 22.3727 187.95 21.8256 188.569 21.1087L187.056 19.8015ZM185.554 20.8995C184.971 21.143 184.303 21.2734 183.533 21.2734V23.2734C184.532 23.2734 185.468 23.1031 186.325 22.745L185.554 20.8995ZM183.533 21.2734C182.764 21.2734 182.089 21.143 181.495 20.8978L180.732 22.7467C181.596 23.1031 182.534 23.2734 183.533 23.2734V21.2734ZM181.509 20.9037C180.928 20.6538 180.424 20.2875 179.991 19.795L178.489 21.1152C179.113 21.8258 179.859 22.3709 180.718 22.7408L181.509 20.9037ZM179.996 19.8006C179.568 19.3062 179.223 18.6829 178.976 17.9085L177.071 18.5173C177.389 19.5111 177.855 20.3826 178.484 21.1096L179.996 19.8006ZM178.976 17.9085C178.732 17.1436 178.6 16.229 178.6 15.1504H176.6C176.6 16.3869 176.75 17.514 177.071 18.5173L178.976 17.9085ZM180.113 14.0703V15.1504H182.113V14.0703H180.113ZM180.113 15.1504C180.113 15.9175 180.171 16.6129 180.298 17.226L182.257 16.8208C182.165 16.3767 182.113 15.8234 182.113 15.1504H180.113ZM180.299 17.2294C180.425 17.8267 180.618 18.3727 180.9 18.8401L182.611 17.8045C182.475 17.5791 182.349 17.2592 182.256 16.8174L180.299 17.2294ZM180.91 18.8563C181.196 19.3087 181.558 19.6925 182.011 19.9614L183.032 18.2417C182.902 18.1643 182.753 18.0285 182.601 17.7883L180.91 18.8563ZM182.043 19.9795C182.503 20.2308 183.008 20.3477 183.533 20.3477V18.3477C183.311 18.3477 183.141 18.3005 183 18.2237L182.043 19.9795ZM183.533 20.3477C184.073 20.3477 184.594 20.2363 185.065 19.9795L184.107 18.2237C183.976 18.2949 183.796 18.3477 183.533 18.3477V20.3477ZM185.085 19.9682C185.56 19.6948 185.928 19.298 186.203 18.8233L184.472 17.8212C184.346 18.0392 184.214 18.162 184.087 18.2349L185.085 19.9682ZM186.203 18.8233C186.475 18.3549 186.656 17.8089 186.771 17.2129L184.807 16.834C184.722 17.2771 184.602 17.597 184.472 17.8212L186.203 18.8233ZM186.772 17.2098C186.887 16.6031 186.939 15.9134 186.939 15.1504H184.939C184.939 15.8274 184.892 16.3865 184.807 16.8371L186.772 17.2098ZM186.939 15.1504V14.0703H184.939V15.1504H186.939ZM186.939 14.0703C186.939 13.3153 186.876 12.6238 186.738 12.0059L184.786 12.4433C184.884 12.8827 184.939 13.4217 184.939 14.0703H186.939ZM186.741 12.022C186.616 11.4169 186.423 10.8643 186.139 10.3943L184.428 11.4299C184.562 11.6526 184.689 11.9751 184.782 12.4272L186.741 12.022ZM186.139 10.3943C185.856 9.92763 185.486 9.53673 185.017 9.26619L184.019 10.9994C184.15 11.0752 184.291 11.2039 184.428 11.4299L186.139 10.3943ZM185.036 9.27761C184.569 8.99462 184.05 8.85938 183.506 8.85938V10.8594C183.709 10.8594 183.865 10.9064 183.999 10.988L185.036 9.27761ZM183.506 8.85938C182.966 8.85938 182.452 8.99714 181.991 9.28481L183.051 10.9808C183.175 10.9039 183.317 10.8594 183.506 10.8594V8.85938ZM182.011 9.27296C181.558 9.54186 181.196 9.92565 180.91 10.3781L182.601 11.4461C182.753 11.2059 182.902 11.0701 183.032 10.9927L182.011 9.27296ZM180.9 10.3943C180.616 10.8643 180.423 11.4169 180.298 12.022L182.257 12.4272C182.35 11.9751 182.477 11.6526 182.611 11.4299L180.9 10.3943ZM180.298 12.022C180.172 12.6337 180.113 13.3195 180.113 14.0703H182.113C182.113 13.4175 182.164 12.8728 182.257 12.4272L180.298 12.022ZM195.537 10.2832H196.537V10.2543L196.535 10.2255L195.537 10.2832ZM195.537 22V23H196.537V22H195.537ZM192.037 22H191.037V23H192.037V22ZM192.037 7.20703V6.20703H191.037V7.20703H192.037ZM195.359 7.20703L196.358 7.14935L196.303 6.20703H195.359V7.20703ZM199.064 7.09766L200.064 7.1055L200.07 6.43317L199.449 6.17458L199.064 7.09766ZM199.037 10.584L198.841 11.5646L200.028 11.8019L200.037 10.5918L199.037 10.584ZM198.422 10.502L198.339 11.4985L198.342 11.4988L198.422 10.502ZM195.441 12.334L196.405 12.6028L196.406 12.5971L195.441 12.334ZM195.236 13.6738L195.066 14.6592L196.174 14.8509L196.235 13.7283L195.236 13.6738ZM194.525 13.5508H193.525V14.3926L194.355 14.5361L194.525 13.5508ZM194.744 10.9258L193.762 10.7361L193.76 10.7469L194.744 10.9258ZM195.414 8.83398L194.52 8.38676L194.517 8.3923L195.414 8.83398ZM196.521 7.43945L197.122 8.23952L197.132 8.23146L196.521 7.43945ZM198.586 6.98828L198.407 7.97215L198.432 7.97664L198.457 7.97988L198.586 6.98828ZM194.537 10.2832V22H196.537V10.2832H194.537ZM195.537 21H192.037V23H195.537V21ZM193.037 22V7.20703H191.037V22H193.037ZM192.037 8.20703H195.359V6.20703H192.037V8.20703ZM194.361 7.26471L194.539 10.3409L196.535 10.2255L196.358 7.14935L194.361 7.26471ZM198.064 7.08981L198.037 10.5761L200.037 10.5918L200.064 7.1055L198.064 7.08981ZM199.233 9.6034C199.005 9.55775 198.76 9.52581 198.502 9.50514L198.342 11.4988C198.539 11.5146 198.705 11.5373 198.841 11.5646L199.233 9.6034ZM198.505 9.50541C198.262 9.4852 198.029 9.47461 197.807 9.47461V11.4746C197.967 11.4746 198.144 11.4822 198.339 11.4985L198.505 9.50541ZM197.807 9.47461C197.267 9.47461 196.746 9.56635 196.273 9.78854L197.125 11.5982C197.273 11.5287 197.49 11.4746 197.807 11.4746V9.47461ZM196.273 9.78854C195.818 10.0028 195.433 10.3144 195.126 10.7138L196.714 11.9307C196.827 11.7832 196.961 11.6756 197.125 11.5982L196.273 9.78854ZM195.126 10.7138C194.823 11.1091 194.613 11.5699 194.477 12.0709L196.406 12.5971C196.488 12.296 196.597 12.0823 196.714 11.9307L195.126 10.7138ZM194.478 12.0652C194.345 12.5411 194.268 13.0617 194.238 13.6194L196.235 13.7283C196.259 13.2834 196.319 12.9108 196.405 12.6028L194.478 12.0652ZM195.407 12.6885L194.696 12.5654L194.355 14.5361L195.066 14.6592L195.407 12.6885ZM195.525 13.5508C195.525 12.6534 195.594 11.8391 195.728 11.1047L193.76 10.7469C193.602 11.6166 193.525 12.5523 193.525 13.5508H195.525ZM195.726 11.1155C195.868 10.381 196.067 9.77201 196.311 9.27567L194.517 8.3923C194.178 9.08085 193.93 9.86639 193.762 10.7361L195.726 11.1155ZM196.308 9.2812C196.556 8.78715 196.833 8.45547 197.121 8.23945L195.921 6.63945C195.335 7.07969 194.874 7.6777 194.52 8.38677L196.308 9.2812ZM197.132 8.23146C197.39 8.03239 197.676 7.93359 198.025 7.93359V5.93359C197.245 5.93359 196.528 6.17204 195.911 6.64744L197.132 8.23146ZM198.025 7.93359C198.129 7.93359 198.256 7.9446 198.407 7.97215L198.765 6.00441C198.515 5.95905 198.268 5.93359 198.025 5.93359V7.93359ZM198.457 7.97988C198.539 7.99057 198.598 8.00151 198.64 8.01099C198.684 8.02097 198.693 8.02622 198.68 8.02073L199.449 6.17458C199.218 6.07829 198.956 6.02802 198.715 5.99668L198.457 7.97988Z" fill="#4D4D4D" mask="url(#path-1-outside-1_465_7)"/>
</svg>
