<svg width="30" height="30" viewBox="0 0 30 30" fill="none" xmlns="http://www.w3.org/2000/svg">
<rect x="0.5" y="0.5" width="29" height="29" rx="14.5" fill="#F6F2FF" stroke="#8B5FFF"/>
<path d="M21.3176 21.8442C19.6302 23.2804 17.3866 24.0714 15.0001 24.0714C12.6137 24.0714 10.3701 23.2804 8.68263 21.8442C6.99518 20.408 6.06587 18.4984 6.06587 16.4673C6.06587 15.99 6.52207 15.6017 7.08281 15.6017C7.64356 15.6017 8.09976 15.99 8.09971 16.4673C8.09971 19.7057 11.1952 22.3404 15.0001 22.3404C18.8051 22.3404 21.9006 19.7057 21.9006 16.4673C21.9006 15.0691 21.3111 13.7137 20.2409 12.6507C19.1827 11.5997 17.7224 10.8974 16.129 10.6732C15.9314 10.6454 15.735 10.7294 15.6434 10.8812C15.5517 11.033 15.5857 11.2177 15.7275 11.3384L16.8429 12.2877C17.2394 12.6252 17.2394 13.1743 16.8429 13.5118C16.6509 13.6752 16.3955 13.7653 16.1239 13.7653C15.8522 13.7653 15.5969 13.6752 15.4048 13.5118L11.8172 10.4583C11.6251 10.2948 11.5193 10.0775 11.5193 9.84628C11.5193 9.61514 11.6251 9.39778 11.8172 9.23429L15.4048 6.1808C15.8013 5.84331 16.4465 5.84331 16.8429 6.1808C17.035 6.34426 17.1408 6.56161 17.1408 6.7928C17.1408 7.02394 17.035 7.24134 16.8429 7.40479L15.8452 8.25397C15.7205 8.36008 15.6778 8.51745 15.7352 8.65938C15.7925 8.80131 15.9399 8.903 16.1149 8.9214C18.0963 9.12983 19.8954 9.87982 21.3176 11.0903C23.0051 12.5265 23.9344 14.4361 23.9344 16.4673C23.9344 18.4984 23.0051 20.408 21.3176 21.8442Z" fill="#8B5FFF"/>
</svg>
